<svg xmlns="http://www.w3.org/2000/svg" width="22" height="22" viewBox="0 0 22 22" fill="none"><path d="M21.3248 20.1752L16.2396 15.0909C17.7135 13.3214 18.4485 11.0518 18.2916 8.75419C18.1347 6.45658 17.0981 4.3079 15.3974 2.75513C13.6967 1.20236 11.4628 0.365042 9.16039 0.417367C6.85803 0.469692 4.66448 1.40763 3.03605 3.03606C1.40761 4.6645 0.469677 6.85805 0.417352 9.16041C0.365027 11.4628 1.20234 13.6967 2.75512 15.3974C4.30789 17.0981 6.45657 18.1348 8.75417 18.2916C11.0518 18.4485 13.3214 17.7135 15.0909 16.2396L20.1751 21.3249C20.2506 21.4003 20.3403 21.4602 20.4389 21.5011C20.5375 21.5419 20.6432 21.563 20.75 21.563C20.8567 21.563 20.9625 21.5419 21.0611 21.5011C21.1597 21.4602 21.2493 21.4003 21.3248 21.3249C21.4003 21.2494 21.4602 21.1597 21.5011 21.0611C21.5419 20.9625 21.5629 20.8568 21.5629 20.75C21.5629 20.6432 21.5419 20.5375 21.5011 20.4389C21.4602 20.3403 21.4003 20.2507 21.3248 20.1752ZM2.06249 9.375C2.06249 7.92873 2.49136 6.51493 3.29487 5.3124C4.09837 4.10986 5.24043 3.1726 6.57662 2.61913C7.9128 2.06567 9.3831 1.92086 10.8016 2.20301C12.2201 2.48517 13.523 3.18161 14.5457 4.20428C15.5684 5.22696 16.2648 6.52992 16.547 7.94841C16.8291 9.36689 16.6843 10.8372 16.1309 12.1734C15.5774 13.5096 14.6401 14.6516 13.4376 15.4551C12.2351 16.2586 10.8213 16.6875 9.37499 16.6875C7.43625 16.6854 5.57754 15.9142 4.20664 14.5433C2.83575 13.1725 2.06464 11.3137 2.06249 9.375Z" fill="#253461"></path></svg>