<svg xmlns="http://www.w3.org/2000/svg" width="512" height="512" viewBox="0 0 512 512" fill="none"><g clip-path="url(#clip0_3097_638)"><path d="M263.225 128.084C257.667 99.1763 244.327 70.2688 222.095 50.2559C208.756 38.0258 192.082 26.9075 174.297 21.3484C174.297 21.3484 174.297 21.3484 174.297 20.2366C175.408 18.0129 175.408 15.7893 176.52 11.3419C177.632 9.11828 177.632 8.00646 177.632 6.89463C177.632 0.22366 168.739 -3.11182 164.292 2.44732C163.181 3.55914 162.069 5.7828 162.069 8.00646C160.958 11.3419 159.846 14.6774 159.846 16.9011C159.846 16.9011 159.846 16.9011 158.734 16.9011C125.386 11.3419 90.927 18.0129 62.0254 35.8022C37.5703 50.2559 17.5615 72.4925 4.22237 96.9527C3.11077 99.1763 3.11077 102.512 4.22237 104.735C7.55716 111.406 14.2267 109.183 19.7847 108.071C38.6819 103.624 60.9138 109.183 75.3646 122.525C76.4762 123.637 78.6994 125.86 80.9226 128.084C84.2574 131.419 87.5922 131.419 93.1502 129.196C104.266 125.86 115.382 124.748 126.498 126.972C114.271 166.998 104.266 203.688 94.2618 238.155C93.1502 242.602 90.927 245.938 87.5922 249.273C79.811 255.944 69.8066 255.944 62.0254 249.273C57.579 244.826 55.3559 239.267 56.4674 232.596C56.4674 229.26 58.6906 225.925 57.579 222.589C56.4675 220.366 55.3559 219.254 53.1327 218.142C47.5747 215.918 44.2399 219.254 42.0167 223.701C38.6819 232.596 39.7935 243.714 44.2399 251.497C50.9095 263.727 63.137 270.398 76.4762 270.398C87.5922 269.286 95.3734 265.951 102.043 258.168C104.266 254.832 107.601 250.385 108.713 247.049C117.605 218.142 128.721 180.34 143.172 131.419C154.288 134.755 165.404 141.426 174.297 150.32C175.408 151.432 176.52 152.544 177.632 153.656C179.855 155.88 183.19 155.88 185.413 154.768C195.417 150.32 205.422 149.209 216.537 150.32C229.877 152.544 240.993 156.991 249.885 165.886C252.109 168.11 253.22 169.221 254.332 169.221C258.778 170.333 264.336 169.221 265.448 163.662C265.448 162.551 266.559 160.327 266.559 158.103C265.448 148.097 264.336 138.09 263.225 128.084ZM82.0342 105.847C79.811 104.735 76.4762 102.512 74.253 101.4C60.9138 92.5054 45.3515 89.1699 28.6775 90.2817C33.1239 84.7226 37.5703 78.0516 42.0167 72.4925C65.3602 46.9204 97.5966 32.4667 133.168 31.3548C107.601 48.0323 90.927 76.9398 82.0342 105.847ZM177.632 129.196C177.632 130.308 177.632 131.419 176.52 131.419C175.408 130.308 173.185 129.196 173.185 128.084C150.953 112.518 124.275 106.959 97.5966 111.406C99.8198 104.735 103.155 96.9527 107.601 86.9462C115.382 70.2688 127.61 55.8151 142.06 44.6968C146.507 40.2495 152.065 36.914 157.623 34.6903C158.734 33.5785 160.958 33.5785 162.069 34.6903C163.181 34.6903 164.292 35.8022 165.404 38.0258C174.297 50.2559 178.743 65.8215 179.855 80.2753C182.078 96.9527 180.966 113.63 177.632 129.196ZM248.774 144.761C234.323 135.867 218.761 131.419 200.975 133.643C198.752 133.643 196.529 134.755 194.306 134.755C197.64 116.966 198.752 100.288 197.64 82.4989C196.529 70.2688 194.306 59.1505 189.859 48.0323C189.859 48.0323 189.859 46.9204 188.748 45.8086C204.31 54.7032 218.761 68.0452 228.765 82.4989C239.881 100.288 246.551 119.189 248.774 140.314V143.649C248.774 143.649 248.774 144.761 248.774 144.761Z" fill="#253461" stroke="#253461"></path><path d="M368.826 429.389C386.612 417.159 386.612 394.923 379.942 376.022C377.719 369.351 374.384 363.791 371.05 359.344C359.934 343.779 346.594 330.437 329.92 320.43L328.809 319.318L327.697 312.647L322.139 300.417L325.474 294.858C325.474 294.858 325.474 293.746 326.586 293.746C326.586 293.746 326.586 292.634 327.697 291.523C327.697 291.523 327.697 290.411 328.809 289.299C333.255 278.181 334.367 265.951 331.032 253.72C331.032 252.609 328.809 247.049 328.809 245.938C329.92 242.602 332.144 239.267 334.367 237.043C339.925 229.26 343.26 219.254 342.148 210.359C341.036 205.912 339.925 201.465 338.813 199.241C338.813 198.129 337.702 198.129 337.702 197.017C329.92 185.899 318.804 179.228 305.465 181.452C296.572 182.563 288.791 187.011 283.233 194.794C283.233 194.794 283.233 194.794 282.122 194.794C276.564 192.57 271.006 190.346 265.448 189.234C249.885 185.899 233.211 187.011 218.761 191.458C215.426 192.57 213.203 193.682 210.979 194.794H209.868C203.198 185.899 194.306 181.452 183.19 181.452C169.85 181.452 159.846 189.234 154.288 200.353C150.953 207.024 149.842 213.695 150.953 220.366C152.065 228.148 156.511 234.819 162.069 240.378C163.181 241.49 163.181 241.49 163.181 241.49C157.623 253.72 156.511 264.839 157.623 274.845C158.734 284.852 162.069 292.634 166.516 301.529V302.641C166.516 303.753 165.404 304.865 164.292 307.088C162.069 310.424 160.958 314.871 159.846 319.318C159.846 319.318 159.846 320.43 158.734 320.43C154.288 322.654 152.065 324.877 152.065 324.877C135.391 335.996 120.94 351.561 110.936 370.462C100.931 390.475 98.7081 416.047 119.828 429.389C114.271 438.284 112.047 449.402 113.159 461.632C114.271 474.974 119.828 486.092 128.721 496.099C132.056 499.434 135.391 502.77 138.726 504.994C153.176 515 173.185 513.888 186.524 503.882C192.082 499.434 196.529 493.875 199.864 486.093C199.864 486.093 199.864 486.093 200.975 486.093C205.422 487.204 210.979 489.428 215.426 489.428C236.546 493.875 256.555 492.763 277.675 488.316C281.01 487.204 285.457 486.093 287.68 484.981C295.461 504.994 317.693 516.112 338.813 509.441C349.929 506.105 358.822 498.323 364.38 488.316C376.607 471.639 378.831 448.29 368.826 429.389ZM169.85 197.017C178.743 190.346 192.082 194.794 198.752 203.688C200.975 205.912 200.975 208.135 202.087 208.135C204.31 210.359 206.533 210.359 209.868 209.247C218.761 204.8 227.653 201.465 237.658 201.465C242.104 201.465 247.662 201.465 253.22 201.465C262.113 202.576 272.117 204.8 279.899 209.247C281.01 210.359 283.233 210.359 283.233 210.359C287.68 210.359 287.68 208.136 289.903 204.8C297.684 192.57 312.135 190.346 323.251 200.353C327.697 204.8 329.92 212.583 328.809 219.254C327.697 224.813 324.362 229.26 319.916 232.596C317.693 233.708 314.358 234.819 314.358 239.267C314.358 240.379 314.358 241.49 315.47 243.714C321.028 258.168 321.028 274.845 315.47 289.299C309.912 302.641 301.019 312.647 287.68 319.318C267.671 330.437 244.327 331.548 222.095 327.101C208.756 323.766 196.529 318.206 186.524 308.2C177.632 299.305 172.074 288.187 170.962 274.845C169.85 263.727 170.962 253.72 174.297 243.714C175.408 242.602 175.408 241.49 175.408 240.378C175.408 237.043 172.074 234.819 168.739 233.708C156.511 222.589 157.623 204.8 169.85 197.017ZM283.233 334.884C291.014 331.548 297.684 327.101 304.354 321.542C306.577 320.43 307.688 318.206 308.8 317.095C312.135 313.759 313.246 312.647 313.246 312.647C313.246 313.759 314.358 314.871 314.358 315.983C316.581 324.877 313.246 331.548 306.577 337.108C301.019 341.555 294.349 344.89 286.568 347.114L283.233 334.884ZM249.885 391.587C249.885 386.028 249.885 379.357 249.885 371.574C249.885 362.68 249.885 352.673 249.885 342.667C249.885 342.667 249.885 341.555 250.997 341.555C257.667 341.555 264.336 340.443 271.006 339.331H272.117C276.564 354.897 278.787 371.574 283.233 388.252C271.006 390.475 261.001 391.587 249.885 391.587ZM259.89 418.271H248.774V403.817H257.667L259.89 418.271ZM272.117 402.705L284.345 400.482C284.345 400.482 284.345 400.482 285.457 400.482L287.68 412.712C287.68 412.712 287.68 412.712 287.68 413.824L274.341 417.159L272.117 402.705C271.006 402.705 271.006 402.705 272.117 402.705ZM237.658 341.555V356.009C233.211 356.009 229.877 356.009 227.653 354.897C218.761 353.785 210.979 352.673 203.198 349.338C193.194 346.002 183.19 340.443 176.52 332.66C173.185 329.325 172.074 325.989 173.185 321.542C173.185 318.206 174.297 315.983 175.408 312.647C177.632 314.871 178.743 317.095 180.966 318.206C196.529 332.66 216.537 340.443 237.658 341.555ZM170.962 498.323C154.288 503.882 135.391 491.652 128.721 470.527C122.052 449.402 129.833 428.277 146.507 422.718C163.181 417.159 182.078 429.389 188.748 450.514C195.417 471.639 187.636 492.763 170.962 498.323ZM359.934 471.639C352.152 491.652 333.255 503.882 316.581 498.323C299.907 492.763 292.126 471.639 299.907 450.514C307.688 430.501 326.586 418.271 343.26 423.83C359.934 429.389 366.603 451.626 359.934 471.639ZM363.268 417.159C362.157 418.271 361.045 419.383 359.934 419.383C354.376 412.712 346.594 409.376 337.702 409.376C337.702 409.376 337.702 409.376 336.59 409.376C334.367 397.146 329.92 384.916 324.362 373.798C323.251 371.574 321.028 369.351 318.804 369.351C314.358 369.351 311.023 373.798 313.246 378.245C315.47 383.804 316.581 387.14 317.693 390.475C319.916 397.146 322.139 403.817 323.251 411.6C319.916 412.712 315.47 413.824 312.135 416.047C303.242 421.606 296.572 428.277 292.126 437.172C285.457 448.29 283.233 460.52 284.345 473.862V474.974C281.01 476.086 277.675 477.198 274.341 477.198C250.997 481.645 228.765 481.645 206.533 474.974C205.421 474.974 204.31 473.862 203.198 473.862C205.421 456.073 198.752 438.284 187.636 424.942C180.966 418.271 173.185 412.712 164.292 411.6C166.516 400.482 169.85 390.475 174.297 380.469C175.408 378.245 175.408 377.133 175.408 376.022C175.408 371.574 172.074 369.351 167.627 370.462C165.404 370.462 164.292 372.686 163.181 374.91C158.734 383.804 155.4 392.699 153.176 402.705C153.176 404.929 152.065 408.265 150.953 410.488C150.953 410.488 150.953 411.6 149.842 411.6C140.949 412.712 134.279 416.047 127.61 421.606C126.498 421.606 125.386 420.495 124.275 419.383C105.378 402.705 120.94 372.686 134.279 358.232C142.06 349.338 150.953 341.555 159.846 334.884C164.292 343.779 172.074 350.449 180.966 354.897C196.529 362.68 213.203 367.127 230.988 368.239C233.211 368.239 235.435 368.239 235.435 368.239C235.435 379.357 235.435 390.475 234.323 401.594C234.323 409.376 234.323 417.159 234.323 424.942C234.323 426.054 234.323 427.166 235.435 428.277C236.546 430.501 238.769 431.613 242.104 431.613C244.327 431.613 247.662 431.613 252.109 431.613C265.448 431.613 278.787 429.389 291.014 424.942C293.238 423.83 294.349 423.83 295.461 422.718C299.907 420.495 298.796 416.047 297.684 411.6C295.461 401.594 292.126 386.028 288.791 363.791C288.791 362.68 288.791 361.568 288.791 361.568V360.456C298.796 357.12 307.688 352.673 315.47 346.002C319.916 342.667 323.251 338.219 325.474 332.66C328.809 334.884 332.144 337.108 335.478 339.331C351.041 351.561 363.268 368.239 368.826 386.028C373.273 398.258 372.161 410.488 363.268 417.159Z" fill="#253461" stroke="#253461"></path><path d="M205.421 253.72C205.421 249.273 208.756 244.826 213.203 244.826C217.649 244.826 220.984 248.161 222.095 253.72C222.095 258.168 218.761 262.615 214.314 262.615C209.868 262.615 205.421 259.28 205.421 253.72Z" fill="#253461" stroke="#253461"></path><path d="M266.559 253.72C266.559 249.273 269.894 244.826 274.341 244.826C278.787 244.826 282.122 249.273 282.122 253.72C282.122 258.168 278.787 262.615 274.341 262.615C271.006 262.615 266.559 259.28 266.559 253.72Z" fill="#253461" stroke="#253461"></path><path d="M237.658 301.529V291.523C233.211 290.411 228.765 287.075 227.653 281.516C227.653 278.181 227.653 274.845 229.877 272.622C232.1 270.398 234.323 269.286 237.658 269.286C242.104 269.286 244.327 269.286 245.439 269.286C249.885 269.286 252.109 269.286 253.22 270.398C258.778 272.622 258.778 277.069 258.778 282.628C257.667 287.075 254.332 290.411 249.885 291.523C249.885 291.523 249.885 291.523 249.885 292.634V302.641C254.332 301.529 258.778 300.417 262.113 298.194C262.113 298.194 263.225 298.194 264.336 297.082C267.671 295.97 269.894 298.194 269.894 301.529C269.894 305.976 265.448 308.2 261.001 310.424C248.774 315.983 235.435 314.871 223.207 309.312C223.207 309.312 222.095 308.2 219.872 307.088C217.649 304.865 216.537 303.753 216.537 300.417C216.537 299.305 217.649 298.194 218.761 297.082C222.095 295.97 224.319 297.082 227.653 299.305C232.1 300.417 234.323 301.529 237.658 301.529Z" fill="#253461" stroke="#253461"></path><path d="M309.912 111.406C314.358 124.748 323.251 134.755 336.59 141.426C346.594 146.985 357.71 148.097 368.826 146.985C369.938 149.209 371.05 151.432 372.161 155.88C374.384 161.439 377.719 162.551 382.165 160.327L383.277 163.662V164.774C374.384 171.445 371.049 183.675 375.496 193.682C377.719 198.129 379.942 201.465 384.389 203.688C376.608 208.135 367.715 213.695 363.268 221.477C362.157 223.701 359.933 227.037 358.822 230.372C355.487 238.155 353.264 245.938 349.929 253.72C347.706 259.28 346.594 262.615 345.483 264.839C344.371 268.174 343.26 271.51 343.26 272.622C343.26 277.069 345.483 281.516 348.818 284.852C349.929 285.963 352.152 287.075 355.487 288.187C357.71 289.299 362.157 291.523 369.938 293.746C371.049 294.858 373.273 294.858 375.496 294.858C381.054 294.858 384.389 292.634 386.612 288.187C391.058 302.641 395.505 317.095 401.063 331.548C403.286 338.219 405.509 344.89 413.29 347.114C421.071 350.449 427.741 348.226 435.522 346.002C441.08 343.778 449.973 341.555 454.419 339.331C467.758 332.66 479.986 328.213 492.214 320.43C504.441 312.647 505.553 303.753 505.553 303.753C506.664 299.305 505.553 295.97 503.33 291.523C503.33 290.411 502.218 289.299 501.106 288.187V283.74C501.106 283.74 501.106 283.74 501.106 282.628C501.106 282.628 501.106 281.516 499.995 281.516C498.883 280.404 498.883 279.292 497.772 277.069V275.957C497.772 274.845 496.66 273.733 496.66 272.622L495.548 271.51C495.548 270.398 494.437 270.398 494.437 269.286C494.437 268.174 493.325 268.174 493.325 267.062C493.325 267.062 493.325 267.062 493.325 265.951V264.839C492.214 263.727 492.214 262.615 491.102 261.503C491.102 261.503 491.102 260.391 489.99 260.391C489.99 260.391 489.99 259.28 488.879 259.28C488.879 258.168 487.767 258.168 487.767 257.056C485.544 253.72 484.432 250.385 482.209 247.049H483.321L495.548 248.161L497.772 241.49C497.772 240.378 497.772 240.379 497.772 239.267C498.883 235.931 501.106 229.26 504.441 218.142C506.664 213.695 505.553 210.359 503.33 205.912C503.33 205.912 503.33 205.912 503.33 204.8L449.973 183.675C442.192 181.452 435.522 181.452 427.741 183.675C427.741 183.675 426.629 183.675 424.406 184.787C425.518 180.34 424.406 175.892 422.183 171.445C417.737 161.439 407.732 155.88 396.616 158.103L395.505 154.768C398.839 153.656 401.063 151.432 401.063 148.097C401.063 146.985 399.951 144.761 398.839 142.538C397.728 141.426 397.728 139.202 396.616 136.979V135.867C397.728 134.755 398.839 134.755 398.839 133.643C406.621 126.972 412.179 116.966 414.402 106.959C414.402 105.847 415.513 103.624 415.513 102.512C417.737 89.1699 414.402 74.7161 406.621 63.5979C397.728 50.2559 382.165 40.2495 365.492 39.1376C341.036 36.914 317.693 52.4796 308.8 75.828C305.465 85.8344 305.465 98.0645 309.912 111.406ZM413.29 188.123C412.179 190.346 409.955 192.57 407.732 194.794C407.732 194.794 407.732 194.794 406.621 194.794C401.063 197.017 394.393 195.905 391.058 191.458C387.723 187.011 387.723 182.563 391.058 178.116C393.281 180.34 395.505 181.452 398.839 180.34C402.174 179.228 403.286 175.892 402.174 173.669C407.732 174.781 411.067 178.116 412.179 182.563C414.402 182.563 414.402 185.899 413.29 188.123ZM413.29 219.254C409.955 221.477 405.509 221.477 402.174 220.366C399.951 219.254 397.728 218.142 395.505 215.918C396.616 215.918 397.728 214.806 398.839 214.806C401.063 213.695 402.174 213.695 404.397 212.583C406.621 211.471 408.844 210.359 408.844 210.359C409.955 210.359 413.29 208.135 418.848 205.912C419.96 205.912 421.071 204.8 422.183 203.688C424.406 210.359 419.96 215.918 413.29 219.254ZM391.058 229.26C395.505 232.596 399.951 233.708 405.509 233.708C418.848 233.708 431.076 225.925 434.411 213.695C435.522 209.247 435.522 204.8 434.411 199.241C441.08 198.129 448.861 199.241 455.531 201.465C468.87 207.024 482.209 211.471 493.325 215.918C493.325 215.918 494.437 217.03 493.325 217.03L486.656 237.043C486.656 237.043 486.656 237.043 485.544 237.043C477.763 234.819 473.316 232.596 472.205 232.596C467.758 231.484 464.424 230.372 462.201 234.819C461.089 238.155 463.312 241.49 464.424 243.714C471.093 254.832 479.986 272.622 493.325 297.082C494.437 299.305 495.548 301.529 495.548 301.529C495.548 303.753 494.437 304.865 493.325 305.976C472.205 319.318 448.861 329.325 424.406 334.884C422.183 334.884 421.071 334.884 418.848 333.772C418.848 333.772 418.848 333.772 417.737 332.66C416.625 330.437 416.625 329.325 415.513 328.213C412.179 319.318 408.844 308.2 404.397 294.858C403.286 290.411 401.063 284.852 398.839 279.292C397.728 274.845 396.616 271.51 394.393 267.062C393.281 263.727 391.058 261.503 386.612 261.503C384.389 261.503 383.277 263.727 382.165 265.951C379.942 269.286 377.719 274.845 375.496 279.292H374.384C365.492 275.957 361.045 273.733 359.934 272.622C358.822 272.622 358.822 271.51 357.71 271.51C356.599 270.398 356.599 270.398 356.599 269.286C361.045 258.168 364.38 248.161 368.826 240.378C369.938 238.155 371.05 234.819 372.161 232.596V231.484C374.384 227.037 376.607 222.589 381.054 219.254C386.612 224.813 388.835 227.037 391.058 229.26ZM322.139 90.2817C323.251 79.1634 326.586 70.2688 334.367 63.5979C342.148 55.8151 354.376 51.3677 364.38 52.4796C381.054 53.5914 393.281 64.7097 398.839 79.1635C401.063 81.3871 402.174 85.8344 402.174 89.1699C403.286 101.4 398.839 111.406 391.058 120.301C388.835 116.966 386.612 116.966 383.277 118.077L369.938 123.637C368.826 123.637 368.826 124.748 367.715 124.748C364.38 126.972 363.268 129.196 364.38 132.531C363.268 132.531 363.268 132.531 362.157 132.531C348.818 132.531 335.478 124.748 328.809 112.518C323.251 105.847 321.028 98.0645 322.139 90.2817Z" fill="#253461" stroke="#253461"></path><path d="M325.474 294.858L326.586 293.746C325.474 293.746 325.474 294.858 325.474 294.858Z" fill="#253461" stroke="#253461"></path><path d="M326.586 291.523C326.586 292.634 326.586 292.634 325.474 293.746L326.586 291.523C325.474 292.634 325.474 292.634 326.586 291.523Z" fill="#253461" stroke="#253461"></path></g><defs><clipPath id="clip0_3097_638"><rect width="512" height="512" fill="white"></rect></clipPath></defs></svg>