<svg xmlns="http://www.w3.org/2000/svg" width="512" height="512" viewBox="0 0 512 512" fill="none"><path d="M118.606 505.471C120.955 505.471 123.303 504.295 126.826 504.295M118.606 505.471C128.001 505.471 137.395 505.471 146.79 504.295C191.413 504.295 230.166 504.295 261.872 504.295C264.221 504.295 266.569 504.295 266.569 504.295C271.267 504.295 275.964 504.295 279.487 504.295C329.982 504.295 372.257 504.295 408.661 504.295C413.358 504.295 416.881 504.295 422.753 504.295C439.193 504.295 454.459 498.413 467.377 489.002C479.12 480.768 488.514 470.181 494.386 457.241M118.606 505.471V506.647C128.001 505.471 137.395 505.471 146.79 505.471C186.716 505.471 227.817 505.471 261.872 505.471C264.221 505.471 266.569 505.471 266.569 505.471C270.092 505.471 273.615 505.471 275.964 505.471C277.138 505.471 278.312 505.471 279.487 505.471C328.808 505.471 373.432 505.471 408.661 505.471C411.01 505.471 413.358 505.471 415.707 505.471C418.056 505.471 420.404 505.471 422.753 505.471C438.019 505.471 453.285 499.589 467.377 490.179C479.12 481.944 487.34 471.357 494.386 457.241M118.606 505.471C120.955 505.471 124.478 504.295 126.826 504.295M126.826 504.295C138.569 504.295 151.487 503.118 162.056 504.295M126.826 504.295C128.001 504.295 130.349 504.295 131.523 504.295C142.092 504.295 152.661 504.295 162.056 504.295M162.056 504.295C171.45 504.295 184.367 504.295 198.459 504.295C201.982 504.295 210.202 504.295 223.12 504.295C238.386 504.295 246.606 504.295 247.78 504.295M247.78 504.295C250.129 504.295 254.826 504.295 258.349 504.295M247.78 504.295C248.955 504.295 250.129 504.295 252.478 504.295M258.349 504.295C274.79 504.295 288.881 504.295 306.496 504.295M258.349 504.295C256.001 504.295 254.826 504.295 252.478 504.295M258.349 504.295C265.395 504.295 271.267 504.295 278.312 504.295M306.496 504.295C311.193 504.295 320.588 504.295 333.505 504.295C335.854 504.295 342.9 504.295 353.468 504.295M306.496 504.295C297.101 504.295 287.707 504.295 278.312 504.295M353.468 504.295C365.212 504.295 380.478 504.295 395.744 504.295C398.092 504.295 405.138 504.295 418.056 504.295C423.927 504.295 429.799 504.295 433.322 503.118C439.193 501.942 443.89 500.766 447.413 499.589C454.459 496.06 460.331 493.708 463.854 491.355C487.34 476.063 499.083 447.831 503.78 420.775C504.955 413.717 504.955 406.659 506.129 398.425C506.129 397.248 506.129 392.543 506.129 384.309C506.129 381.956 506.129 378.427 504.955 376.074C503.78 371.369 503.78 367.84 503.78 367.84C503.78 367.84 502.606 364.311 501.432 357.253C496.734 339.608 489.689 323.139 477.945 309.023C474.423 305.494 472.074 301.965 467.377 299.612C457.982 292.554 448.588 287.849 436.845 286.673M353.468 504.295C358.166 504.295 362.863 504.295 367.56 504.295C376.955 504.295 386.349 504.295 394.569 504.295M436.845 286.673C428.624 285.496 419.23 285.496 409.835 285.496C401.615 285.496 395.744 285.496 389.872 285.496C387.523 285.496 386.349 285.496 385.175 284.32C385.175 280.791 386.349 278.438 387.523 274.909C388.698 267.851 389.872 261.97 391.046 256.088C393.395 244.325 394.569 233.738 396.918 221.974C399.267 209.035 402.789 193.742 405.138 178.45C406.312 170.216 407.487 164.334 408.661 160.805C411.01 149.042 412.184 141.984 413.358 132.573C414.533 127.868 414.533 124.339 415.707 119.633C420.404 114.928 421.578 107.87 422.753 99.6356M436.845 286.673C439.193 287.849 441.542 287.849 442.716 287.849C441.542 287.849 441.542 287.849 440.367 287.849C435.67 287.849 430.973 286.673 425.101 286.673C427.45 286.673 430.973 286.673 436.845 286.673ZM422.753 99.6356C425.101 86.696 427.45 73.7563 429.799 59.6403C430.973 53.7586 432.147 44.3479 433.322 39.6426C434.496 34.9373 434.496 30.2319 430.973 26.7029M422.753 99.6356C420.404 107.87 419.23 114.928 416.881 119.633M422.753 99.6356C423.927 92.5776 425.101 85.5196 426.276 78.4616C427.45 72.58 428.624 65.5219 429.799 58.4639C430.973 54.9349 430.973 50.2296 432.147 45.5243C432.147 43.1716 433.322 40.8189 433.322 38.4663C434.496 33.7609 434.496 29.0556 430.973 26.7029M422.753 99.6356C421.578 107.87 420.404 114.928 416.881 119.633M430.973 26.7029C429.799 25.5266 427.45 25.5266 423.927 24.3502C420.404 24.3502 415.707 23.1739 411.01 21.9976C405.138 20.8212 394.569 19.6449 381.652 17.2922C367.56 14.9396 359.34 13.7632 355.817 12.5869C345.248 10.2342 337.028 9.0579 327.634 7.88157C319.413 6.70523 317.065 12.5869 315.89 19.6449M430.973 26.7029C429.799 26.7029 427.45 25.5266 423.927 25.5266C421.578 25.5266 419.23 24.3502 416.881 24.3502C414.533 24.3502 413.358 23.1739 411.01 23.1739C405.138 21.9976 394.569 20.8212 381.652 18.4686C367.56 16.1159 359.34 14.9396 355.817 13.7632C351.12 12.5869 347.597 12.5869 344.074 11.4106C338.202 10.2342 333.505 9.0579 327.634 9.0579C320.588 7.88157 318.239 12.5869 317.065 20.8212C315.89 24.3502 315.89 29.0556 314.716 32.5846C313.542 37.2899 312.367 43.1716 311.193 47.8769C310.019 54.9349 308.845 61.9929 306.496 70.2273C305.322 77.2853 304.147 85.5196 301.799 93.754C300.624 101.988 298.276 110.223 297.101 117.281C295.927 124.339 294.753 131.397 293.578 138.455C293.578 143.16 292.404 149.042 291.23 154.923C288.881 167.863 286.533 179.626 284.184 189.037C281.835 201.977 279.487 212.564 277.138 224.327C274.79 234.914 272.441 246.677 270.092 259.617C270.092 261.97 268.918 264.322 268.918 266.675C267.744 272.557 266.569 279.615 265.395 283.144C265.395 283.144 265.395 284.32 264.221 284.32M315.89 19.6449C314.716 27.8792 312.368 37.2899 310.019 46.7006C308.845 53.7586 307.67 60.8166 305.322 69.0509C301.799 83.167 299.45 101.988 295.927 116.104C293.579 129.044 291.23 140.807 288.881 153.747C286.533 166.687 284.184 178.45 281.835 187.861C277.138 212.564 273.615 232.561 268.918 257.264C267.744 265.499 265.395 274.909 264.221 280.791C264.221 281.967 263.046 281.967 263.046 281.967C263.046 281.967 261.872 281.967 261.872 280.791C260.698 276.086 258.349 271.38 254.826 264.322C253.652 259.617 251.303 254.912 250.129 251.383C246.606 243.148 244.257 234.914 239.56 226.68C232.514 210.211 227.817 199.624 221.945 184.332C216.074 169.039 210.202 154.923 203.156 139.631C198.459 130.22 196.111 121.986 192.588 113.752C186.716 99.6356 182.019 90.225 179.67 83.167C178.496 79.638 177.322 77.2853 176.147 76.1089C172.624 72.5799 170.276 70.2273 167.927 67.8746C165.579 65.5219 163.23 63.1693 160.881 60.8166C157.358 56.1113 151.487 51.4059 144.441 45.5243C137.395 38.4663 132.698 34.9373 126.826 29.0556C123.303 25.5266 118.606 20.8212 112.734 14.9396M315.89 19.6449C314.716 27.8792 312.367 37.2899 310.019 47.8769C308.845 54.9349 307.67 61.9929 305.322 70.2273C301.799 84.3433 299.45 103.165 295.927 117.281C293.579 130.22 291.23 141.984 288.881 154.923C286.533 167.863 284.184 179.626 281.835 189.037C277.138 213.74 273.615 233.738 268.918 258.441C267.744 266.675 265.395 276.086 264.221 281.967C263.046 277.262 260.698 272.557 257.175 265.499C256.001 260.793 253.652 256.088 252.478 252.559C248.955 244.325 246.606 236.09 241.909 227.856M112.734 14.9396C110.386 13.7632 108.037 13.7632 104.514 16.1159C104.514 17.2922 103.34 18.4686 103.34 19.6449M112.734 14.9396C118.606 20.8212 123.303 25.5266 129.175 30.2319C135.046 36.1136 139.744 39.6426 146.789 46.7006C153.835 52.5823 159.707 57.2876 163.23 61.9929C165.578 64.3456 167.927 66.6983 170.276 69.0509C172.624 71.4036 174.973 73.7563 178.496 77.2853C179.67 78.4616 180.845 80.8143 182.019 84.3433C184.367 91.4013 189.065 100.812 194.936 114.928C198.459 123.162 200.808 131.397 205.505 140.807C212.551 156.1 218.423 170.216 224.294 185.508C230.166 200.8 234.863 211.387 241.909 227.856M103.34 19.6449C103.34 25.5266 102.166 32.5846 102.166 38.4663C102.166 53.7586 100.991 64.3456 100.991 70.2273C100.991 80.8143 99.817 87.8723 99.817 94.9303C99.817 104.341 98.6427 109.046 100.991 116.104M103.34 19.6449V20.8212C103.34 20.8212 103.34 21.9976 103.34 23.1739C103.34 21.9976 103.34 20.8212 103.34 19.6449ZM100.991 116.104C102.166 118.457 104.514 124.339 108.037 133.749C109.212 138.455 111.56 141.984 113.909 146.689C116.257 152.571 118.606 159.629 123.303 170.216M100.991 116.104C99.817 114.928 99.817 114.928 99.817 113.752C98.6427 111.399 98.6427 109.046 98.6427 106.694M100.991 116.104C99.817 112.575 98.6427 109.046 98.6427 106.694M123.303 170.216C124.478 173.745 126.826 179.626 130.349 189.037C131.523 192.566 133.872 197.271 136.221 204.329C137.395 206.682 138.569 209.035 138.569 210.211M123.303 170.216C124.478 172.568 125.652 176.097 126.826 179.626C125.652 176.097 123.303 172.568 122.129 169.039C122.129 169.039 122.129 170.216 123.303 170.216ZM138.569 210.211C139.744 214.916 142.092 219.622 144.441 224.327C147.964 233.738 152.661 244.325 156.184 253.735C158.533 260.793 160.881 266.675 164.404 273.733C165.578 276.086 166.753 279.615 166.753 283.144M138.569 210.211C137.395 209.035 137.395 206.682 136.221 205.506C137.395 207.858 137.395 209.035 138.569 210.211ZM166.753 283.144C166.753 283.144 166.753 284.32 165.578 284.32M166.753 283.144C167.927 281.967 167.927 281.967 167.927 280.791C167.927 277.262 166.753 273.733 165.578 271.38C162.056 264.322 159.707 258.441 157.358 251.383C155.01 246.677 153.835 241.972 151.487 237.267C149.138 231.385 147.964 226.68 145.615 221.974C145.615 220.798 144.441 218.445 143.267 216.093C142.092 213.74 140.918 211.387 139.744 209.035C139.744 207.858 138.569 205.506 137.395 203.153C135.046 196.095 132.698 191.39 131.523 187.861C128.001 178.45 125.652 172.568 124.478 169.039C119.78 158.452 117.432 150.218 115.083 145.513C113.909 143.16 112.734 139.631 111.56 137.278C110.386 136.102 110.386 133.749 109.212 132.573C105.689 123.162 103.34 117.281 102.166 114.928C99.817 110.223 100.991 105.517 100.991 98.4593C100.991 97.283 100.991 96.1066 100.991 94.9303C100.991 87.8723 100.991 80.8143 103.34 70.2273C103.34 64.3456 104.514 53.7586 104.514 38.4663C104.514 34.9373 104.514 31.4083 104.514 27.8792C104.514 24.3502 104.514 21.9976 104.514 19.6449C104.514 19.6449 104.514 18.4686 105.689 16.1159C108.037 14.9396 110.386 14.9396 112.734 16.1159C117.432 20.8212 123.303 25.5266 125.652 29.0556C129.175 33.7609 132.698 37.2899 137.395 40.8189C138.569 43.1716 140.918 44.3479 143.267 46.7006C150.312 52.5823 156.184 57.2876 159.707 61.9929C160.881 64.3456 164.404 66.6983 166.753 69.0509C169.101 71.4036 171.45 73.7563 174.973 77.2853C176.147 78.4616 177.322 80.8143 178.496 84.3433C180.845 91.4013 185.542 100.812 191.413 114.928C193.762 120.81 196.111 125.515 198.459 131.397C200.808 134.926 201.982 138.455 203.156 141.984C210.202 157.276 216.074 171.392 221.945 186.684C224.294 191.39 226.643 194.919 227.817 199.624C231.34 207.858 234.863 216.093 239.56 227.856C243.083 233.738 245.432 240.796 247.78 246.677C248.955 249.03 248.955 250.206 250.129 252.559C251.303 254.912 251.303 256.088 252.478 258.441C252.478 261.97 253.652 264.322 254.826 266.675C258.349 273.733 260.698 278.438 261.872 283.144C261.872 283.144 261.872 284.32 263.046 284.32H264.221M166.753 283.144C163.23 284.32 159.707 283.144 157.358 283.144M166.753 283.144C163.23 283.144 160.881 283.144 157.358 283.144M165.578 284.32C162.056 284.32 159.707 284.32 156.184 284.32H165.578ZM165.578 284.32C165.578 283.144 164.404 281.967 164.404 281.967M165.578 284.32H151.487L157.358 283.144M165.578 284.32C165.578 283.144 165.578 283.144 164.404 281.967M164.404 281.967C162.056 274.909 156.184 260.793 146.79 239.619M146.79 239.619C140.918 224.327 131.523 203.153 125.652 186.684M146.79 239.619C144.441 233.738 142.092 227.856 139.744 221.974C135.046 210.211 130.349 198.448 125.652 186.684M125.652 186.684C119.78 172.568 113.909 158.452 109.212 146.689M125.652 186.684C122.129 178.45 119.78 170.216 116.257 163.158C113.909 157.276 111.56 151.394 109.212 146.689M109.212 146.689C104.514 136.102 100.991 125.515 96.2941 114.928M109.212 146.689C108.037 144.336 106.863 140.807 105.689 138.455C102.166 130.22 99.817 123.162 96.2941 114.928M96.2941 114.928C98.6427 111.399 98.6427 109.046 98.6427 106.694M96.2941 114.928C97.4684 111.399 97.4684 109.046 97.4684 106.694C98.6427 87.8723 98.6427 77.2853 98.6427 74.9326C98.6427 69.0509 98.6427 63.1693 99.817 57.2876C99.817 52.5823 99.817 46.7006 100.991 43.1716M98.6427 106.694C99.817 86.696 99.817 77.2853 99.817 74.9326C99.817 64.3456 100.991 52.5823 100.991 43.1716M100.991 43.1716C100.991 29.0556 102.166 21.9976 102.166 20.8212M102.166 20.8212C102.166 18.4686 102.166 17.2922 103.34 16.1159C105.689 13.7632 108.037 12.5869 111.56 13.7632M102.166 20.8212C102.166 18.4686 102.166 17.2922 103.34 14.9396C105.689 12.5869 108.037 11.4106 111.56 12.5869C112.734 12.5869 113.909 13.7632 115.083 14.9396C120.955 20.8212 126.826 26.7029 131.523 30.2319C133.872 33.7609 137.395 37.2899 140.918 40.8189C143.267 43.1716 145.615 45.5243 147.964 47.8769C150.312 49.0533 152.661 51.4059 153.835 53.7586C158.533 58.4639 164.404 64.3456 169.101 69.0509C173.799 73.7563 177.322 76.109 178.496 78.4616C179.67 79.638 180.845 81.9906 180.845 83.167C184.367 86.696 187.89 94.9303 192.588 107.87M111.56 13.7632C112.734 13.7632 113.909 14.9396 115.083 16.1159C120.955 21.9976 126.826 27.8793 131.523 31.4083C137.395 37.2899 143.267 41.9953 147.964 46.7006C155.01 53.7586 162.056 60.8166 170.276 67.8746C174.973 72.5799 178.496 74.9326 179.67 77.2853C180.845 78.4616 182.019 79.638 182.019 81.9906C183.193 86.696 186.716 94.9303 192.588 107.87M111.56 13.7632C110.386 13.7632 108.037 13.7632 105.689 14.9396C106.863 13.7632 108.037 13.7632 109.212 13.7632H110.386C111.56 13.7632 111.56 13.7632 111.56 13.7632ZM192.588 107.87C197.285 118.457 200.808 127.868 203.156 133.749C210.202 150.218 214.9 163.158 219.597 173.745M219.597 173.745C224.294 185.508 233.689 210.211 241.909 227.856M219.597 173.745C221.945 178.45 224.294 186.684 227.817 194.919C232.514 205.506 237.212 218.445 241.909 227.856M241.909 227.856C244.257 232.561 246.606 239.619 251.303 250.206M251.303 250.206C254.826 257.264 258.349 270.204 263.046 279.615C263.046 280.791 264.221 281.967 264.221 284.32M251.303 250.206C252.478 252.559 253.652 256.088 254.826 259.617C257.175 265.499 259.523 272.557 261.872 278.438C261.872 279.615 263.046 280.791 263.046 283.144C266.569 266.675 270.092 247.854 273.615 227.856C277.138 206.682 284.184 170.216 294.753 118.457C302.973 80.8143 308.845 49.0533 313.542 25.5266M264.221 284.32C264.221 284.32 264.221 284.32 264.221 285.496C264.221 285.496 264.221 285.496 265.395 285.496C268.918 269.028 272.441 250.206 275.964 230.209C279.487 209.035 286.533 172.568 297.101 120.81C302.973 79.638 308.845 49.0533 313.542 25.5266M313.542 25.5266C314.716 21.9976 314.716 19.6449 314.716 17.2922M314.716 17.2922C315.89 13.7632 317.065 11.4106 317.065 10.2342M314.716 17.2922C314.716 13.7632 315.89 11.4106 317.065 10.2342M317.065 10.2342C319.413 6.70523 322.936 5.5289 328.808 5.5289M317.065 10.2342C319.413 6.70523 324.111 4.35257 328.808 5.5289M328.808 5.5289C365.212 12.5869 396.918 18.4686 426.276 23.1739M328.808 5.5289C364.037 12.5869 396.918 18.4686 426.276 23.1739M426.276 23.1739C427.45 23.1739 428.624 24.3502 430.973 24.3502M430.973 24.3502C434.496 25.5266 435.67 29.0556 435.67 32.5846V33.7609L388.698 284.32C388.698 284.32 389.872 284.32 391.046 284.32M430.973 24.3502C434.496 25.5266 435.67 29.0556 436.845 32.5846V33.7609L389.872 284.32H391.046M391.046 284.32C393.395 284.32 405.138 284.32 423.927 284.32C427.45 284.32 430.973 284.32 435.67 285.496M435.67 285.496C454.459 286.673 472.074 297.26 482.643 312.552C497.909 333.726 506.129 358.429 507.303 384.309M435.67 285.496C454.459 286.673 473.248 297.26 483.817 312.552C499.083 332.55 507.303 357.253 508.478 384.309C509.652 400.777 507.303 418.422 503.78 433.715C501.432 441.949 499.083 450.183 494.386 457.241M507.303 384.309C508.478 400.777 506.129 417.246 502.606 433.715C500.257 441.949 497.909 449.007 494.386 457.241M507.303 384.309C507.303 381.956 507.303 378.427 506.129 376.074C504.955 371.369 504.955 367.84 504.955 367.84M507.303 384.309C507.303 391.367 507.303 396.072 504.955 398.425C503.78 406.659 503.78 413.717 502.606 420.775C497.909 447.831 486.166 476.063 462.679 491.355M252.478 504.295C254.826 504.295 257.175 504.295 260.698 504.295C263.046 504.295 265.395 504.295 265.395 504.295C267.744 504.295 271.267 504.295 274.79 504.295C275.964 504.295 277.138 504.295 278.312 504.295M252.478 504.295C254.826 504.295 256.001 504.295 257.175 504.295M278.312 504.295C285.358 504.295 292.404 504.295 298.276 504.295C291.23 504.295 284.184 504.295 277.138 504.295C270.092 504.295 264.221 504.295 257.175 504.295M394.569 504.295C396.918 504.295 403.964 504.295 416.881 504.295C422.753 504.295 428.624 504.295 432.147 503.118C438.019 501.942 442.716 500.766 446.239 499.589M394.569 504.295C379.303 504.295 364.037 504.295 352.294 504.295C341.725 504.295 334.679 504.295 332.331 504.295C319.413 504.295 310.019 504.295 305.322 504.295C287.707 504.295 273.615 504.295 257.175 504.295M446.239 499.589C453.285 497.237 459.157 493.708 462.679 491.355M446.239 499.589C453.285 496.06 459.157 493.708 462.679 491.355M462.679 491.355C483.817 477.239 496.734 454.889 502.606 421.951C503.78 417.246 503.78 411.364 504.955 405.483C504.955 403.13 504.955 400.777 504.955 399.601C504.955 398.425 504.955 393.719 504.955 385.485C504.955 383.132 504.955 379.603 503.78 377.25C504.955 370.192 504.955 367.84 504.955 367.84M504.955 367.84C504.955 367.84 504.955 365.487 502.606 357.253M504.955 367.84C504.955 367.84 503.78 364.311 502.606 357.253M502.606 357.253C497.909 339.608 490.863 323.139 479.12 309.023M479.12 309.023C475.597 305.494 473.248 301.965 469.725 299.612C459.156 292.554 449.762 287.849 439.193 287.849C432.147 286.673 421.578 286.673 412.184 286.673C403.964 286.673 398.092 286.673 392.221 286.673C389.872 286.673 388.698 286.673 387.523 285.496L386.349 284.32M479.12 309.023C475.597 305.494 473.248 301.965 468.551 299.612C459.156 292.554 449.762 287.849 438.019 286.673C429.799 285.496 420.404 285.496 411.01 285.496C402.789 285.496 396.918 285.496 391.046 285.496C388.698 285.496 387.523 285.496 386.349 284.32M386.349 284.32C386.349 281.967 386.349 280.791 387.523 278.438C387.523 277.262 388.698 276.086 388.698 273.733C389.872 266.675 391.046 260.793 392.221 254.912C393.395 249.03 394.569 241.972 395.744 236.09C396.918 231.385 396.918 226.68 398.092 220.798C399.267 213.74 400.441 206.682 402.789 198.448C403.964 191.39 405.138 184.332 406.312 177.274C407.487 169.039 408.661 163.158 409.835 160.805M386.349 284.32C386.349 280.791 387.523 278.438 388.698 274.909C389.872 267.851 391.046 261.97 392.221 256.088C394.569 244.325 395.744 233.738 398.092 221.974C400.441 209.035 403.964 193.742 406.312 178.45C407.487 170.216 408.661 164.334 409.835 160.805M409.835 160.805C411.01 156.1 411.01 151.394 412.184 147.865C413.358 143.16 414.533 138.455 414.533 132.573M409.835 160.805C412.184 149.042 413.358 141.984 414.533 132.573M414.533 132.573C414.533 130.22 415.707 129.044 415.707 126.691C415.707 124.339 416.881 121.986 416.881 119.633M414.533 132.573C415.707 127.868 415.707 124.339 416.881 119.633M157.358 283.144C145.615 284.32 130.349 284.32 122.129 284.32C111.56 284.32 102.166 284.32 91.5968 285.496C84.551 285.496 78.6794 285.496 75.1565 286.673C61.0647 289.025 48.1473 294.907 37.5785 304.318C15.2666 325.492 7.04637 356.076 3.52344 384.309C3.52344 389.014 3.52344 392.543 3.52344 396.072C3.52344 398.425 3.52344 401.954 3.52344 405.483C4.69775 416.07 5.87206 426.657 8.22069 437.244C11.7436 452.536 16.4409 464.299 23.4867 474.886C31.7069 486.65 42.2757 494.884 55.1932 500.766C59.8904 501.942 63.4133 503.118 66.9363 504.295C73.9821 505.471 83.3766 505.471 90.4225 505.471C99.817 505.471 109.212 505.471 117.432 505.471C119.78 505.471 122.129 504.295 125.652 504.295C137.395 504.295 150.312 503.118 160.881 504.295C170.276 504.295 183.193 504.295 197.285 504.295C200.808 504.295 209.028 504.295 221.945 504.295C237.212 504.295 245.432 504.295 246.606 504.295C248.955 504.295 253.652 504.295 257.175 504.295M206.679 504.295C205.505 504.295 204.331 504.295 203.156 504.295M381.652 16.1159C382.826 16.1159 382.826 16.1159 381.652 16.1159ZM381.652 16.1159C388.698 17.2922 394.569 18.4686 399.267 19.6449M327.634 6.70523C319.413 5.5289 317.065 10.2342 315.89 17.2922C317.065 13.7632 317.065 11.4106 317.065 11.4106C319.413 7.88157 321.762 6.70523 325.285 6.70523C326.459 6.70523 327.634 6.70523 327.634 6.70523ZM327.634 6.70523C328.808 6.70523 329.982 6.70523 331.156 6.70523M271.267 300.789C272.441 300.789 272.441 300.789 271.267 300.789ZM271.267 300.789C278.312 300.789 284.184 301.965 290.056 303.141C299.45 305.494 301.799 293.731 293.578 291.378C292.404 291.378 287.707 290.202 280.661 289.025C280.661 289.025 279.487 289.025 277.138 287.849C277.138 285.496 277.138 283.144 277.138 281.967C279.487 271.38 280.661 261.97 283.01 253.735C283.01 253.735 283.01 252.559 284.184 252.559C286.533 252.559 287.707 252.559 290.056 253.735C293.579 254.912 298.276 256.088 301.799 256.088C304.147 256.088 306.496 257.264 307.67 257.264C307.67 257.264 307.67 257.264 308.845 257.264C310.019 256.088 311.193 254.912 311.193 253.735C312.367 247.854 307.67 246.677 302.973 245.501C298.276 244.325 294.753 243.148 291.23 243.148C290.056 243.148 287.707 241.972 286.533 240.796M271.267 300.789C271.267 303.141 272.441 304.318 272.441 304.318C273.615 309.023 274.789 312.552 275.964 314.905C275.964 316.081 277.138 316.081 277.138 316.081M286.533 240.796C286.533 240.796 286.533 240.796 286.533 239.619C288.881 230.209 290.056 221.974 291.23 212.564C291.23 210.211 292.404 209.035 292.404 206.682C292.404 206.682 292.404 205.506 293.578 206.682C297.101 206.682 300.624 207.858 305.322 209.035C308.845 210.211 314.716 209.035 315.89 205.506C317.065 201.977 313.542 199.624 311.193 198.448C305.322 197.271 300.624 196.095 295.927 194.919C295.927 194.919 294.753 194.919 294.753 193.742C294.753 191.39 294.753 190.213 295.927 187.861C298.276 178.45 299.45 170.216 300.624 161.981C300.624 159.629 301.799 158.452 301.799 158.452C301.799 158.452 301.799 157.276 302.973 157.276C304.147 157.276 305.322 157.276 307.67 157.276C310.019 157.276 314.716 158.452 322.936 159.629C324.111 159.629 326.459 159.629 329.982 159.629C333.505 152.571 327.634 150.218 321.762 149.042C314.716 147.865 308.845 146.689 305.322 145.513L304.147 144.336C305.322 134.926 307.67 125.515 308.845 116.104C308.845 113.752 310.019 112.575 311.193 110.223C311.193 110.223 312.367 110.223 313.542 110.223C321.762 111.399 325.285 112.575 325.285 112.575C327.634 112.575 331.156 112.575 332.331 110.223C334.679 106.694 332.331 103.165 328.808 101.988C324.111 100.812 319.413 100.812 313.542 99.6356C313.542 99.6356 312.367 99.6356 312.367 98.4593C312.367 96.1066 312.367 93.754 313.542 90.225C314.716 80.8143 317.065 71.4036 318.239 61.9929L319.413 60.8166C326.459 61.9929 334.679 63.1693 341.725 65.5219C342.9 65.5219 344.074 65.5219 345.248 65.5219C349.945 64.3456 349.945 59.6403 347.597 56.1113C346.423 56.1113 345.248 54.9349 344.074 54.9349C337.028 52.5823 329.982 51.4059 324.111 50.2296C321.762 50.2296 321.762 49.0533 321.762 46.7006C324.111 33.7609 325.285 25.5266 326.459 20.8212C326.459 19.6449 327.634 18.4686 327.634 17.2922C327.634 17.2922 327.634 17.2922 328.808 17.2922C334.679 17.2922 340.551 19.6449 344.074 19.6449C347.597 20.8212 355.817 21.9976 368.734 24.3502C373.432 25.5266 378.129 25.5266 380.478 26.7029C387.523 27.8792 392.221 29.0556 398.092 30.2319C402.79 31.4083 408.661 31.4083 415.707 33.7609C416.881 33.7609 419.23 34.9373 420.404 34.9373C420.404 34.9373 420.404 34.9373 420.404 36.1136C420.404 37.2899 420.404 38.4663 420.404 38.4663C419.23 45.5243 418.056 50.2296 418.056 53.7586C416.881 64.3456 414.533 72.58 412.184 84.3433C411.01 101.988 408.661 116.104 402.789 143.16C399.267 163.158 395.744 183.155 392.221 201.977C388.698 219.622 386.349 234.914 382.826 249.03C381.652 252.559 381.652 254.912 381.652 257.264C380.478 260.793 380.478 265.499 379.303 269.028C376.955 284.32 373.432 298.436 372.257 309.023C372.257 311.376 371.083 312.552 369.909 314.905C368.734 314.905 366.386 314.905 364.037 314.905C354.643 314.905 346.423 316.081 338.202 316.081C332.331 316.081 326.459 316.081 320.588 316.081C318.239 316.081 315.89 316.081 313.542 316.081C308.845 316.081 302.973 316.081 294.753 316.081C291.23 316.081 287.707 316.081 285.358 317.257C283.01 317.257 279.487 317.257 277.138 316.081M286.533 240.796C287.707 231.385 290.056 221.974 291.23 213.74C291.23 211.387 291.23 210.211 292.404 207.858H293.578C297.101 207.858 300.624 209.035 305.322 210.211C308.845 211.387 314.716 211.387 315.89 206.682C317.065 203.153 314.716 200.8 311.193 199.624M286.533 240.796C286.533 240.796 286.533 240.796 286.533 241.972C287.707 243.148 290.056 243.148 291.23 244.325C294.753 245.501 298.276 245.501 302.973 246.677C307.67 247.854 312.367 249.03 311.193 254.912C311.193 256.088 310.019 257.264 308.845 258.441C308.845 258.441 308.845 258.441 307.67 258.441C305.322 258.441 302.973 258.441 301.799 257.264C298.276 256.088 293.579 254.912 290.056 254.912C287.707 254.912 286.533 253.735 284.184 253.735C284.184 253.735 283.01 253.735 283.01 254.912C281.835 264.322 279.487 273.733 277.138 283.144C277.138 284.32 277.138 286.673 277.138 289.025M277.138 316.081C275.964 312.552 274.79 309.023 273.615 305.494C272.441 304.318 272.441 301.965 272.441 300.789C278.312 301.965 284.184 303.141 290.056 304.318C299.45 306.67 301.799 293.731 293.578 292.554C292.404 292.554 287.707 291.378 280.661 290.202C279.487 290.202 278.312 289.025 277.138 289.025M277.138 316.081C277.138 316.081 277.138 316.081 278.312 317.257M277.138 316.081C277.138 317.257 278.312 317.257 278.312 317.257M277.138 316.081L272.441 303.141C278.312 304.318 284.184 305.494 291.23 306.67C297.101 307.847 300.624 304.318 299.45 298.436C299.45 294.907 295.927 293.731 292.404 292.554C285.358 291.378 280.661 291.378 277.138 290.202C277.138 290.202 277.138 290.202 277.138 289.025M115.083 36.1136C116.257 34.9373 116.257 34.9373 115.083 36.1136ZM115.083 36.1136L123.303 41.9953C123.303 41.9953 123.303 41.9953 123.303 43.1716L116.257 45.5243V36.1136H115.083ZM108.037 299.612C108.037 298.436 108.037 298.436 108.037 299.612ZM108.037 299.612C133.872 299.612 147.964 299.612 149.138 299.612C156.184 299.612 163.23 299.612 172.624 298.436C173.799 298.436 173.799 298.436 173.799 299.612L178.496 311.376C177.322 311.376 177.322 311.376 176.147 311.376C152.661 311.376 136.221 311.376 124.478 311.376C123.303 311.376 122.129 311.376 120.955 310.199C117.432 306.67 112.734 301.965 108.037 299.612ZM493.212 423.128C490.863 436.067 486.166 450.183 477.945 461.947C473.248 467.828 469.725 473.71 462.679 478.415M493.212 423.128C494.386 411.364 496.734 401.954 496.734 392.543C496.734 379.603 495.56 367.84 492.037 356.077C489.689 343.137 482.643 330.197 474.423 319.61C465.028 307.847 450.936 300.789 436.845 299.612C433.322 298.436 429.799 298.436 425.101 298.436C412.184 298.436 400.441 298.436 387.523 298.436C386.349 298.436 386.349 299.612 386.349 299.612L384.001 311.376C403.964 311.376 421.578 311.376 434.496 311.376C435.67 311.376 439.193 311.376 446.239 311.376C449.762 311.376 454.459 314.905 453.285 319.61C453.285 321.963 450.936 323.139 448.588 324.315H266.569C253.652 292.554 240.734 259.617 228.991 231.385C212.551 190.213 199.634 160.805 192.588 141.984C185.542 125.515 179.67 110.223 172.624 94.9303C171.45 97.283 170.276 99.6356 169.101 101.988C169.101 103.165 169.101 104.341 169.101 105.517C169.101 107.87 176.147 125.515 190.239 156.1C192.588 163.158 197.285 174.921 199.634 180.803C207.854 200.8 214.9 216.093 220.771 233.738C225.468 249.03 232.514 261.97 238.386 278.438C245.432 297.26 251.303 312.552 256.001 324.315H243.083M493.212 423.128C494.386 411.364 496.734 401.954 496.734 393.719C496.734 405.483 495.56 417.246 493.212 429.009C488.514 446.654 479.12 465.476 465.028 477.239C454.459 486.65 440.367 491.355 426.276 492.531C425.101 492.531 422.753 492.531 419.23 492.531C401.615 492.531 374.606 492.531 349.945 492.531C344.074 492.531 337.028 492.531 331.156 492.531C317.065 492.531 302.973 492.531 290.056 492.531C284.184 492.531 279.487 492.531 273.615 492.531C266.569 492.531 256.001 492.531 248.955 492.531M462.679 478.415C457.982 480.768 454.459 485.473 448.588 486.65C441.542 489.002 436.845 490.179 432.147 491.355C425.101 492.531 418.056 492.531 411.01 492.531C402.789 492.531 391.046 492.531 379.303 492.531C376.955 492.531 362.863 492.531 337.028 492.531C329.982 492.531 321.762 492.531 315.89 492.531C304.147 492.531 293.578 492.531 284.184 492.531M462.679 478.415C450.936 487.826 438.019 492.531 423.927 493.708C422.753 493.708 420.404 493.708 416.881 493.708C408.661 493.708 398.092 493.708 387.523 493.708C374.606 493.708 360.514 493.708 347.597 493.708C341.725 493.708 334.679 493.708 328.808 493.708C314.716 493.708 300.624 493.708 287.707 493.708C285.358 493.708 283.01 493.708 280.661 493.708C277.138 493.708 274.79 493.708 271.267 493.708C267.744 493.708 264.221 493.708 259.523 493.708C254.826 493.708 250.129 493.708 246.606 493.708M462.679 478.415C479.12 464.299 487.34 444.302 489.689 430.186C492.037 418.422 493.211 406.659 493.211 394.896H494.386C495.56 405.483 494.386 414.893 492.037 426.657C489.689 440.773 483.817 454.889 476.771 465.476C472.074 471.357 468.551 477.239 461.505 481.944C460.331 481.944 460.331 483.121 459.156 484.297C455.633 486.65 452.111 489.002 447.413 491.355C441.542 493.708 435.67 496.06 430.973 496.06C426.276 497.237 421.578 497.237 416.881 497.237C414.533 497.237 412.184 497.237 409.835 497.237C405.138 497.237 400.441 497.237 395.744 497.237C389.872 497.237 384 497.237 378.129 497.237C375.78 497.237 361.689 497.237 335.854 497.237C331.156 497.237 327.634 497.237 322.936 497.237C319.413 497.237 317.065 497.237 314.716 497.237C302.973 493.708 292.404 493.708 281.835 493.708M284.184 492.531C281.835 492.531 278.312 492.531 275.964 492.531C268.918 492.531 263.046 492.531 258.349 492.531C254.826 492.531 251.303 492.531 248.955 492.531M284.184 492.531L283.01 492.531C281.835 492.531 280.661 492.531 279.487 492.531C279.487 492.531 280.661 492.531 280.661 492.531C281.835 492.531 283.01 492.531 284.184 492.531ZM248.955 492.531C247.78 492.531 244.257 492.531 239.56 492.531C233.689 492.531 228.991 492.531 223.12 492.531C218.423 492.531 212.551 492.531 207.854 492.531C203.156 492.531 198.459 492.531 192.588 492.531C191.413 492.531 189.065 492.531 186.716 492.531C171.45 492.531 155.01 492.531 137.395 492.531C131.523 492.531 126.826 492.531 123.303 492.531H122.129H128M248.955 492.531C241.909 492.531 236.037 492.531 232.514 492.531C226.643 492.531 223.12 492.531 219.597 492.531C212.551 492.531 207.854 492.531 201.982 492.531C198.459 492.531 194.936 492.531 190.239 492.531C187.89 492.531 185.542 492.531 183.193 492.531C164.404 492.531 146.789 492.531 128 492.531M128 492.531H116.257C124.478 484.297 131.523 476.063 136.221 465.476C140.918 456.065 144.441 445.478 146.789 436.067C149.138 424.304 151.487 412.541 151.487 401.954C152.661 378.427 147.964 353.724 136.221 331.373C135.046 329.021 133.872 326.668 132.698 325.492C135.046 325.492 136.221 325.492 137.395 325.492C143.267 325.492 147.964 325.492 153.835 325.492C157.358 325.492 159.707 325.492 162.056 325.492C169.101 325.492 176.147 325.492 180.845 325.492C182.019 325.492 182.019 325.492 183.193 325.492H197.285C194.936 319.61 192.588 313.728 190.239 307.847C186.716 297.26 182.019 285.496 178.496 278.438C171.45 260.793 166.753 247.854 158.533 227.856C157.358 225.503 156.184 220.798 152.661 212.564C147.964 201.977 144.441 191.39 140.918 181.979C138.569 177.274 136.221 169.039 132.698 161.981C125.652 145.513 119.78 131.397 116.257 121.986C116.257 120.81 115.083 119.633 115.083 119.633C118.606 119.633 125.652 121.986 126.826 125.515C130.349 132.573 133.872 143.16 136.221 150.218C139.744 159.629 142.092 165.51 143.267 166.687C144.441 171.392 147.964 176.097 149.138 180.803C151.487 186.684 153.835 192.566 155.01 196.095C157.358 203.153 159.707 207.858 160.881 209.035C162.056 213.74 164.404 217.269 165.578 220.798C166.753 224.327 169.101 229.032 170.276 232.561C171.45 236.09 172.624 238.443 172.624 239.619C172.624 240.796 174.973 244.325 177.322 252.559C179.67 257.264 182.019 261.97 183.193 266.675C187.89 279.615 191.413 287.849 196.111 299.612C197.285 301.965 198.459 306.67 200.808 312.552C201.982 316.081 204.331 320.786 206.679 325.492H218.423C214.9 316.081 211.377 306.67 207.854 299.612C206.679 296.083 203.156 289.025 198.459 276.086C194.936 266.675 190.239 257.264 186.716 249.03C182.019 236.09 177.322 225.503 172.624 212.564C169.101 203.153 165.578 197.271 164.404 191.39C159.707 179.626 156.184 171.392 155.01 166.687C150.312 153.747 145.615 143.16 140.918 131.397C139.744 127.868 138.569 124.339 136.221 120.81C135.046 116.104 135.046 112.575 138.569 110.223C138.569 110.223 138.569 109.046 139.744 109.046M139.744 109.046C139.744 109.046 139.744 109.046 140.918 109.046C146.789 109.046 151.487 111.399 155.01 113.752C156.184 114.928 157.358 116.104 157.358 117.281C162.056 127.868 165.578 137.278 169.101 146.689C173.799 159.629 180.845 173.745 185.542 187.861C189.065 196.095 190.239 200.8 194.936 210.211C196.111 212.564 197.285 214.916 199.634 219.622C200.808 223.151 203.156 227.856 205.505 232.561C210.202 245.501 217.248 259.617 224.294 277.262C225.468 279.615 226.643 281.967 227.817 285.496M139.744 109.046C136.221 111.399 136.221 114.928 137.395 119.633C139.744 123.162 140.918 126.691 142.092 130.22C146.79 141.984 151.487 152.571 156.184 165.51C157.358 170.216 160.881 178.45 165.578 190.213C166.753 196.095 170.276 201.977 173.799 211.387C178.496 224.327 183.193 234.914 187.89 247.854C191.413 256.088 196.111 265.499 199.634 274.909C204.331 287.849 207.854 294.907 209.028 298.436C212.551 305.494 216.074 314.905 220.771 324.315C214.9 310.199 210.202 298.436 206.679 293.731M139.744 109.046C138.569 112.575 136.221 114.928 137.395 117.281M139.744 109.046C136.221 112.575 135.046 116.104 137.395 120.81C139.744 124.339 140.918 127.868 142.092 131.397C146.79 143.16 150.312 153.747 156.184 166.687C157.358 171.392 160.881 179.626 165.578 191.39C167.927 197.271 170.276 204.329 173.799 212.564C178.496 223.151 183.193 233.738 186.716 244.325C186.716 246.677 187.89 247.854 187.89 249.03C190.239 253.735 191.413 257.264 193.762 261.97M139.744 109.046L142.092 106.694L140.918 110.223C140.918 110.223 140.918 111.399 139.744 111.399C138.569 113.752 137.395 116.104 137.395 117.281M227.817 285.496C228.991 289.025 230.166 293.731 232.514 297.26C233.689 300.789 237.212 309.023 241.909 321.963C241.909 323.139 241.909 323.139 243.083 324.315M227.817 285.496C228.991 287.849 230.166 290.202 230.166 292.554M243.083 324.315L244.257 324.315C243.083 324.315 243.083 323.139 244.257 320.786C239.56 307.847 236.037 299.612 234.863 296.083C232.514 292.554 231.34 287.849 230.166 284.32C228.991 280.791 227.817 278.438 226.643 276.086C219.597 258.441 212.551 244.325 207.854 231.385C205.505 226.68 203.156 221.974 201.982 218.445C199.634 213.74 198.459 211.387 197.285 209.035C192.588 199.624 191.413 194.919 187.89 186.684C183.193 172.568 176.147 158.452 171.45 145.513C167.927 136.102 164.404 126.691 159.707 116.104C159.707 114.928 158.533 113.752 157.358 112.575C164.404 129.044 171.45 145.513 177.322 160.805C180.845 167.863 183.193 173.745 184.367 177.274C186.716 184.332 189.065 192.566 192.588 199.624C196.111 209.035 201.982 223.151 209.028 240.796C221.945 270.204 232.514 298.436 243.083 324.315ZM311.193 199.624C305.322 198.448 300.624 197.271 295.927 196.095C294.753 196.095 294.753 194.919 294.753 194.919C294.753 192.566 295.927 191.39 295.927 189.037C297.101 179.626 299.45 171.392 300.624 163.158C300.624 161.981 301.799 160.805 301.799 159.629C301.799 158.452 302.973 158.452 302.973 158.452C304.147 158.452 305.322 158.452 307.67 158.452C310.019 158.452 314.716 159.629 322.936 160.805C325.285 161.981 327.634 161.981 329.982 160.805C333.505 153.747 327.634 151.394 321.762 150.218C314.716 147.865 308.845 147.865 305.322 146.689C304.147 146.689 304.147 145.513 304.147 145.513C305.322 136.102 306.496 126.691 308.845 117.281C310.019 114.928 310.019 112.575 311.193 111.399C311.193 111.399 312.367 111.399 313.542 111.399C320.588 112.575 325.285 113.752 325.285 113.752C327.634 113.752 331.156 113.752 332.331 111.399C334.679 107.87 332.331 104.341 328.808 103.165C324.111 101.988 318.239 101.988 313.542 100.812C312.367 100.812 312.367 99.6356 312.367 99.6356C312.367 97.283 313.542 93.754 313.542 91.4013C314.716 81.9906 317.065 72.5799 318.239 63.1693C318.239 61.9929 319.413 61.9929 319.413 61.9929C326.459 63.1693 334.679 64.3456 341.725 66.6983C342.9 66.6983 344.074 66.6983 345.248 66.6983C349.945 65.5219 351.12 59.6403 347.597 57.2876C347.597 57.2876 346.423 56.1113 344.074 56.1113C337.028 53.7586 329.982 52.5823 324.111 51.4059C321.762 50.2296 321.762 50.2296 321.762 47.8769C324.111 34.9373 325.285 25.5266 326.459 21.9976C326.459 20.8212 326.459 19.6449 327.634 18.4686H328.808C334.679 18.4686 340.551 20.8212 346.423 20.8212C351.12 21.9976 359.34 23.1739 371.083 25.5266C375.78 26.7029 380.478 27.8792 382.826 27.8792C388.698 29.0556 394.569 30.2319 400.441 31.4083C405.138 32.5846 411.01 33.7609 418.056 34.9373C419.23 34.9373 421.578 34.9373 422.753 36.1136C422.753 38.4663 422.753 39.6426 422.753 40.8189C421.578 46.7006 420.404 52.5823 420.404 56.1113C418.056 67.8746 416.881 74.9326 414.533 86.696C412.184 103.165 408.661 117.281 403.964 144.336C400.441 163.158 396.918 183.155 393.395 203.153C389.872 221.974 386.349 237.267 384.001 250.206C384.001 253.735 382.826 256.088 382.826 258.441C382.826 261.97 381.652 265.499 380.478 270.204C378.129 286.673 375.78 299.612 373.432 310.199C372.257 312.552 372.257 314.905 371.083 316.081C368.734 316.081 366.386 316.081 365.212 316.081C355.817 316.081 347.597 317.257 339.377 317.257C333.505 317.257 327.634 317.257 321.762 317.257C319.413 317.257 317.065 317.257 314.716 317.257C310.019 317.257 302.973 317.257 295.927 317.257C292.404 317.257 288.881 318.434 286.533 318.434C284.184 318.434 280.661 318.434 278.312 317.257M311.193 199.624C314.716 200.8 317.065 203.153 317.065 206.682C317.065 211.387 311.193 213.74 306.496 212.564C305.322 212.564 301.799 212.564 293.578 210.211L287.707 241.972C293.578 243.148 300.624 245.501 306.496 246.677C315.89 249.03 313.542 261.97 304.147 259.617C295.927 257.264 288.881 256.088 284.184 254.912C283.01 254.912 283.01 256.088 283.01 256.088L277.138 289.025M311.193 199.624C308.845 199.624 304.147 198.448 295.927 197.271L301.799 163.158C301.799 163.158 301.799 161.981 302.973 163.158C314.716 165.51 320.588 165.51 321.762 166.687C325.285 167.863 329.982 167.863 331.156 163.158C332.331 161.981 332.331 160.805 331.156 158.452C329.982 154.923 327.634 153.747 324.111 152.571C321.762 151.394 314.716 151.394 305.322 149.042L311.193 116.104C311.193 116.104 311.193 114.928 312.367 114.928C315.89 116.104 320.588 116.104 327.634 117.281C331.156 117.281 334.679 116.104 335.854 112.575C337.028 105.517 332.331 104.341 326.459 103.165C324.111 103.165 320.588 101.988 315.89 101.988L322.936 66.6983C328.808 67.8746 333.505 69.0509 338.202 69.0509C340.551 69.0509 341.725 70.2273 344.074 71.4036C345.248 71.4036 346.423 71.4036 346.423 72.5799C348.771 72.5799 352.294 71.4036 353.468 67.8746C354.643 61.9929 351.12 59.6403 346.423 58.4639C345.248 58.4639 339.377 57.2876 326.459 53.7586C326.459 53.7586 326.459 53.7586 326.459 52.5823L328.808 20.8212C361.689 26.7029 391.046 32.5846 415.707 36.1136C416.881 36.1136 419.23 37.2899 420.404 37.2899C421.578 36.1136 421.579 37.2899 421.579 37.2899C406.312 117.281 391.046 199.624 375.78 283.144C373.432 293.731 372.257 303.141 369.909 313.728C369.909 313.728 369.909 313.728 368.734 314.905C366.386 314.905 362.863 314.905 359.34 316.081C348.771 316.081 338.202 317.257 328.808 317.257C313.542 317.257 297.101 317.257 281.835 317.257C280.661 317.257 279.487 317.257 278.312 317.257M137.395 117.281C144.441 136.102 150.312 152.571 157.358 169.039M137.395 117.281C144.441 134.926 150.312 152.571 157.358 169.039M157.358 169.039C158.533 172.568 160.881 178.45 165.578 189.037C167.927 194.919 170.276 201.977 173.799 210.211M173.799 210.211C179.67 224.327 184.367 237.267 189.065 250.206M173.799 210.211C178.496 220.798 182.019 231.385 185.542 240.796C186.716 244.325 187.89 246.677 189.065 250.206M189.065 250.206C190.239 254.912 192.588 258.441 193.762 261.97M193.762 261.97C198.459 272.557 203.156 285.496 206.679 293.731M193.762 261.97C196.111 266.675 197.285 271.38 199.634 276.086C204.331 289.025 207.854 296.083 209.028 299.612C212.551 306.67 216.074 316.081 219.597 325.492H221.945C214.9 307.847 210.202 298.436 206.679 293.731M193.762 261.97C197.285 269.028 199.634 277.262 203.156 284.32C204.331 287.849 205.505 291.378 206.679 293.731M126.826 123.162C125.652 119.633 118.606 118.457 115.083 117.281M126.826 123.162C125.652 121.986 125.652 121.986 124.478 119.633C120.955 118.457 118.606 117.281 115.083 116.104C115.083 117.281 115.083 117.281 115.083 117.281M126.826 123.162C128.001 129.044 129.175 133.749 131.523 137.278C142.092 164.334 153.835 191.39 164.404 218.445C166.753 224.327 169.101 230.209 171.45 237.267C172.624 240.796 174.973 246.677 179.67 256.088C182.019 261.97 184.367 269.028 187.89 274.909C190.239 281.967 193.762 291.378 197.285 300.789C199.634 307.847 203.156 314.905 205.505 321.963C205.505 321.963 205.505 323.139 206.679 323.139H207.854C205.505 318.434 204.331 313.728 201.982 310.199C199.634 304.318 197.285 299.612 197.285 297.26C192.588 285.496 189.065 277.262 184.367 264.322C182.019 259.617 179.67 254.912 178.496 250.206C176.147 243.148 173.799 238.443 173.799 237.267C172.624 236.09 172.624 233.738 171.45 230.209C170.276 226.68 167.927 221.974 166.753 218.445C165.578 213.74 163.23 210.211 162.056 206.682C160.881 204.329 159.707 200.8 156.184 193.742C155.01 189.037 152.661 184.332 150.312 178.45C149.138 173.745 145.615 169.039 144.441 164.334C144.441 163.158 142.092 158.452 137.395 147.865M115.083 117.281C115.083 118.457 115.083 119.633 116.257 119.633C119.78 129.044 125.652 141.984 132.698 159.629C135.046 166.687 138.569 174.921 140.918 179.626C144.441 189.037 149.138 199.624 152.661 210.211C156.184 218.445 158.533 224.327 158.533 225.503C166.753 245.501 172.624 258.441 178.496 276.086C180.845 283.144 185.542 294.907 190.239 305.494C192.588 311.376 194.936 316.081 197.285 323.139H198.459C191.413 306.67 185.542 290.202 177.322 270.204C176.147 266.675 170.276 252.559 159.707 225.503C156.184 216.093 150.312 201.977 143.267 185.508C137.395 170.216 132.698 159.629 129.175 151.394C120.955 131.397 116.257 120.81 115.083 117.281ZM281.835 493.708C280.661 493.708 279.487 493.708 279.487 493.708C278.312 493.708 275.964 493.708 274.789 493.708C267.744 493.708 261.872 493.708 256 493.708C252.478 493.708 248.955 493.708 246.606 493.708M281.835 493.708C283.01 493.708 283.01 493.708 281.835 493.708ZM246.606 493.708C245.432 493.708 241.909 493.708 237.212 493.708C232.514 493.708 228.991 493.708 224.294 493.708C223.12 493.708 221.945 493.708 219.597 493.708C217.248 493.708 214.9 493.708 212.551 493.708M246.606 493.708C239.56 493.708 233.689 493.708 230.166 493.708C225.468 493.708 220.771 493.708 217.248 493.708C216.074 493.708 213.725 493.708 212.551 493.708M212.551 493.708C210.202 493.708 206.679 493.708 204.331 493.708C199.634 493.708 194.936 493.708 189.065 493.708C187.89 493.708 187.89 493.708 186.716 493.708C185.542 493.708 184.367 493.708 184.367 493.708C170.276 493.708 152.661 493.708 135.046 493.708C129.175 493.708 124.478 493.708 120.955 493.708C119.78 493.708 119.78 493.708 119.78 493.708H125.652C143.267 493.708 162.056 493.708 180.845 493.708C183.193 493.708 185.542 493.708 187.89 493.708C190.239 493.708 192.588 493.708 193.762 493.708C196.111 493.708 197.285 493.708 199.634 493.708C204.331 493.708 207.854 493.708 212.551 493.708ZM197.285 492.531H196.111C197.285 492.531 197.285 492.531 197.285 492.531ZM197.285 492.531C198.459 492.531 198.459 492.531 197.285 492.531ZM468.551 471.357C467.377 472.534 466.202 473.71 465.028 474.886M438.019 311.376H120.955V324.315M438.019 311.376V324.315H120.955M438.019 311.376H119.78V325.492H438.019L438.019 311.376ZM120.955 324.315H436.845V312.552H120.955V324.315ZM340.551 504.295C338.202 504.295 335.854 504.295 334.679 504.295C339.377 504.295 344.074 504.295 347.597 504.295C345.248 504.295 341.725 504.295 340.551 504.295ZM379.303 504.295C378.129 504.295 376.955 504.295 376.955 504.295C378.129 504.295 379.303 504.295 379.303 504.295ZM140.918 218.445C140.918 219.622 140.918 219.622 142.092 220.798C143.267 223.151 143.267 224.327 144.441 226.68C144.441 225.503 144.441 225.503 143.267 224.327C143.267 223.151 142.092 220.798 140.918 218.445ZM109.212 137.278C110.386 139.631 111.56 141.984 112.734 145.513C112.734 146.689 113.909 147.865 113.909 149.042C113.909 147.865 113.909 147.865 112.734 146.689C111.56 144.336 110.386 140.807 109.212 137.278ZM102.166 53.7586C102.166 54.9349 102.166 56.1113 102.166 58.4639C102.166 63.1693 102.166 69.0509 100.991 73.7563C100.991 72.58 100.991 72.58 100.991 71.4036C100.991 66.6983 102.166 60.8166 102.166 53.7586ZM434.496 30.2319C434.496 31.4083 434.496 32.5846 434.496 33.7609V31.4083C435.67 32.5846 435.67 31.4083 434.496 30.2319ZM421.579 23.1739C422.753 23.1739 422.753 23.1739 423.927 23.1739C422.753 23.1739 421.579 23.1739 421.579 23.1739ZM103.34 17.2922V18.4686C103.34 18.4686 103.34 18.4686 103.34 17.2922ZM345.248 9.0579C348.771 10.2342 352.294 10.2342 355.817 11.4106C356.991 11.4106 356.991 11.4106 358.166 11.4106C354.643 11.4106 349.945 10.2342 345.248 9.0579ZM112.734 103.165L111.56 101.988L113.909 61.9929C113.909 61.9929 113.909 60.8166 115.083 60.8166C122.129 58.4639 128 56.1113 133.872 53.7586C135.046 53.7586 136.221 53.7586 137.395 54.9349C145.615 63.1693 153.835 71.4036 163.23 80.8143V81.9906L157.358 97.283C157.358 97.283 156.184 98.4593 156.184 97.283C151.487 96.1066 146.789 94.9303 142.092 93.754C137.395 92.5776 135.046 94.9303 132.698 98.4593C131.523 100.812 130.349 103.165 128 106.694C128 107.87 126.826 107.87 125.652 107.87C124.478 107.87 119.78 105.517 112.734 103.165ZM70.4592 491.355C59.8904 490.179 50.4959 484.297 42.2757 476.063C22.3124 454.889 16.4409 425.48 16.4409 396.072C16.4409 385.485 17.6152 374.898 19.9638 363.135C23.4867 347.842 30.5326 331.373 42.2757 319.61C52.8445 307.847 66.9363 301.965 82.2023 304.318C93.9455 305.494 103.34 311.376 110.386 319.61C130.349 340.784 136.221 370.193 136.221 399.601C136.221 410.188 135.046 420.775 132.698 432.538C129.175 449.007 122.129 465.476 110.386 477.239C99.817 487.826 85.7253 493.708 70.4592 491.355ZM245.432 325.492H243.083C232.514 299.612 221.945 271.38 209.028 241.972C201.982 224.327 196.111 210.211 192.588 200.8C191.413 197.271 189.065 192.566 187.89 189.037C186.716 185.508 185.542 181.979 184.367 178.45C183.193 174.921 180.845 169.039 177.322 161.981C171.45 145.513 164.404 130.22 157.358 113.752L156.184 111.399L158.533 113.752C159.707 114.928 160.881 116.104 160.881 117.281C165.578 127.868 169.101 137.278 172.624 146.689C174.973 152.571 177.322 157.276 179.67 163.158C183.193 171.392 186.716 179.626 189.065 187.861C191.413 192.566 192.588 197.271 194.936 201.977C196.111 204.329 197.285 206.682 198.459 210.211C199.634 212.564 200.808 214.916 203.156 219.622C204.331 221.974 205.505 224.327 205.505 226.68C206.679 229.032 206.679 231.385 207.854 232.561C212.551 245.501 219.597 259.617 226.643 277.262C227.817 279.615 228.991 281.967 230.166 285.496C231.34 287.849 232.514 290.202 232.514 292.554C232.514 293.731 233.689 296.083 234.863 297.26C236.037 300.789 239.56 309.023 244.257 321.963C244.257 321.963 244.257 321.963 244.257 323.139C244.257 323.139 244.257 324.315 245.432 325.492ZM200.808 218.445C201.982 219.622 201.982 221.974 203.156 223.151C201.982 221.974 201.982 220.798 200.808 218.445ZM146.789 173.745C146.789 174.921 147.964 176.097 147.964 177.274C147.964 177.274 147.964 174.921 146.789 173.745ZM128.001 127.868C129.175 131.397 130.349 134.926 131.523 138.455C131.523 138.455 131.523 139.631 132.698 139.631C131.523 134.926 130.349 131.397 128.001 127.868ZM259.523 492.531C260.698 492.531 261.872 492.531 264.221 492.531C263.046 492.531 260.698 492.531 259.523 492.531ZM333.505 492.531C334.679 492.531 334.679 492.531 335.854 492.531C334.679 492.531 333.505 492.531 333.505 492.531ZM430.973 491.355C429.799 491.355 427.45 491.355 426.276 491.355C428.624 491.355 429.799 491.355 430.973 491.355Z" fill="#253461" stroke="#253461" stroke-width="0.5" stroke-miterlimit="10"></path></svg>