<svg xmlns="http://www.w3.org/2000/svg" width="512" height="512" viewBox="0 0 512 512" fill="none"><path d="M134.548 174.268C133.02 174.268 133.02 174.268 134.548 174.268ZM134.548 174.268L85.6616 265.93C85.6616 265.93 85.6616 265.93 85.6616 267.458L136.076 363.703H241.487L291.901 270.513C291.901 270.513 291.901 270.513 291.901 268.985L238.431 174.268H134.548ZM510.361 255.236C510.361 395.784 397.312 508.834 256.764 508.834C116.216 508.834 3.16602 395.784 3.16602 255.236C3.16602 114.688 116.216 1.63843 256.764 1.63843C395.784 1.63843 510.361 114.688 510.361 255.236ZM279.679 30.6647L313.288 96.3556C313.288 96.3556 313.288 97.8833 314.816 97.8833L406.478 146.77L459.947 126.91L458.42 111.633V110.105C424.81 64.274 375.924 30.6647 320.927 15.3877H319.399L279.679 30.6647ZM171.213 21.4985C110.105 44.4139 59.6908 88.7171 32.1923 146.77C32.1923 146.77 32.1923 146.77 32.1923 148.297L36.7753 151.353C36.7753 151.353 36.7753 151.353 38.303 151.353C55.1077 139.131 74.9678 123.854 99.4109 107.05C100.939 102.466 103.994 100.939 107.049 96.3556C120.799 82.6064 142.186 61.2186 171.213 32.1924C171.213 32.1924 171.213 32.1924 171.213 30.6647V21.4985ZM174.268 35.2478L105.522 103.994L134.548 168.157L239.959 166.63L308.705 96.3556L275.096 29.137L174.268 35.2478ZM453.837 328.566L499.667 310.233L501.195 308.706C511.889 256.764 507.306 207.877 487.446 158.991C485.918 157.463 485.918 155.936 484.39 154.408C479.807 149.825 473.697 142.187 464.53 131.493L411.061 151.353C408.006 188.017 406.478 221.627 404.95 252.181C404.95 253.708 404.95 253.708 404.95 255.236C406.478 259.819 423.283 284.262 453.837 328.566ZM9.2768 293.429C10.8045 287.318 16.9153 272.041 24.5538 247.598C24.5538 246.07 24.5538 246.07 24.5538 244.542C29.1369 201.767 32.1923 172.74 33.7199 152.88C33.7199 152.88 33.7199 152.88 33.7199 151.353L29.1369 149.825C26.0815 155.936 23.0261 162.047 21.4984 169.685C6.22141 210.933 3.16602 250.653 9.2768 293.429ZM126.909 440.087C129.965 412.589 131.493 389.673 133.02 369.813C133.02 368.286 133.02 366.758 133.02 366.758C119.271 339.259 102.466 307.178 82.6063 270.513C82.6063 270.513 82.6062 268.985 81.0786 268.985L29.1369 252.181C23.0261 270.513 16.9153 287.318 12.3322 302.595C12.3322 304.122 12.3322 304.122 12.3322 305.65C12.3322 314.816 15.3876 322.455 16.9153 330.093C16.9153 331.621 18.443 333.149 18.443 334.676C24.5538 348.426 30.6646 362.175 36.7753 375.924C38.303 378.98 39.8307 382.035 42.8861 386.618C52.0523 400.367 61.2185 412.589 70.3847 423.283C71.9124 424.81 73.4401 426.338 74.9678 426.338C96.3555 432.449 113.16 437.032 126.909 440.087ZM398.839 424.81L449.253 331.621L397.312 256.764L299.539 272.041L249.125 365.23L299.539 441.615L398.839 424.81ZM224.682 488.974L236.904 504.251C236.904 504.251 236.904 504.251 238.431 504.251C247.598 505.778 258.291 505.778 268.985 504.251C323.982 501.195 372.869 481.335 415.644 446.198L400.367 427.866L299.539 447.726H298.011L224.682 488.974ZM81.0786 433.977C122.326 473.697 174.268 499.668 232.321 504.251L221.627 490.501L220.099 488.974L129.965 444.671C129.965 444.671 129.965 444.671 128.437 444.671L81.0786 433.977Z" fill="#253461" stroke="#253461" stroke-miterlimit="10" stroke-linecap="round"></path></svg>