<svg xmlns="http://www.w3.org/2000/svg" width="512" height="512" viewBox="0 0 512 512" fill="none"><g clip-path="url(#clip0_3097_493)"><path d="M446.039 129.93C424.194 101.628 399.779 79.7588 371.509 63.0352C370.224 61.7487 368.939 63.0352 367.654 64.3216C367.654 64.3216 367.654 64.3216 367.654 65.608C363.798 83.6181 356.088 100.342 344.523 114.492C343.238 115.779 343.238 117.065 344.523 118.352L363.798 146.653C366.368 149.226 368.939 150.513 372.794 149.226C389.499 141.508 406.204 136.362 421.624 135.075C430.619 133.789 439.614 135.075 446.039 135.075C446.039 132.502 447.324 131.216 446.039 129.93ZM446.039 129.93C447.324 129.93 447.324 129.93 446.039 129.93ZM514.145 252.141C516.715 392.362 402.349 506.854 259.712 508.141C117.076 510.714 0.139994 398.794 -1.14502 259.859C-3.71504 119.638 110.651 5.14572 253.287 3.85928C395.924 1.28642 512.86 113.206 514.145 252.141ZM243.007 30.8744C241.722 30.8744 241.722 30.8744 241.722 32.1608V33.4472L318.823 90.0502C321.393 91.3367 323.963 91.3367 325.248 90.0502C335.528 79.7588 340.668 66.8945 343.238 54.0301C343.238 51.4573 341.953 47.598 339.383 46.3115C305.973 37.3065 273.848 32.1608 243.007 30.8744ZM294.408 104.201C295.693 104.201 295.693 102.915 295.693 102.915V101.628C263.568 77.1859 239.152 59.1759 223.732 47.598C204.457 33.4472 189.037 39.8794 167.192 48.8844C142.776 59.1759 120.931 73.3266 101.656 91.3367V92.6231C101.656 92.6231 101.656 92.6231 102.941 92.6231C118.361 91.3367 136.351 90.0502 155.626 91.3367C180.042 92.6231 204.457 100.342 228.872 104.201C253.287 106.774 275.133 108.06 294.408 104.201ZM341.953 153.085L322.678 129.93C320.108 127.357 316.253 126.07 312.398 127.357C269.993 141.508 217.307 131.216 174.902 120.925C149.201 114.492 120.931 115.779 92.6609 124.784C73.3857 128.643 60.5356 141.508 51.5405 159.518C25.8402 208.402 20.7002 258.573 32.2653 310.03C32.2653 311.317 34.8353 312.603 36.1203 312.603C36.1203 312.603 37.4053 312.603 37.4053 311.317C91.3759 257.286 151.771 217.407 221.162 191.678C246.862 182.673 285.413 172.382 338.098 160.804C340.668 160.804 341.953 158.231 341.953 155.658C343.238 154.372 341.953 154.372 341.953 153.085ZM484.59 249.568C483.305 221.266 478.165 195.538 467.884 172.382C455.034 142.794 402.349 162.09 380.504 172.382C379.219 172.382 379.219 173.668 379.219 174.955L390.784 204.543C392.069 207.116 393.354 208.402 395.924 208.402C430.619 208.402 460.174 223.839 482.02 250.854C483.305 250.854 483.305 250.854 484.59 249.568ZM365.083 207.116L358.658 190.392C357.373 186.533 353.518 185.246 349.663 185.246C303.403 196.824 272.563 204.543 257.142 208.402C177.472 231.558 105.511 279.156 47.6854 339.618C46.4004 342.191 45.1154 344.764 46.4004 346.05C60.5356 380.784 90.0909 418.09 120.931 437.387C138.921 448.965 153.056 450.251 169.762 437.387C223.732 394.935 245.577 348.623 291.838 270.151C307.258 244.422 330.388 226.412 361.228 214.834C365.083 214.834 367.653 210.975 365.083 207.116ZM383.074 445.105C426.764 418.09 456.319 380.784 471.739 333.186C479.45 310.03 476.88 290.734 466.599 274.01C452.464 250.854 430.619 237.99 403.634 235.417C401.064 235.417 399.779 236.704 399.779 239.276C399.779 239.276 399.779 239.276 399.779 240.563C403.634 306.171 403.634 384.643 381.789 443.819C380.504 443.819 381.789 445.105 383.074 445.105ZM181.327 465.688C228.872 482.412 273.848 483.698 318.823 472.121C357.373 461.829 366.368 420.663 371.509 385.93C379.219 338.332 380.504 290.734 376.649 244.422C376.649 241.849 374.079 239.276 370.224 239.276H368.939C345.808 246.995 326.533 262.432 312.398 284.302C311.113 285.588 294.408 315.176 260.997 370.492C243.007 400.08 222.447 425.809 198.032 447.678C192.892 452.824 182.612 456.683 178.757 460.543C180.042 463.116 180.042 464.402 181.327 465.688Z" fill="#253461" stroke="#253461" stroke-width="0.5" stroke-miterlimit="10"></path></g><defs><clipPath id="clip0_3097_493"><rect width="512" height="512" fill="white"></rect></clipPath></defs></svg>