<svg xmlns="http://www.w3.org/2000/svg" width="512" height="512" viewBox="0 0 512 512" fill="none"><path d="M470.959 365.27V324.919C470.959 268.673 448.917 214.872 408.507 175.744C387.69 154.957 361.974 137.839 335.034 128.057C336.259 124.389 335.034 119.498 335.034 117.052C335.034 114.607 333.81 112.161 335.034 110.938C335.034 109.716 337.483 107.27 338.708 106.047C342.382 102.379 346.055 97.4881 346.055 91.3744C346.055 85.2607 342.382 80.3697 338.708 76.7014C337.483 75.4787 335.034 73.0332 335.034 71.8104C335.034 70.5877 335.034 68.1422 335.034 65.6967C336.259 60.8057 337.483 54.6919 333.81 49.8009C330.136 44.9099 325.238 42.4644 320.34 40.0189C317.891 38.7962 315.442 38.7962 314.217 37.5735C312.993 36.3507 311.768 33.9052 311.768 31.4597C310.543 26.5687 308.094 20.455 301.972 18.0095C297.074 14.3412 290.951 15.564 286.053 16.7867C283.604 16.7867 281.154 18.0095 279.93 16.7867C278.705 16.7867 276.256 14.3412 275.032 13.1185C271.358 9.45023 266.46 5.78198 260.337 5.78198C254.215 5.78198 249.316 9.45023 245.643 13.1185C244.418 14.3412 241.969 16.7867 240.745 16.7867C239.52 16.7867 237.071 16.7867 234.622 16.7867C229.724 15.564 223.601 14.3412 218.703 18.0095C213.805 21.6777 211.356 26.5687 208.906 31.4597C207.682 33.9052 207.682 36.3507 206.457 37.5735C205.233 38.7962 202.784 40.0189 200.335 40.0189C195.436 41.2417 189.314 43.6872 186.865 49.8009C180.742 51.0237 181.966 57.1374 183.191 62.0284C183.191 64.4739 184.416 66.9194 183.191 68.1422C183.191 69.3649 180.742 71.8104 179.517 73.0332C175.844 76.7014 172.17 81.5924 172.17 87.7061C172.17 93.8199 175.844 98.7109 179.517 102.379C181.966 106.047 183.191 108.493 183.191 109.716C183.191 110.938 183.191 113.384 183.191 115.829C183.191 119.498 181.966 123.166 183.191 126.834C156.251 137.839 130.536 153.735 109.718 174.521C69.3085 214.872 47.2667 267.45 47.2667 323.697V364.047C38.6949 367.716 31.3477 376.275 31.3477 386.057V480.208C31.3477 492.436 41.144 503.441 54.614 503.441H463.611C475.857 503.441 486.878 493.659 486.878 480.208V387.28C485.653 377.498 479.53 368.938 470.959 365.27ZM197.886 104.825C196.661 99.9336 194.212 97.4881 191.763 93.8199C190.538 92.5971 188.089 88.9289 188.089 87.7061C188.089 86.4834 190.538 84.0379 191.763 81.5924C194.212 79.1469 196.661 75.4787 197.886 70.5877C199.11 65.6967 197.886 62.0284 197.886 57.1374C197.886 54.6919 196.661 52.2464 197.886 51.0237C197.886 49.8009 201.559 48.5782 204.008 48.5782C207.682 47.3554 212.58 46.1327 215.029 42.4644C218.703 38.7962 219.927 35.128 221.152 31.4597C222.376 29.0142 223.601 26.5687 223.601 25.346C224.825 25.346 228.499 25.346 229.724 25.346C233.397 26.5687 238.295 26.5687 243.194 25.346C248.092 24.1232 250.541 21.6777 254.215 19.2322C255.439 18.0095 259.113 15.564 260.337 15.564C261.562 15.564 264.011 18.0095 266.46 19.2322C268.909 21.6777 272.583 24.1232 277.481 25.346C282.379 26.5687 286.053 25.346 290.951 25.346C293.4 25.346 295.849 24.1232 297.074 25.346C298.298 25.346 299.523 29.0142 299.523 31.4597C300.747 35.128 301.972 40.0189 305.645 42.4644C309.319 46.1327 312.993 47.3554 316.666 48.5782C319.115 49.8009 321.564 51.0237 322.789 51.0237C322.789 52.2464 322.789 55.9147 322.789 57.1374C321.564 60.8057 321.564 65.6967 322.789 70.5877C324.013 75.4787 326.463 77.9242 328.912 81.5924C327.687 85.2606 330.136 87.7061 330.136 88.9289C330.136 90.1516 327.687 92.5971 326.463 95.0426C324.013 97.4881 321.564 101.156 320.34 106.047C319.115 110.938 320.34 114.607 320.34 119.498C320.34 120.72 320.34 121.943 320.34 123.166C300.747 117.052 279.93 114.607 259.113 114.607C238.295 114.607 217.478 118.275 197.886 123.166C197.886 121.943 197.886 120.72 199.11 119.498C197.886 114.607 199.11 109.716 197.886 104.825ZM259.113 128.057C343.606 128.057 415.854 181.858 444.019 256.445C436.671 257.668 431.773 260.114 426.875 262.559C418.303 266.227 410.956 269.896 396.262 269.896C381.567 269.896 374.22 266.227 365.648 262.559C357.076 258.891 347.28 254 328.912 254C310.544 254 300.747 258.891 292.175 262.559C283.604 266.227 276.256 269.896 261.562 269.896C245.643 269.896 239.52 266.227 230.948 262.559C222.376 258.891 212.58 254 194.212 254C177.068 254 167.272 257.668 158.7 262.559C155.027 263.782 153.802 268.673 155.027 272.341C156.251 276.009 161.149 277.232 164.823 276.009C172.17 272.341 179.517 269.896 194.212 269.896C210.131 269.896 216.254 273.564 224.825 277.232C233.397 280.9 243.194 285.791 261.562 285.791C279.93 285.791 289.726 280.9 298.298 277.232C306.87 273.564 314.217 269.896 328.912 269.896C344.831 269.896 350.953 273.564 359.525 277.232C368.097 280.9 377.893 285.791 396.262 285.791C414.63 285.791 424.426 280.9 432.998 277.232C437.896 274.787 442.794 272.341 448.917 271.118C451.366 280.9 453.815 291.905 455.04 302.91C441.57 304.133 434.222 307.801 426.875 311.469C418.303 315.137 410.956 318.806 396.262 318.806C381.567 318.806 374.22 315.137 365.648 311.469C357.076 307.801 347.28 302.91 328.912 302.91C310.544 302.91 300.747 307.801 292.175 311.469C283.604 315.137 276.256 318.806 261.562 318.806C245.643 318.806 239.52 315.137 230.948 311.469C222.376 307.801 212.58 302.91 194.212 302.91C175.844 302.91 166.047 307.801 157.476 311.469C145.23 313.915 137.883 317.583 121.964 317.583C106.045 317.583 99.9221 313.915 91.3503 310.246C84.003 306.578 76.6558 302.91 63.1858 301.687C64.4103 290.682 66.8594 280.9 69.3085 269.896C75.4312 271.118 80.3294 273.564 85.2276 276.009C93.7994 279.678 103.596 284.569 121.964 284.569C123.188 284.569 124.413 284.569 124.413 284.569C128.087 284.569 131.76 280.9 131.76 277.232C131.76 273.564 128.087 269.896 124.413 269.896C123.188 269.896 123.188 269.896 121.964 269.896C106.045 269.896 99.9221 266.227 91.3503 262.559C86.4521 260.114 81.5539 257.668 74.2067 256.445C101.147 181.858 174.619 128.057 259.113 128.057ZM470.959 481.431C470.959 486.322 467.285 489.991 462.387 489.991H54.614C49.7158 489.991 46.0422 486.322 46.0422 481.431V387.28C46.0422 382.389 49.7158 378.72 54.614 378.72H399.935C403.609 378.72 407.282 375.052 407.282 371.384C407.282 367.716 403.609 364.047 399.935 364.047H61.9612V324.919C61.9612 322.474 61.9612 320.028 61.9612 316.36C72.9821 317.583 79.1048 320.028 85.2276 323.697C93.7994 327.365 103.596 332.256 121.964 332.256C140.332 332.256 150.128 327.365 158.7 323.697C167.272 320.028 174.619 316.36 189.314 316.36C205.233 316.36 211.356 320.028 219.927 323.697C228.499 327.365 238.295 332.256 256.664 332.256C275.032 332.256 284.828 327.365 293.4 323.697C301.972 320.028 309.319 316.36 324.013 316.36C339.933 316.36 346.055 320.028 354.627 323.697C363.199 327.365 372.995 332.256 391.363 332.256C409.731 332.256 419.528 327.365 428.1 323.697C435.447 320.028 441.57 317.583 451.366 316.36C451.366 318.806 451.366 321.251 451.366 324.919V364.047H426.875C423.202 364.047 419.528 367.716 419.528 371.384C419.528 375.052 423.202 378.72 426.875 378.72H458.713C463.611 378.72 467.285 382.389 467.285 387.28V481.431H470.959Z" fill="#253461" stroke="#253461" stroke-width="1.2" stroke-miterlimit="10"></path></svg>