<svg xmlns="http://www.w3.org/2000/svg" width="512" height="512" viewBox="0 0 512 512" fill="none"><path d="M353.477 81.9859C363.323 83.9577 369.231 88.8873 373.169 97.7605C373.169 98.7464 373.169 99.7323 372.185 100.718H371.2C363.323 98.7464 357.415 96.7746 351.508 95.7887C345.6 94.8028 338.708 93.8168 330.831 92.8309C329.846 92.8309 328.862 91.845 328.862 90.8591C328.862 90.8591 328.862 89.8732 329.846 89.8732C335.754 81.9859 343.631 80.014 353.477 81.9859Z" fill="#1F3664"></path><path d="M411.569 354.099C375.138 346.211 351.508 341.282 338.708 338.324C326.892 335.366 297.354 326.493 250.092 310.718C208.738 296.915 178.215 290.014 137.846 290.014C136.862 290.014 135.877 289.028 135.877 288.042C135.877 288.042 135.877 288.042 135.877 287.056C145.723 259.451 148.677 217.056 161.477 192.408C177.231 162.831 192 143.113 220.554 126.352C276.677 95.7887 335.754 93.8168 397.785 121.422C423.385 132.268 438.154 174.662 440.123 199.31C441.108 209.169 440.123 224.944 437.169 244.662C434.215 267.338 426.338 301.845 414.523 350.155C414.523 354.099 413.538 355.084 411.569 354.099Z" fill="#253461" stroke="#253461"></path><path d="M427.323 128.324C483.446 148.042 511.015 196.352 511.015 254.521C511.015 278.183 506.092 315.648 495.262 365.93C494.277 367.901 492.308 369.873 490.338 369.873L429.292 360.014C427.323 360.014 426.338 358.042 427.323 357.056C441.108 309.732 449.969 266.352 453.908 224.944C456.862 191.422 448 160.859 426.338 132.268C426.338 131.282 426.338 130.296 426.338 130.296C426.338 128.324 427.323 128.324 427.323 128.324Z" fill="#253461" stroke="#253461"></path><path d="M50.2154 341.282C49.2308 341.282 49.2308 341.282 49.2308 340.296C49.2308 340.296 49.2308 339.31 50.2154 339.31L121.108 303.817C123.077 302.831 126.031 301.845 128 301.845C165.415 300.859 199.877 306.775 237.292 319.592C272.738 331.422 312.123 345.225 344.615 353.113C356.431 356.07 376.123 360.014 403.692 365.93V367.901C372.185 394.521 336.738 420.155 297.354 429.028C266.831 435.93 226.462 420.155 198.892 404.38C147.692 374.803 103.385 346.211 50.2154 341.282Z" fill="#253461" stroke="#253461"></path><path d="M99.4462 365.93C100.431 365.93 100.431 366.915 100.431 366.915C84.6769 376.775 71.8769 383.676 59.0769 388.606C41.3538 396.493 0 399.451 0 369.873C0 367.901 0.984616 364.944 2.95385 363.958C29.5385 345.225 70.8923 353.113 99.4462 365.93Z" fill="#253461" stroke="#253461"></path></svg>