<svg xmlns="http://www.w3.org/2000/svg" width="512" height="512" viewBox="0 0 512 512" fill="none"><path d="M229.302 481.092V438.089H203.777V494.53C203.777 501.249 209.151 507.968 217.211 507.968H295.13C301.847 507.968 308.565 502.593 308.565 494.53V438.089H283.039V481.092H229.302ZM281.696 393.743H307.221V440.777H281.696V393.743ZM203.777 393.743H229.302V440.777H203.777V393.743ZM448.282 412.556C445.595 416.588 441.565 419.276 436.191 419.276H293.787V393.743H410.666L331.403 284.892C328.716 280.861 327.373 275.486 330.06 271.454C332.747 267.423 336.777 264.735 340.807 264.735H383.797L305.878 155.884C303.191 151.853 303.191 146.478 304.534 142.446C307.221 138.415 311.252 135.727 316.625 135.727H332.747L270.949 38.971C266.918 33.5957 261.544 30.9081 254.827 30.9081C248.11 30.9081 242.736 33.5957 238.706 38.971L175.565 134.383H191.686C197.06 134.383 201.09 137.071 203.777 141.102C206.464 145.134 205.12 150.509 202.433 154.541L124.514 263.391H167.504C171.534 263.391 176.908 266.079 178.252 270.11C180.938 274.142 179.595 279.517 176.908 283.548L97.6455 392.399H214.524V417.932H73.4637C68.0899 417.932 64.0596 415.244 61.3728 411.213C58.6859 407.181 60.0293 401.806 62.7162 397.774L141.979 288.924H100.332C94.9586 288.924 90.9283 286.236 89.5849 282.205C86.898 278.173 86.898 272.798 90.9283 268.766L168.848 159.916H151.383C147.353 159.916 141.979 157.228 140.635 153.197C137.949 149.165 137.949 143.79 140.635 139.758L217.211 25.5327C225.272 13.4382 240.05 5.37524 254.827 5.37524C269.605 5.37524 284.383 13.4382 292.443 25.5327L369.019 141.102C371.706 145.134 371.706 150.509 369.019 154.541C366.332 158.572 362.302 161.26 358.272 161.26H342.151L420.07 270.11C422.757 274.142 422.757 279.517 421.413 283.548C418.726 287.58 414.696 290.268 410.666 290.268H367.676L446.938 399.118C449.625 403.15 450.969 408.525 448.282 412.556Z" fill="#253461" stroke="#253461" stroke-width="0.75" stroke-miterlimit="10"></path></svg>