<svg xmlns="http://www.w3.org/2000/svg" width="512" height="512" viewBox="0 0 512 512" fill="none"><path d="M198.102 304.791C194.273 287.563 185.66 273.206 173.219 262.678C172.262 261.721 171.305 261.721 170.348 262.678L130.154 311.491C130.154 312.448 130.154 312.448 130.154 313.405H131.111L195.23 307.662C197.144 308.619 198.102 306.705 198.102 304.791ZM198.102 304.791C198.102 305.748 198.102 305.748 198.102 304.791ZM211.5 155.483C210.543 155.483 209.586 156.44 209.586 157.397C209.586 157.397 209.586 157.397 209.586 158.354L217.242 184.196C217.242 185.153 218.199 186.11 219.156 185.153L322.513 163.139C324.427 163.139 326.341 160.268 325.384 158.354C321.556 132.512 367.492 155.483 370.363 124.855C372.277 99.0134 347.395 101.885 330.169 102.842C324.427 102.842 319.642 99.0134 318.685 93.2708V92.3137C317.728 87.5282 321.556 81.7855 327.298 80.8284C333.997 79.8713 343.567 78.9142 354.094 80.8284C388.546 84.6568 400.03 116.241 386.632 144.954C379.933 159.311 366.535 161.225 349.309 164.097C348.352 164.097 347.395 165.054 347.395 166.968L365.578 213.866C366.535 215.78 368.449 216.737 370.363 216.737C407.687 210.038 440.225 216.737 465.107 235.879C534.012 288.52 519.657 397.63 434.483 424.429C364.621 446.442 294.759 396.673 292.845 323.933C291.888 282.777 311.986 254.064 343.567 229.18C345.481 227.265 346.438 224.394 345.481 222.48L343.567 217.694C342.61 215.78 341.653 215.78 339.739 215.78C338.782 215.78 338.782 216.737 338.782 216.737C304.33 260.764 278.49 296.177 261.264 321.062C255.522 328.718 247.866 337.332 238.296 332.547C233.511 330.633 229.683 328.719 228.726 327.761C225.855 326.804 222.984 328.718 222.027 331.59V332.547C215.328 384.231 177.047 423.472 123.455 427.3C58.3781 434 2.87159 386.145 3.8286 320.105C4.78561 270.335 41.152 228.223 88.0454 216.737C113.885 210.995 139.724 214.823 165.563 229.18C167.477 230.137 169.391 230.137 170.348 228.223L193.316 197.595C195.23 194.724 196.187 190.895 195.23 187.067L187.574 161.225C186.617 158.354 183.746 155.483 179.918 155.483C167.477 155.483 159.821 155.483 156.95 154.525C151.208 154.525 147.38 149.74 147.38 143.997C147.38 136.34 150.251 132.512 157.907 131.555C186.617 128.684 214.371 128.684 242.124 133.469C246.909 134.426 250.737 138.255 249.78 143.04C249.78 143.04 249.78 143.04 249.78 143.997C246.909 160.268 222.027 156.44 211.5 155.483ZM224.898 206.209C223.941 206.209 223.941 207.166 223.941 208.123L248.823 295.22C248.823 296.177 249.78 296.177 250.737 296.177C250.737 296.177 251.694 296.177 251.694 295.22L333.997 185.153C333.997 184.196 333.997 184.196 333.997 183.239H333.04L224.898 206.209ZM225.855 304.791C221.07 277.992 213.414 251.193 203.844 223.437C203.844 222.48 202.887 222.48 201.93 222.48C201.93 222.48 201.93 222.48 200.973 222.48L187.574 240.665C186.617 242.579 186.617 244.493 188.531 245.45C204.801 260.764 215.328 277.992 219.156 300.005C219.156 300.962 220.113 301.92 220.113 301.92L222.984 304.791C223.941 304.791 223.941 304.791 224.898 304.791C225.855 305.748 225.855 304.791 225.855 304.791ZM380.89 237.794C378.976 237.794 377.062 239.708 378.019 241.622V242.579L416.3 325.847C419.171 331.59 416.3 337.332 411.515 340.204C411.515 340.204 410.558 340.204 410.558 341.161H409.601C403.858 343.075 396.202 340.204 394.288 334.461L357.922 251.193C356.965 249.279 355.051 248.322 353.137 249.279C353.137 249.279 352.18 249.279 352.18 250.236C320.599 275.121 309.115 306.705 317.728 343.075C324.427 371.788 344.524 394.759 372.277 402.416C423.956 417.729 471.806 391.887 484.247 340.204C491.903 307.662 476.591 271.292 448.838 252.15C428.741 238.751 405.773 233.965 380.89 237.794ZM195.23 332.547C183.746 332.547 156.95 334.461 115.799 338.29C96.6585 340.204 91.8735 322.976 103.358 309.576C117.713 292.349 133.982 273.206 150.251 252.15C152.165 250.236 151.208 247.365 149.294 246.408C149.294 246.408 148.337 246.408 148.337 245.45C117.713 233.008 89.9594 234.922 65.0772 250.236C11.4847 284.692 12.4417 361.26 66.0342 394.759C81.3464 404.33 99.5295 408.158 120.584 407.201C157.907 405.287 195.23 371.788 198.102 334.461C198.102 333.504 197.144 332.547 195.23 332.547Z" fill="#253461" stroke="#253461" stroke-width="0.75" stroke-miterlimit="10"></path></svg>