<svg xmlns="http://www.w3.org/2000/svg" width="512" height="512" viewBox="0 0 512 512" fill="none"><path d="M333.823 96.6811V76.1884H355.848C364.658 76.1884 370.532 68.8696 370.532 61.5507C370.532 52.7681 363.19 46.913 355.848 46.913H333.823V39.5942C333.823 19.1014 317.671 3 297.114 3H213.418C192.861 4.46377 176.709 20.5652 176.709 39.5942V96.6811C153.215 118.638 140 149.377 140 181.58V469.942C140 490.435 157.62 508 178.177 508H333.823C354.38 508 372 490.435 372 469.942V181.58C372 149.377 357.316 118.638 333.823 96.6811ZM206.076 39.5942C206.076 36.6667 209.013 33.7391 211.949 33.7391H297.114C300.051 33.7391 302.987 36.6667 302.987 39.5942V89.3623H206.076V39.5942ZM333.823 480.188H178.177C173.772 480.188 169.367 475.797 169.367 471.406V183.043C179.646 177.188 207.544 166.942 248.658 191.826C291.24 218.174 323.544 225.493 341.165 226.957V471.406C342.633 475.797 338.228 480.188 333.823 480.188ZM342.633 197.681C339.696 197.681 336.759 196.217 332.354 196.217C317.671 193.29 295.646 185.971 264.81 166.942C226.633 143.522 197.266 143.522 176.709 149.377C181.114 137.667 188.456 127.42 197.266 120.101H313.266C330.886 136.203 341.165 159.623 341.165 183.043V197.681H342.633ZM269.215 250.377C266.278 245.985 261.873 243.058 256 243.058C250.127 243.058 245.722 245.985 242.785 250.377L209.013 311.855C200.203 327.956 200.203 346.985 209.013 363.087C229.57 401.145 282.43 398.217 301.519 364.551C310.329 348.449 310.329 327.956 301.519 311.855L269.215 250.377ZM276.557 348.449C269.215 363.087 244.253 364.551 235.443 348.449C231.038 341.13 231.038 332.348 235.443 325.029L256 288.435L276.557 325.029C280.962 332.348 280.962 341.13 276.557 348.449Z" fill="#253461" stroke="#253461" stroke-width="0.75" stroke-miterlimit="10"></path></svg>