<svg xmlns="http://www.w3.org/2000/svg" width="512" height="512" viewBox="0 0 512 512" fill="none"><path d="M221.409 223.608C221.409 231.294 218.12 237.882 209.347 238.98C201.671 238.98 189.609 240.078 174.257 240.078C173.16 240.078 170.967 241.176 170.967 243.373L172.064 274.118C172.064 282.902 165.484 290.588 156.712 290.588H152.326C143.553 290.588 138.07 282.902 138.07 275.216V243.373C138.07 241.176 136.974 240.078 134.78 240.078C132.587 240.078 121.622 240.078 100.787 238.98C90.9178 238.98 87.6281 233.49 87.6281 223.608C87.6281 214.824 92.0144 209.333 100.787 209.333C121.622 208.235 132.587 208.235 134.78 208.235C136.974 208.235 138.07 207.137 138.07 204.941V173.098C138.07 164.314 144.65 157.725 152.326 157.725H154.519C163.291 156.627 170.967 163.216 170.967 172C170.967 173.098 170.967 173.098 170.967 174.196L169.871 204.941C169.871 207.137 170.967 208.235 173.16 208.235C188.512 208.235 200.574 208.235 208.25 209.333C218.12 209.333 221.409 214.824 221.409 223.608ZM340.935 218.118C340.935 229.098 332.162 236.784 321.197 236.784C310.231 236.784 301.459 228 301.459 218.118C301.459 207.137 310.231 198.353 321.197 198.353C332.162 198.353 340.935 207.137 340.935 218.118ZM386.991 263.137C386.991 274.118 378.218 282.902 367.253 282.902C356.287 282.902 347.514 274.118 347.514 263.137C347.514 252.157 356.287 243.373 367.253 243.373C378.218 243.373 386.991 252.157 386.991 263.137ZM386.991 175.294C386.991 186.275 378.218 195.059 367.253 195.059C356.287 195.059 347.514 186.275 347.514 175.294C347.514 164.314 356.287 155.529 367.253 155.529C378.218 155.529 386.991 164.314 386.991 175.294ZM429.757 220.314C429.757 231.294 420.984 238.98 410.019 238.98C399.053 238.98 390.28 230.196 390.28 220.314C390.28 209.333 399.053 200.549 410.019 200.549C420.984 200.549 429.757 209.333 429.757 220.314ZM508.71 343.294C503.227 296.078 494.454 246.667 481.295 195.059C472.523 157.726 457.171 123.686 431.95 98.4314C429.757 96.2353 426.467 92.9412 423.177 90.7451C418.791 87.451 414.405 84.1569 408.922 80.8628C404.536 77.5686 399.053 75.3726 393.57 73.1765C378.218 66.5882 360.673 63.2941 342.032 63.2941C313.521 63.2941 285.01 64.3922 256.499 64.3922C227.989 64.3922 199.478 64.3922 170.967 63.2941C158.905 63.2941 146.843 64.3922 135.877 67.6863C119.429 72.0784 106.27 78.6667 94.2075 87.451C89.8212 90.7451 85.435 94.0392 81.0487 98.4314C55.8277 122.588 40.4757 156.627 31.7032 193.961C19.641 245.569 9.77186 294.98 4.28902 342.196C0.999324 367.451 5.38559 390.51 15.2547 410.275C19.641 417.961 24.0272 424.549 29.5101 430.039C30.6066 431.137 32.7998 433.333 33.8963 434.431C39.3792 438.824 44.862 442.118 51.4414 444.314C66.7933 449.804 83.2418 449.804 99.6903 444.314C107.366 441.02 115.042 436.627 122.718 431.137C128.201 426.745 133.684 421.255 139.167 415.765C153.422 401.49 165.484 385.02 176.45 374.039C177.547 372.941 178.643 371.843 179.74 370.745C199.478 350.98 230.182 352.078 257.596 352.078C285.01 352.078 314.617 350.98 335.452 370.745C336.549 371.843 337.645 372.941 338.742 374.039C349.707 386.118 361.77 401.49 376.025 416.863C381.508 422.353 386.991 427.843 392.474 432.235C414.405 450.902 440.723 455.294 463.75 445.412C471.426 442.118 478.006 437.726 484.585 432.235C490.068 426.745 495.551 420.157 498.841 412.471C507.613 390.51 511.999 368.549 508.71 343.294ZM437.433 419.059C410.019 415.765 393.57 392.706 376.025 370.745C350.804 340 331.066 325.726 291.589 323.529C267.465 322.431 243.341 322.431 220.313 322.431C175.353 323.529 151.229 354.275 124.911 387.216C108.463 408.078 77.759 434.431 51.4414 409.176C28.4135 386.118 31.7032 345.49 37.186 315.843C37.186 314.745 42.6689 286.196 53.6345 228C62.4071 178.588 81.0487 119.294 128.201 98.4314C140.263 92.9412 164.388 89.6471 198.381 90.7451C218.119 90.7451 247.727 90.7451 286.107 90.7451C333.259 90.7451 361.77 91.8432 373.832 95.1373C402.343 103.922 423.177 123.686 437.433 153.333C445.109 170.902 452.785 191.765 458.268 217.02C470.33 271.922 478.006 311.451 480.199 336.706C482.392 365.255 481.295 424.549 437.433 419.059Z" fill="#253461" stroke="#253461" stroke-width="0.5" stroke-miterlimit="10"></path></svg>