<svg xmlns="http://www.w3.org/2000/svg" width="512" height="512" viewBox="0 0 512 512" fill="none"><path d="M506.91 233.016L445.546 95.3866C441.455 87.2106 434.637 80.3972 426.455 76.3092L350.091 46.3306C346.001 35.4292 340.546 25.8906 333.728 14.9892C284.637 -0.000113487 231.455 -0.000113487 181.001 13.6266C178.273 13.6266 176.91 14.9892 175.546 17.7146L161.91 44.9679L85.546 76.3092C77.3642 79.0346 70.546 85.8479 66.4551 95.3866L5.09144 233.016C3.72781 237.104 5.09144 242.555 9.18235 245.28L86.9096 283.435C91.0005 286.16 96.4551 283.435 99.1824 280.709L112.819 258.907L103.273 464.669C103.273 467.395 104.637 470.12 106.001 471.483C144.182 504.187 202.819 506.912 254.637 506.912C306.455 508.275 365.091 504.187 403.273 471.483C406 470.12 406.001 467.395 406.001 464.669L399.182 258.907L412.819 280.709C415.546 284.797 421.001 286.16 425.091 283.435L502.819 245.28C506.91 242.555 508.273 237.104 506.91 233.016ZM256.001 111.739L238.273 66.7706C235.546 62.6826 231.455 58.5946 227.364 54.5066C246.455 53.1439 265.546 53.1439 286.001 54.5066C281.91 58.5946 277.819 62.6826 275.091 66.7706L256.001 111.739ZM185.091 36.7919L217.819 70.8586L198.728 109.013L178.273 53.1439L185.091 36.7919ZM325.546 36.7919L333.728 53.1439L313.273 109.013L294.182 72.2212L325.546 36.7919ZM310.546 27.2532L301.001 38.1546C271.001 34.0666 241.001 34.0666 212.364 38.1546L200.091 27.2532C236.91 20.4399 275.091 20.4399 310.546 27.2532ZM122.364 461.944L131.91 226.203C131.91 220.752 127.819 216.664 123.728 216.664C121.001 216.664 116.91 218.027 115.546 220.752L88.2733 264.357L25.546 233.016L82.8187 102.2C84.1823 98.1119 88.2733 94.0239 92.3642 92.6612L163.273 64.0452L189.182 133.541C190.546 136.267 193.273 138.992 197.364 138.992C201.455 138.992 204.182 137.629 205.546 133.541L228.728 89.9359L247.819 136.267V487.835C204.182 489.197 153.728 485.109 122.364 461.944ZM423.728 264.357L396.455 220.752C393.728 216.664 388.273 215.301 384.182 218.027C381.455 219.389 380.091 222.115 380.091 226.203L389.637 461.944C358.273 486.472 307.819 490.56 264.182 490.56V138.992L283.273 92.6612L306.455 136.267C309.182 140.355 314.637 141.717 318.728 140.355C320.091 138.992 321.455 137.629 322.819 136.267L348.728 66.7706L419.637 95.3866C423.728 96.7492 427.819 100.837 429.182 104.925L486.455 235.741L423.728 264.357ZM286.001 149.893C280.546 149.893 275.091 155.344 275.091 160.795C275.091 166.245 280.546 171.696 286.001 171.696C291.455 171.696 296.91 166.245 296.91 160.795C295.546 153.981 291.455 149.893 286.001 149.893ZM286.001 218.027C280.546 218.027 275.091 223.477 275.091 228.928C275.091 234.379 279.182 239.829 286.001 239.829C291.455 239.829 296.91 234.379 296.91 228.928C295.546 223.477 291.455 218.027 286.001 218.027ZM286.001 287.523C280.546 287.523 275.091 292.973 275.091 298.424C275.091 303.875 279.182 309.325 286.001 309.325C291.455 309.325 296.91 303.875 296.91 298.424C295.546 291.611 291.455 287.523 286.001 287.523ZM286.001 355.656C280.546 355.656 275.091 361.107 275.091 366.557C275.091 372.008 280.546 377.459 286.001 377.459C291.455 377.459 296.91 372.008 296.91 366.557C295.546 359.744 291.455 355.656 286.001 355.656ZM286.001 423.789C280.546 423.789 275.091 429.24 275.091 434.691C275.091 440.141 279.182 445.592 286.001 445.592C291.455 445.592 296.91 440.141 296.91 434.691C295.546 429.24 291.455 423.789 286.001 423.789Z" fill="#253461" stroke="#253461" stroke-width="0.5" stroke-miterlimit="10"></path></svg>