<svg xmlns="http://www.w3.org/2000/svg" width="512" height="512" viewBox="0 0 512 512" fill="none"><g clip-path="url(#clip0_3097_510)"><path d="M510.775 47.9481C515.674 60.2159 507.1 72.4836 498.526 81.071C421.359 158.358 325.818 249.139 241.301 339.921C205.78 377.951 171.483 413.527 139.636 445.424C123.713 461.372 109.014 476.093 86.9662 479.773C57.5691 484.68 26.9471 473.639 9.79877 447.877C-6.12467 424.568 -1.22515 387.765 9.79877 362.003C18.3729 341.148 42.8705 337.467 57.5691 354.642C73.4926 374.271 34.2964 403.713 67.3682 423.342C79.617 430.702 91.8658 422.115 100.44 412.301C167.808 342.374 220.478 284.716 280.497 224.604C378.488 126.462 439.732 66.3497 461.78 44.2678C477.703 29.5465 500.976 24.6393 510.775 47.9481Z" fill="#253461" stroke="#253461"></path><path d="M407.885 401.26C394.411 374.271 404.21 341.148 431.158 327.653C456.88 314.158 489.952 325.199 503.426 352.189C516.899 379.178 507.1 412.301 480.153 425.795C453.205 439.29 421.359 428.249 407.885 401.26Z" fill="#1F3664"></path></g><defs><clipPath id="clip0_3097_510"><rect width="512" height="512" fill="white"></rect></clipPath></defs></svg>