<svg xmlns="http://www.w3.org/2000/svg" width="512" height="512" viewBox="0 0 512 512" fill="none"><g clip-path="url(#clip0_3097_540)"><path d="M368.469 281.615H143.531C142.46 281.615 141.389 282.681 141.389 283.747C141.389 305.066 141.389 334.912 141.389 372.22C141.389 399.934 122.109 401 99.6151 398.868C83.5481 396.736 76.0502 388.209 76.0502 371.154C76.0502 351.967 76.0502 274.154 76.0502 138.78C76.0502 116.396 97.4728 111.066 115.682 113.198C128.536 115.33 137.105 121.725 140.318 134.516V226.187C140.318 227.253 141.389 227.253 141.389 227.253H367.397C368.469 227.253 370.611 226.187 370.611 224.055C370.611 201.67 370.611 175.022 370.611 143.044C370.611 123.857 373.824 113.198 393.105 110C400.603 108.934 409.172 108.934 417.741 110C433.808 113.198 435.95 127.055 437.021 141.978C437.021 179.286 437.021 257.099 437.021 374.352C437.021 398.868 409.172 401 390.962 396.736C377.038 394.604 370.611 385.011 370.611 370.088C370.611 340.242 371.682 310.396 370.611 282.681C371.682 283.747 370.611 281.615 368.469 281.615ZM141.389 276.286C142.46 275.22 147.816 275.22 155.314 275.22C219.582 274.154 280.636 274.154 338.477 274.154C352.402 274.154 363.113 274.154 371.682 275.22C374.895 275.22 378.109 278.418 378.109 281.615C379.18 307.198 379.18 338.11 379.18 374.352C379.18 397.802 410.243 397.802 424.167 390.341C428.452 387.143 431.665 382.879 431.665 377.549C430.594 280.549 431.665 200.604 432.736 135.582C432.736 124.923 427.381 116.396 415.598 116.396C404.887 116.396 389.891 115.33 382.393 124.923C381.322 125.989 381.322 127.055 381.322 129.187C380.251 157.967 380.251 187.813 380.251 218.725C380.251 228.319 374.895 233.648 365.255 233.648C327.766 234.714 257.071 234.714 153.172 233.648C145.674 233.648 141.389 232.582 140.318 231.516C138.176 228.319 136.033 224.055 136.033 218.725C136.033 193.143 136.033 164.363 137.105 133.451C137.105 132.385 137.105 130.253 136.033 129.187C128.536 117.462 119.967 120.659 103.9 119.593C92.1172 119.593 85.6904 123.857 85.6904 133.451C85.6904 215.527 85.6904 293.341 85.6904 365.824C85.6904 386.077 92.1172 396.736 112.469 395.67C121.038 395.67 127.464 392.473 131.749 387.143C132.82 386.077 132.82 385.011 132.82 382.879L133.891 285.879C133.891 281.615 137.105 277.352 141.389 276.286Z" fill="#253461" stroke="#253461"></path><path d="M141.389 276.286C137.105 277.352 133.891 281.615 133.891 285.879L132.82 382.879C132.82 383.945 131.749 386.077 131.749 387.143C127.464 392.473 121.038 395.67 112.469 395.67C92.1172 396.736 85.6904 386.077 85.6904 365.824C85.6904 293.341 85.6904 215.527 85.6904 133.451C85.6904 123.857 92.1172 119.593 101.757 119.593C116.753 119.593 126.393 117.462 133.891 129.187C134.962 130.253 134.962 131.319 134.962 133.451C133.891 164.363 133.891 193.143 133.891 218.725C133.891 224.055 134.962 228.319 138.176 231.516C139.247 232.582 143.531 233.648 151.029 233.648C256 233.648 326.695 233.648 363.113 233.648C373.824 233.648 379.18 228.319 378.109 218.725C378.109 187.813 378.109 157.967 379.18 129.187C379.18 128.121 380.251 125.989 380.251 124.923C387.749 115.33 402.745 116.396 413.456 116.396C425.239 116.396 431.665 124.923 430.594 135.582C429.523 199.538 429.523 280.549 429.523 377.549C429.523 382.879 426.31 388.209 422.025 390.341C408.1 398.868 377.038 397.802 377.038 374.352C377.038 338.11 377.038 307.198 375.967 281.615C375.967 278.418 372.753 275.22 369.54 275.22C360.971 274.154 349.188 274.154 336.335 274.154C277.423 274.154 216.368 274.154 153.172 275.22C146.745 275.22 142.46 275.22 141.389 276.286Z" fill="#253461" stroke="#253461"></path><path d="M512 258.165C512 270.956 513.071 283.747 499.146 289.077C497.004 290.143 494.862 292.275 494.862 295.473C494.862 315.725 494.862 329.582 493.791 335.978C492.72 348.769 478.795 351.967 468.084 346.637C467.013 345.571 465.941 344.505 464.87 343.44C462.728 338.11 461.657 333.846 461.657 328.516C461.657 297.604 461.657 274.154 461.657 258.165C461.657 242.176 461.657 218.725 461.657 187.813C461.657 183.549 462.728 178.22 464.87 172.89C464.87 171.824 465.941 170.758 468.084 169.692C478.795 164.363 492.72 167.56 493.791 180.352C493.791 186.747 494.862 200.604 494.862 220.857C494.862 224.055 495.933 226.187 499.146 227.253C513.071 232.582 512 245.374 512 258.165Z" fill="#253461" stroke="#253461"></path><path d="M14.9958 291.209C9.64017 288.011 6.42678 285.879 4.28452 282.681C3.21339 280.549 2.14226 277.352 1.07113 275.22C0 267.758 0 259.231 0 247.505C0 234.714 6.42678 231.516 16.0669 225.121C18.2092 224.055 19.2803 221.923 19.2803 218.725V184.615C19.2803 177.154 25.7071 170.758 33.205 170.758H36.4184C43.9163 171.824 50.3431 178.22 50.3431 185.681V333.846C50.3431 341.308 43.9163 347.703 36.4184 347.703H33.205C24.636 347.703 18.2092 341.308 18.2092 332.78V295.473C18.2092 293.341 17.1381 292.275 14.9958 291.209Z" fill="#1F3664"></path></g><defs><clipPath id="clip0_3097_540"><rect width="512" height="512" fill="white"></rect></clipPath></defs></svg>