<svg xmlns="http://www.w3.org/2000/svg" width="512" height="512" viewBox="0 0 512 512" fill="none"><path d="M479.489 193.318C473.636 169.886 457.249 110.133 431.497 14.0596C430.326 11.7164 430.326 9.37311 429.156 8.20148C427.985 5.85823 425.644 3.51498 423.303 3.51498C417.45 1.17173 409.257 4.68661 408.086 10.5447C406.915 15.2312 404.574 19.9177 403.404 24.6042C395.21 43.3502 383.505 60.9246 368.288 74.9841C349.559 92.5585 326.148 101.931 300.396 104.275C293.373 104.275 286.35 104.275 279.326 104.275C272.303 104.275 266.45 103.103 260.598 101.931C250.063 99.5882 245.381 98.4166 245.381 98.4166C226.652 94.9017 205.582 92.5585 186.853 92.5585C165.784 93.7301 147.055 96.0733 129.497 103.103C122.474 105.446 115.45 108.961 109.598 112.476C100.233 118.334 90.869 127.707 86.1868 138.252C85.0162 140.595 83.8457 142.938 83.8457 146.453C83.8457 147.625 83.8457 148.796 85.0162 149.968C116.621 265.959 131.838 326.883 133.008 330.398C134.179 332.742 134.179 335.085 134.179 335.085C137.691 342.115 145.884 343.286 151.737 338.6C152.908 337.428 154.078 336.256 155.249 333.913C157.59 328.055 162.272 323.369 166.954 319.854C182.171 308.137 202.07 302.279 220.799 301.108C234.846 299.936 248.892 299.936 262.939 302.279C272.303 303.451 282.838 304.623 292.202 306.966C294.543 306.966 298.055 308.137 302.737 309.309C316.784 311.652 332.001 312.824 346.047 312.824C354.241 312.824 361.264 311.652 368.288 310.481C391.698 305.794 412.768 295.25 431.497 280.018C453.737 261.272 470.125 235.497 479.489 208.549C480.66 206.206 480.66 203.863 480.66 202.691C480.66 199.176 480.66 196.833 479.489 193.318ZM454.908 200.348C446.714 221.437 435.008 241.355 418.621 256.586C399.892 275.332 376.481 285.877 349.559 288.22C342.536 289.391 334.342 289.391 327.319 288.22C320.295 288.22 313.272 287.048 306.249 285.877C299.226 284.705 295.714 283.533 294.543 283.533C279.326 280.018 264.109 278.847 248.892 277.675C241.869 277.675 233.675 277.675 225.481 277.675C206.753 278.847 189.195 281.19 171.636 289.391C163.443 292.906 155.249 297.593 148.226 303.451L108.427 147.625C108.427 147.625 108.427 147.625 108.427 146.453C118.962 131.222 138.861 123.021 156.419 119.506C162.272 118.334 169.295 117.163 176.319 117.163C196.218 115.991 217.288 118.334 237.187 121.849C241.869 123.021 246.551 124.192 252.404 124.192C269.962 127.707 288.691 128.879 306.249 126.536C310.931 126.536 315.613 125.364 320.295 124.192C346.047 118.334 369.458 106.618 388.187 87.872C399.892 77.3273 409.257 64.4395 417.45 50.38C418.621 62.0962 432.667 110.133 454.908 200.348C456.078 199.176 456.078 199.176 454.908 200.348Z" fill="#253461" stroke="#253461"></path><path d="M454.908 200.348C446.714 221.437 435.008 241.355 418.621 256.586C399.892 275.332 376.481 285.877 349.559 288.22C342.536 289.391 334.342 289.391 327.319 288.22C320.295 288.22 313.272 287.048 306.249 285.877C299.226 284.705 295.714 283.533 294.543 283.533C279.326 280.018 264.109 278.847 248.892 277.675C241.869 277.675 233.675 277.675 225.481 277.675C206.753 278.847 189.195 281.19 171.636 289.391C163.443 292.906 155.249 297.593 148.226 303.451L108.427 147.625C108.427 147.625 108.427 147.625 108.427 146.453C118.962 131.222 138.861 123.021 156.419 119.506C162.272 118.334 169.295 117.163 176.319 117.163C196.218 115.991 217.288 118.334 237.187 121.849C241.869 123.021 246.551 124.192 252.404 124.192C269.962 127.707 288.691 128.879 306.249 126.536C310.931 126.536 315.613 125.364 320.295 124.192C346.047 118.334 369.458 106.618 388.187 87.872C399.892 77.3273 409.257 64.4395 417.45 50.38C418.621 62.0962 432.667 110.133 454.908 200.348ZM454.908 200.348C456.078 199.176 456.078 199.176 454.908 200.348ZM479.489 193.318C473.636 169.886 457.249 110.133 431.497 14.0596C430.326 11.7164 430.326 9.37311 429.156 8.20148C427.985 5.85823 425.644 3.51498 423.303 3.51498C417.45 1.17173 409.257 4.68661 408.086 10.5447C406.915 15.2312 404.574 19.9177 403.404 24.6042C395.21 43.3502 383.505 60.9246 368.288 74.9841C349.559 92.5585 326.148 101.931 300.396 104.275C293.373 104.275 286.35 104.275 279.326 104.275C272.303 104.275 266.45 103.103 260.598 101.931C250.063 99.5882 245.381 98.4166 245.381 98.4166C226.652 94.9017 205.582 92.5585 186.853 92.5585C165.784 93.7301 147.055 96.0733 129.497 103.103C122.474 105.446 115.45 108.961 109.598 112.476C100.233 118.334 90.869 127.707 86.1868 138.252C85.0162 140.595 83.8457 142.938 83.8457 146.453C83.8457 147.625 83.8457 148.796 85.0162 149.968C116.621 265.959 131.838 326.883 133.008 330.398C134.179 332.742 134.179 335.085 134.179 335.085C137.691 342.115 145.884 343.286 151.737 338.6C152.908 337.428 154.078 336.256 155.249 333.913C157.59 328.055 162.272 323.369 166.954 319.854C182.171 308.137 202.07 302.279 220.799 301.108C234.846 299.936 248.892 299.936 262.939 302.279C272.303 303.451 282.838 304.623 292.202 306.966C294.543 306.966 298.055 308.137 302.737 309.309C316.784 311.652 332.001 312.824 346.047 312.824C354.241 312.824 361.264 311.652 368.288 310.481C391.698 305.794 412.768 295.25 431.497 280.018C453.737 261.272 470.125 235.497 479.489 208.549C480.66 206.206 480.66 203.863 480.66 202.691C480.66 199.176 480.66 196.833 479.489 193.318Z" fill="#253461" stroke="#253461" stroke-width="0.5" stroke-miterlimit="10"></path><path d="M164.612 493.254C110.767 290.563 79.1619 174.572 70.9681 144.11C74.4797 140.595 75.6503 135.908 75.6503 130.05C75.6503 114.819 60.4332 105.446 46.3867 111.304C35.8518 115.991 31.1696 126.535 33.5107 137.08C34.6813 142.938 39.3634 148.796 45.2162 151.139C46.3867 151.139 47.5572 152.311 47.5572 152.311C47.5572 152.311 77.9913 268.302 140.03 500.284C142.371 507.313 148.224 510.828 155.247 508.485C162.27 507.313 165.782 500.284 164.612 493.254ZM56.9216 131.222L53.41 133.565H52.2394V132.393C52.2394 131.222 52.2394 128.879 53.41 128.879C54.5805 128.879 56.9216 128.879 56.9216 131.222Z" fill="#253461" stroke="#253461"></path><path d="M164.612 493.254C110.767 290.563 79.1619 174.572 70.9681 144.11C74.4797 140.595 75.6503 135.908 75.6503 130.05C75.6503 114.819 60.4332 105.446 46.3867 111.304C35.8518 115.991 31.1696 126.535 33.5107 137.08C34.6813 142.938 39.3634 148.796 45.2162 151.139C46.3867 151.139 47.5572 152.311 47.5572 152.311C47.5572 152.311 77.9913 268.302 140.03 500.284C142.371 507.313 148.224 510.828 155.247 508.485C162.27 507.313 165.782 500.284 164.612 493.254ZM56.9216 131.222L53.41 133.565H52.2394V132.393C52.2394 131.222 52.2394 128.879 53.41 128.879C54.5805 128.879 56.9216 128.879 56.9216 131.222Z" fill="#253461" stroke="#253461" stroke-width="0.5" stroke-miterlimit="10"></path></svg>