<svg xmlns="http://www.w3.org/2000/svg" width="512" height="512" viewBox="0 0 512 512" fill="none"><g clip-path="url(#clip0_3097_477)"><path d="M512 256C512 397.419 397.643 512 256.5 512C115.357 512 1 397.419 1 256C1 114.581 115.357 0 256.5 0C397.643 0 512 114.581 512 256ZM280.299 29.1097L313.369 96C313.575 96.4129 313.988 96.8258 314.4 97.0323L408.049 145.961C408.255 146.065 408.564 146.065 408.77 145.961L462.239 126.452C462.548 126.348 462.651 126.142 462.651 125.832L460.385 109.935C460.282 109.316 460.076 108.697 459.664 108.077C425.666 61.3161 376.523 27.5613 320.684 12.6968C320.272 12.5935 319.757 12.5935 319.345 12.8L280.299 28.8C280.299 28.9032 280.196 29.0065 280.299 29.1097ZM170.887 19.4065C109.587 41.8065 59.4147 87.1226 30.774 145.652C30.5679 145.961 30.774 146.271 30.98 146.477L35.3071 148.852C35.6161 149.058 35.9252 148.955 36.2343 148.748C52.9242 136.568 73.426 121.703 97.6367 104.258C101.036 101.781 103.303 99.4065 106.6 95.8968C119.89 82.3742 141.216 60.5935 170.681 30.5548C170.99 30.2452 171.196 29.8323 171.196 29.4194L171.093 19.6129C171.196 19.5097 171.093 19.4065 170.887 19.4065ZM174.39 33.4452C174.287 33.4452 174.081 33.5484 174.081 33.6516L105.157 103.845C104.951 104.052 104.951 104.258 105.054 104.465L133.695 169.806C133.798 170.013 134.004 170.116 134.21 170.116L239.501 168.981C239.604 168.981 239.81 168.877 239.913 168.774L309.248 98.1677C309.454 97.9613 309.454 97.7548 309.351 97.5484L276.075 30.3484C275.972 30.1419 275.766 30.0387 275.559 30.0387L174.39 33.4452ZM455.543 328.774L500.976 310.09C501.595 309.781 502.11 309.265 502.213 308.645C512.618 256.929 507.879 206.761 487.995 158.245C487.171 156.284 486.244 154.735 485.214 153.6C480.578 148.439 473.675 140.8 464.712 130.89C464.506 130.684 464.197 130.581 463.991 130.684L410.83 150.09C410.521 150.194 410.315 150.503 410.315 150.813C407.946 187.871 405.885 221.626 403.928 252.181C403.825 253.419 403.722 254.348 404.443 255.381C407.533 259.819 424.429 284.284 455.028 328.671C455.234 328.774 455.337 328.774 455.543 328.774ZM8.31472 293.781C8.41774 293.781 8.52077 293.677 8.52077 293.471C10.4782 287.277 15.5264 272.103 23.5623 247.948C23.9744 246.606 24.2835 245.677 24.2835 245.058C28.5075 202.529 31.4952 171.974 33.3496 153.497C33.3496 153.187 33.2466 152.877 32.9375 152.671L29.0226 150.503C28.8165 150.4 28.5075 150.503 28.4044 150.71C25.5198 156.8 22.8411 163.303 20.3685 170.219C6.04819 210.271 2.03024 251.355 8.21169 293.677C8.21169 293.677 8.21169 293.781 8.31472 293.781ZM134.107 174.452C133.798 174.452 133.489 174.658 133.386 174.968L85.3768 267.148C85.2738 267.355 85.2738 267.665 85.3768 267.974L136.374 365.626C136.477 365.935 136.786 366.142 137.095 366.142L243.828 365.626C244.137 365.626 244.446 365.419 244.549 365.213L295.546 271.071C295.649 270.865 295.649 270.452 295.546 270.245L239.501 173.729C239.295 173.419 239.089 173.316 238.78 173.316L134.107 174.452ZM126.483 441.187C126.69 441.187 126.896 441.084 126.896 440.877C129.059 414.142 131.12 390.813 132.871 370.89C132.974 369.548 132.871 368.516 132.459 367.794C118.242 340.542 101.243 308.026 81.4619 270.142C81.1528 269.626 80.6377 269.213 80.1226 269.006L27.7863 251.561C27.5802 251.458 27.4772 251.561 27.3742 251.768C21.3988 269.729 15.7325 286.658 10.4782 302.658C10.0661 303.794 10.0661 304.929 10.2722 306.168C12.1266 315.148 14.2901 323.51 16.7627 331.355C17.3808 333.316 17.896 334.761 18.4111 335.897C24.3865 349.626 30.4649 363.355 36.6464 377.29C37.8827 380.077 39.9431 383.794 42.8278 388.439C51.3788 402.064 60.754 414.452 70.8504 425.497C71.9837 426.839 73.426 428.697 75.0744 429.006C96.4004 434.065 113.502 438.09 126.483 441.187ZM400.322 426.013C400.528 426.013 400.734 425.806 400.837 425.703L451.628 331.974C451.731 331.768 451.731 331.458 451.628 331.252L399.395 255.587C399.189 255.381 398.982 255.277 398.673 255.277L300.285 272.413C300.079 272.413 299.873 272.619 299.77 272.723L248.67 367.174C248.567 367.381 248.567 367.69 248.67 367.897L299.77 444.077C299.976 444.284 300.182 444.387 300.491 444.387L400.322 426.013ZM225.181 490.529L237.956 506.426C238.265 506.735 238.574 506.942 238.986 506.942C248.876 507.768 259.282 507.871 270.099 507.148C325.629 503.742 374.669 484.335 417.321 449.032C417.424 448.929 417.527 448.723 417.321 448.516L401.249 430.555C401.043 430.348 400.837 430.245 400.528 430.348L300.594 448.723C299.873 448.826 299.152 449.135 298.534 449.445L225.181 489.806C225.078 490.219 225.078 490.323 225.181 490.529ZM80.3286 434.89C80.2256 434.89 80.2256 434.89 80.1226 434.994V435.097C121.023 475.561 174.39 500.748 231.774 506.426C231.877 506.426 231.98 506.323 231.98 506.219C231.98 506.219 231.98 506.116 231.98 506.013L220.957 492.387C220.442 491.665 219.72 491.148 218.896 490.735L128.853 446.452C128.544 446.245 128.132 446.142 127.72 446.039L80.3286 434.89Z" fill="#253461" stroke="#253461" stroke-miterlimit="10"></path></g><defs><clipPath id="clip0_3097_477"><rect width="512" height="512" fill="white"></rect></clipPath></defs></svg>