<svg xmlns="http://www.w3.org/2000/svg" width="512" height="512" viewBox="0 0 512 512" fill="none"><path d="M507.346 144.511L505.954 136.149C503.172 131.968 500.389 127.787 494.823 125C493.432 118.032 492.04 112.457 490.649 106.883C486.475 90.1596 479.518 74.8298 469.778 62.2873C461.429 51.1383 450.298 41.383 436.384 34.4149C428.035 30.2341 421.078 27.4468 412.73 24.6596C393.25 19.0851 373.77 17.6915 352.899 20.4788C347.333 21.8724 340.376 21.8724 334.81 24.6596C322.288 28.8405 311.156 35.8085 301.417 44.1703C290.285 55.3192 283.328 70.649 279.154 84.5851C276.371 97.1277 274.98 109.67 274.98 122.213C274.98 126.394 274.98 129.181 274.98 131.968C272.197 134.755 270.805 137.543 269.414 140.33V175.17C272.197 204.436 274.98 235.096 277.763 264.362C277.763 267.149 279.154 269.936 279.154 274.117C281.937 279.692 286.111 283.872 293.068 286.66C294.459 296.415 294.459 303.383 294.459 311.745C294.459 317.319 294.459 321.5 294.459 322.894C295.851 356.34 295.851 381.426 297.242 406.511C297.242 420.447 301.417 432.989 306.982 445.532C315.331 462.255 330.636 476.192 348.725 484.553C352.899 485.947 357.073 487.34 361.247 488.734C372.379 491.521 384.901 492.915 397.424 491.521C401.598 491.521 407.164 490.128 411.338 488.734C426.644 484.553 440.558 476.192 451.689 465.043C466.995 449.713 475.343 428.809 476.735 406.511C476.735 403.723 476.735 396.755 478.126 388.394C479.518 375.851 480.909 350.766 482.3 313.138C482.3 304.777 483.692 293.628 485.083 282.479C486.475 282.479 486.475 281.085 487.866 281.085C494.823 278.298 497.606 272.723 500.389 267.149C500.389 265.755 501.78 262.968 501.78 258.787C503.172 240.67 504.563 211.404 505.954 172.383C505.954 164.021 507.346 157.053 507.346 150.085C507.346 148.692 507.346 148.692 507.346 147.298C507.346 145.904 507.346 145.904 507.346 144.511ZM489.257 159.84C489.257 162.628 489.257 166.809 487.866 172.383C486.475 210.011 485.083 239.277 483.692 261.575C483.692 262.968 483.692 264.362 482.3 264.362C480.909 264.362 479.518 265.755 478.126 265.755C475.343 265.755 472.561 267.149 469.778 267.149C468.386 285.266 466.995 296.415 465.603 314.532C464.212 327.075 464.212 342.404 462.821 360.521C462.821 371.67 461.429 385.606 460.038 399.543C460.038 407.904 458.646 414.872 457.255 421.84C453.081 434.383 446.124 446.926 437.775 455.287C429.427 463.649 418.295 469.223 407.164 472.011C405.773 472.011 405.773 472.011 405.773 472.011C402.99 472.011 398.816 473.404 396.033 473.404C386.293 473.404 376.553 473.404 368.204 470.617C365.422 469.223 361.247 469.223 358.465 466.436C350.116 462.255 343.159 456.681 336.202 451.106C325.071 438.564 318.113 423.234 318.113 406.511C316.722 381.426 316.722 357.734 315.331 334.043C315.331 321.5 313.939 311.745 313.939 304.777C313.939 301.989 313.939 299.202 313.939 297.809C313.939 289.447 312.548 281.085 311.156 271.33C305.591 271.33 302.808 269.936 302.808 269.936C301.417 269.936 300.025 269.936 300.025 268.543C298.634 268.543 297.242 267.149 297.242 267.149C297.242 265.755 295.851 264.362 295.851 261.575C293.068 235.096 290.285 198.862 286.111 151.479C286.111 148.692 286.111 147.298 287.502 145.904C287.502 145.904 287.502 145.904 288.894 144.511C291.677 143.117 291.677 138.936 293.068 136.149C293.068 134.755 293.068 133.362 293.068 131.968C293.068 127.787 293.068 125 293.068 122.213C293.068 115.245 293.068 108.277 294.459 101.309C295.851 90.1596 298.634 80.4043 302.808 70.649C311.156 55.3192 323.679 44.1703 340.376 39.9894C344.55 38.5958 348.725 37.2022 354.29 37.2022C366.813 35.8086 379.336 35.8086 391.858 37.2022C402.99 38.5958 414.121 42.7766 423.861 46.9575C443.341 56.7128 457.255 70.649 465.603 90.1596C469.778 97.1277 471.169 104.096 473.952 111.064C475.343 116.638 476.735 123.606 478.126 129.181C479.518 133.362 480.909 136.149 483.692 137.543C485.083 138.936 485.083 138.936 486.475 138.936C489.257 140.33 489.257 140.33 490.649 141.723V145.904C489.257 152.872 489.257 157.053 489.257 159.84Z" fill="#253461" stroke="#253461"></path><path d="M469.778 152.872L305.591 155.66C306.982 169.596 306.982 176.564 306.982 177.957C306.982 183.532 308.374 187.713 308.374 189.106C308.374 191.894 311.156 194.681 313.939 196.075C315.331 197.468 318.113 197.468 319.505 197.468C320.896 197.468 322.288 197.468 323.679 197.468C375.161 196.075 422.47 196.074 466.995 194.681L469.778 152.872Z" fill="#253461" stroke="#253461"></path><path d="M281.937 138.936L287.502 235.096L293.068 269.936L469.778 268.543L483.692 265.755L492.04 138.936H281.937Z" fill="#253461" stroke="#253461"></path><path d="M507.346 144.511L505.954 136.149C503.172 131.968 500.389 127.787 494.823 125C493.432 118.032 492.04 112.457 490.649 106.883C486.475 90.1596 479.518 74.8298 469.778 62.2873C461.429 51.1383 450.298 41.383 436.384 34.4149C428.035 30.2341 421.078 27.4468 412.73 24.6596C393.25 19.0851 373.77 17.6915 352.899 20.4788C347.333 21.8724 340.376 21.8724 334.81 24.6596C322.288 28.8405 311.156 35.8085 301.417 44.1703C290.285 55.3192 283.328 70.649 279.154 84.5851C276.371 97.1277 274.98 109.67 274.98 122.213C274.98 126.394 274.98 129.181 274.98 131.968C272.197 134.755 270.805 137.543 269.414 140.33V175.17C272.197 204.436 274.98 235.096 277.763 264.362C277.763 267.149 279.154 269.936 279.154 274.117C281.937 279.692 286.111 283.872 293.068 286.66C294.459 296.415 294.459 303.383 294.459 311.745C294.459 317.319 294.459 321.5 294.459 322.894C295.851 356.34 295.851 381.426 297.242 406.511C297.242 420.447 301.417 432.989 306.982 445.532C315.331 462.255 330.636 476.192 348.725 484.553C352.899 485.947 357.073 487.34 361.247 488.734C372.379 491.521 384.901 492.915 397.424 491.521C401.598 491.521 407.164 490.128 411.338 488.734C426.644 484.553 440.558 476.192 451.689 465.043C466.995 449.713 475.343 428.809 476.735 406.511C476.735 403.723 476.735 396.755 478.126 388.394C479.518 375.851 480.909 350.766 482.3 313.138C482.3 304.777 483.692 293.628 485.083 282.479C486.475 282.479 486.475 281.085 487.866 281.085C494.823 278.298 497.606 272.723 500.389 267.149C500.389 265.755 501.78 262.968 501.78 258.787C503.172 240.67 504.563 211.404 505.954 172.383C505.954 164.021 507.346 157.053 507.346 150.085C507.346 148.692 507.346 148.692 507.346 147.298C507.346 145.904 507.346 145.904 507.346 144.511ZM489.257 159.84C489.257 162.628 489.257 166.809 487.866 172.383C486.475 210.011 485.083 239.277 483.692 261.575C483.692 262.968 483.692 264.362 482.3 264.362C480.909 264.362 479.518 265.755 478.126 265.755C475.343 265.755 472.561 267.149 469.778 267.149C468.386 285.266 466.995 296.415 465.603 314.532C464.212 327.075 464.212 342.404 462.821 360.521C462.821 371.67 461.429 385.606 460.038 399.543C460.038 407.904 458.646 414.872 457.255 421.84C453.081 434.383 446.124 446.926 437.775 455.287C429.427 463.649 418.295 469.223 407.164 472.011C405.773 472.011 405.773 472.011 405.773 472.011C402.99 472.011 398.816 473.404 396.033 473.404C386.293 473.404 376.553 473.404 368.204 470.617C365.422 469.223 361.247 469.223 358.465 466.436C350.116 462.255 343.159 456.681 336.202 451.106C325.071 438.564 318.113 423.234 318.113 406.511C316.722 381.426 316.722 357.734 315.331 334.043C315.331 321.5 313.939 311.745 313.939 304.777C313.939 301.989 313.939 299.202 313.939 297.809C313.939 289.447 312.548 281.085 311.156 271.33C305.591 271.33 302.808 269.936 302.808 269.936C301.417 269.936 300.025 269.936 300.025 268.543C298.634 268.543 297.242 267.149 297.242 267.149C297.242 265.755 295.851 264.362 295.851 261.575C293.068 235.096 290.285 198.862 286.111 151.479C286.111 148.692 286.111 147.298 287.502 145.904C287.502 145.904 287.502 145.904 288.894 144.511C291.677 143.117 291.677 138.936 293.068 136.149C293.068 134.755 293.068 133.362 293.068 131.968C293.068 127.787 293.068 125 293.068 122.213C293.068 115.245 293.068 108.277 294.459 101.309C295.851 90.1596 298.634 80.4043 302.808 70.649C311.156 55.3192 323.679 44.1703 340.376 39.9894C344.55 38.5958 348.725 37.2022 354.29 37.2022C366.813 35.8086 379.336 35.8086 391.858 37.2022C402.99 38.5958 414.121 42.7766 423.861 46.9575C443.341 56.7128 457.255 70.649 465.603 90.1596C469.778 97.1277 471.169 104.096 473.952 111.064C475.343 116.638 476.735 123.606 478.126 129.181C479.518 133.362 480.909 136.149 483.692 137.543C485.083 138.936 485.083 138.936 486.475 138.936C489.257 140.33 489.257 140.33 490.649 141.723V145.904C489.257 152.872 489.257 157.053 489.257 159.84Z" fill="#253461" stroke="#253461"></path><path d="M469.778 152.872L305.591 155.66C306.982 169.596 306.982 176.564 306.982 177.957C306.982 183.532 308.374 187.713 308.374 189.106C308.374 191.894 311.156 194.681 313.939 196.075C315.331 197.468 318.113 197.468 319.505 197.468C320.896 197.468 322.288 197.468 323.679 197.468C375.161 196.075 422.47 196.074 466.995 194.681L469.778 152.872Z" fill="#253461" stroke="#253461"></path><path d="M281.937 138.936L287.502 235.096L293.068 269.936L469.778 268.543L483.692 265.755L492.04 138.936H281.937Z" fill="#253461" stroke="#253461"></path><path d="M306.982 97.1277H135.838C121.924 97.1277 112.184 85.9788 112.184 73.4362V41.383C112.184 27.4468 123.316 17.6915 135.838 17.6915H308.374C322.288 17.6915 332.028 28.8405 332.028 41.383V72.0426C332.028 85.9788 320.896 97.1277 306.982 97.1277ZM137.23 70.649H305.591V44.1702H137.23V70.649Z" fill="#253461" stroke="#253461"></path><path d="M101.053 494.309C82.9645 494.309 64.8761 488.734 48.1792 478.979C12.0024 455.287 -4.69459 414.872 6.43673 374.457C10.611 357.734 18.9595 341.011 30.0908 325.681C59.3105 288.053 81.5731 260.181 98.2701 240.67C116.358 218.372 128.881 200.255 128.881 172.383C128.881 143.117 128.881 113.851 128.881 84.5852C128.881 76.2234 135.838 70.649 142.795 70.649H304.199C312.548 70.649 318.113 77.6171 318.113 84.5852C318.113 113.851 318.113 137.543 318.113 155.66C318.113 164.021 319.505 170.989 322.288 177.957L323.679 182.138C329.245 194.681 334.81 205.83 337.593 221.16C341.768 250.426 336.202 276.904 318.113 297.809C313.939 301.989 306.982 308.958 297.242 315.926C286.111 324.287 274.98 335.436 265.24 346.585C258.283 354.947 227.672 391.181 174.798 455.287C167.841 463.649 158.101 472.011 145.578 478.979C134.447 490.128 117.75 494.309 101.053 494.309ZM156.709 97.1277C156.709 122.213 156.709 147.298 156.709 172.383C156.709 210.011 140.012 232.309 119.141 257.394C102.444 276.904 80.1817 304.777 50.962 342.404C41.2221 354.947 34.265 367.489 31.4822 381.426C24.5251 410.692 37.0478 439.958 63.4847 456.681C85.7473 472.011 113.576 472.011 137.23 458.075C146.97 452.5 153.927 446.926 159.492 439.957C212.366 375.851 242.977 338.223 249.934 331.255C261.066 318.713 273.588 306.17 286.111 296.415C295.851 288.053 300.025 283.872 302.808 282.479C316.722 267.149 320.896 247.638 316.722 226.734C315.331 215.585 311.156 207.223 305.591 194.681L304.199 190.5C300.025 180.745 297.242 169.596 297.242 157.053C297.242 140.33 297.242 120.819 297.242 97.1277H156.709Z" fill="#253461" stroke="#253461"></path><path d="M311.156 99.9149H138.621C124.707 99.9149 114.967 88.766 114.967 76.2234V45.5639C114.967 31.6277 126.098 21.8724 138.621 21.8724H311.156C325.071 21.8724 334.81 33.0213 334.81 45.5639V76.2234C334.81 90.1596 323.679 99.9149 311.156 99.9149ZM141.404 74.8298H309.765V46.9575H141.404V74.8298Z" fill="#253461" stroke="#253461"></path><path d="M105.227 498.489C87.1388 498.489 69.0504 492.915 52.3534 483.16C16.1766 459.468 -0.520346 419.053 10.611 378.638C14.7852 361.915 23.1337 345.192 34.265 329.862C63.4847 292.234 85.7473 264.362 102.444 244.851C120.533 222.553 133.055 204.436 133.055 176.564C133.055 147.298 133.055 118.032 133.055 88.766C133.055 80.4043 140.012 74.8298 146.97 74.8298H308.374C316.722 74.8298 322.288 81.7979 322.288 88.766C322.288 118.032 322.288 141.723 322.288 159.84C322.288 168.202 323.679 175.17 326.462 182.138L327.853 186.319C333.419 198.862 338.985 210.011 341.768 225.34C345.942 254.606 340.376 281.085 322.288 301.989C318.114 306.17 311.156 313.138 301.417 320.106C290.285 328.468 279.154 339.617 269.414 350.766C262.457 359.128 231.846 395.362 178.972 459.468C172.015 467.83 162.275 476.192 149.752 483.16C138.621 494.309 121.924 498.489 105.227 498.489ZM159.492 99.9149C159.492 125 159.492 150.085 159.492 175.17C159.492 212.798 142.795 235.096 121.924 260.181C105.227 279.692 82.9645 307.564 53.7448 345.192C45.3963 357.734 38.4393 371.67 35.6564 384.213C28.6994 414.872 39.8307 444.138 66.2675 460.862C88.5302 476.192 116.358 476.192 140.012 462.255C149.752 456.681 156.709 451.106 162.275 444.138C215.149 380.032 245.76 342.404 252.717 335.436C263.848 322.894 276.371 310.351 288.894 300.596C298.634 292.234 302.808 288.053 305.591 286.66C319.505 271.33 323.679 251.819 319.505 230.915C318.114 219.766 313.939 211.404 308.374 198.862L306.982 194.681C302.808 184.926 300.025 173.777 300.025 161.234C300.025 144.511 300.025 125 300.025 101.309H159.492V99.9149Z" fill="#253461" stroke="#253461"></path><path d="M230.454 334.043L293.068 269.936L297.242 239.277L284.72 186.319L281.937 152.872L274.98 131.968L240.194 125L226.28 166.809L229.063 268.543L230.454 334.043Z" fill="white"></path></svg>