<svg xmlns="http://www.w3.org/2000/svg" width="512" height="512" viewBox="0 0 512 512" fill="none"><path d="M414.454 163.178C414.454 250.679 343.545 321.626 256.09 321.626C168.636 321.626 97.7266 250.679 97.7266 163.178C97.7266 75.6767 168.636 4.72979 256.09 4.72979C343.545 4.72979 414.454 75.6767 414.454 163.178ZM396.727 163.178C396.727 85.1363 332.908 21.2841 254.908 21.2841C176.908 21.2841 113.09 85.1363 113.09 163.178C113.09 241.219 176.908 305.072 254.908 305.072C334.09 303.889 396.727 241.219 396.727 163.178ZM160.363 134.799C167.454 134.799 173.363 140.711 173.363 147.806C173.363 154.901 167.454 160.813 160.363 160.813C153.272 160.813 147.363 154.901 147.363 147.806C147.363 139.529 153.272 134.799 160.363 134.799ZM143.817 167.908C150.908 167.908 156.817 173.82 156.817 180.915C156.817 188.009 150.908 193.921 143.817 193.921C136.727 193.921 130.817 188.009 130.817 180.915C130.817 173.82 136.727 167.908 143.817 167.908ZM178.09 167.908C185.181 167.908 191.09 173.82 191.09 180.915C191.09 188.009 185.181 193.921 178.09 193.921C170.999 193.921 165.09 188.009 165.09 180.915C165.09 173.82 170.999 167.908 178.09 167.908ZM214.727 176.185C221.817 176.185 227.727 182.097 227.727 189.192C227.727 196.286 221.817 202.199 214.727 202.199C207.636 202.199 201.727 196.286 201.727 189.192C201.727 182.097 207.636 176.185 214.727 176.185ZM155.636 202.199C162.727 202.199 168.636 208.111 168.636 215.206C168.636 222.3 162.727 228.212 155.636 228.212C148.545 228.212 142.636 222.3 142.636 215.206C143.817 206.928 148.545 202.199 155.636 202.199ZM193.454 204.563C200.545 204.563 206.454 210.476 206.454 217.57C206.454 224.665 200.545 230.577 193.454 230.577C186.363 230.577 180.454 224.665 180.454 217.57C180.454 210.476 186.363 204.563 193.454 204.563ZM231.272 210.476C238.363 210.476 244.272 216.388 244.272 223.483C244.272 230.577 238.363 236.49 231.272 236.49C224.181 236.49 218.272 230.577 218.272 223.483C219.454 216.388 224.181 210.476 231.272 210.476ZM180.454 235.307C187.545 235.307 193.454 241.219 193.454 248.314C193.454 255.409 187.545 261.321 180.454 261.321C173.363 261.321 167.454 255.409 167.454 248.314C168.636 241.219 174.545 235.307 180.454 235.307ZM214.727 241.219C221.817 241.219 227.727 247.132 227.727 254.226C227.727 261.321 221.817 267.233 214.727 267.233C207.636 267.233 201.727 261.321 201.727 254.226C201.727 247.132 207.636 241.219 214.727 241.219ZM256.09 338.18C280.908 338.18 305.727 332.268 330.545 321.626C331.727 321.626 331.727 321.626 331.727 322.808C335.272 331.085 335.272 342.91 325.817 347.64C322.272 350.005 317.545 351.187 313.999 354.734C274.999 387.843 266.727 455.243 267.908 502.54C267.908 504.905 266.727 506.088 264.363 507.27C261.999 507.27 258.454 508.453 256.09 508.453C252.545 508.453 250.181 507.27 246.636 506.088C244.272 504.905 243.09 503.723 243.09 501.358C243.09 454.06 234.817 385.478 196.999 353.552C193.454 351.187 189.908 348.822 185.181 346.457C176.908 341.727 175.727 329.903 179.272 321.626C179.272 320.443 180.454 320.443 180.454 320.443C205.272 332.268 230.09 338.18 256.09 338.18Z" fill="#253461" stroke="#253461" stroke-width="0.75" stroke-miterlimit="10" stroke-linecap="round"></path></svg>