<svg xmlns="http://www.w3.org/2000/svg" width="512" height="512" viewBox="0 0 512 512" fill="none"><g clip-path="url(#clip0_3097_536)"><path d="M380.234 386.226C390.262 396.243 390.262 412.939 380.234 422.957L298.897 504.209C288.869 514.226 272.156 514.226 262.128 504.209C252.1 494.191 252.1 477.496 262.128 467.478L325.638 404.035L300.011 378.435C315.61 370.643 328.98 358.4 336.78 341.704L380.234 386.226Z" fill="#253461" stroke="#253461"></path><path d="M448.201 291.617L303.354 146.922C294.44 138.017 281.07 131.339 266.585 131.339H174.106L151.822 107.965C140.68 114.643 127.309 117.983 112.825 117.983C102.797 117.983 92.7688 115.757 83.8552 112.417L146.251 174.748C150.708 179.2 157.393 182.539 164.078 182.539H215.331V310.539C215.331 318.33 217.56 326.122 220.902 332.8L84.9694 468.591C74.9415 478.609 74.9415 495.304 84.9694 505.322C94.9972 515.339 111.71 515.339 121.738 505.322L265.471 361.739C266.585 361.739 266.585 361.739 267.699 361.739C295.554 361.739 318.953 338.365 318.953 310.539V233.739L412.546 327.235C422.574 337.252 439.287 337.252 449.315 327.235C458.228 317.217 458.228 301.635 448.201 291.617Z" fill="#253461" stroke="#253461"></path><path d="M313.382 63.4435C313.382 37.8435 292.212 16.6957 266.585 16.6957C240.958 16.6957 219.788 37.8435 219.788 63.4435C219.788 89.0435 240.958 110.191 266.585 110.191C292.212 110.191 313.382 89.0435 313.382 63.4435Z" fill="#1F3664"></path><path d="M158.507 51.2C158.507 23.3739 136.223 0 107.253 0C79.3983 0 56 23.3739 56 51.2C56 79.0261 79.3983 102.4 107.253 102.4C136.223 102.4 158.507 80.1391 158.507 51.2Z" fill="#253461" stroke="#253461"></path></g><defs><clipPath id="clip0_3097_536"><rect width="512" height="512" fill="white"></rect></clipPath></defs></svg>