<svg xmlns="http://www.w3.org/2000/svg" width="512" height="512" viewBox="0 0 512 512" fill="none"><path d="M288.42 115.591C289.792 118.334 288.42 121.078 287.048 122.449L273.332 133.423L278.818 149.882C280.19 152.626 278.818 155.369 276.075 156.741C274.703 158.112 273.332 158.112 271.96 158.112C270.588 158.112 269.217 158.112 267.845 156.741L254.129 147.139L240.412 156.741C237.669 158.112 234.925 158.112 233.554 156.741C232.182 152.626 230.81 149.882 232.182 148.511L237.669 132.051L223.952 122.449C222.58 121.078 221.209 118.334 222.58 115.591C223.952 112.848 225.324 111.476 228.067 111.476H244.527L250.014 96.3878C251.385 93.6445 252.757 92.2728 255.5 92.2728C258.244 92.2728 260.987 93.6445 260.987 96.3878L266.474 111.476H282.933C285.677 111.476 288.42 112.848 288.42 115.591ZM315.853 171.829C317.225 173.201 317.225 173.201 318.596 173.201L335.056 175.944L337.8 192.404C337.8 195.147 340.543 196.519 343.286 197.89C343.286 197.89 343.286 197.89 344.658 197.89C347.401 197.89 348.773 196.519 350.145 195.147L358.375 180.059L374.834 182.802C377.578 182.802 380.321 181.431 381.693 180.059C383.064 177.316 383.064 174.572 380.321 173.201L369.348 162.227L376.206 147.139C377.578 144.396 376.206 141.652 374.834 140.281C373.463 138.909 370.719 137.538 367.976 138.909L354.26 145.767L341.915 133.423C340.543 132.051 337.8 130.679 335.056 132.051C332.313 133.423 330.941 136.166 332.313 138.909L335.056 155.369L319.968 163.599C317.225 164.971 315.853 167.714 317.225 170.457C314.482 170.457 314.482 170.457 315.853 171.829ZM193.776 162.227L178.687 153.997L181.431 137.538C181.431 134.794 180.059 132.051 178.687 130.679C175.944 129.308 173.201 129.308 171.829 132.051L159.484 144.396L145.768 137.538C143.024 136.166 140.281 136.166 138.909 138.909C137.538 140.281 136.166 143.024 137.538 145.767L144.396 160.856L133.423 171.829C132.051 173.201 130.679 175.944 132.051 178.687C133.423 181.431 136.166 182.802 138.909 181.431L155.369 178.687L163.599 193.775C164.971 195.147 166.342 196.519 169.086 196.519C169.086 196.519 169.086 196.519 170.457 196.519C173.201 196.519 174.572 193.775 175.944 191.032L178.687 174.572L195.147 171.829C196.519 171.829 197.891 170.457 197.891 170.457C199.262 169.086 199.262 167.714 199.262 167.714C197.891 166.342 196.519 163.599 193.776 162.227ZM287.048 389.923L273.332 380.321L278.818 363.861C280.19 361.118 278.818 358.374 276.075 357.003C274.703 355.631 270.588 355.631 269.217 357.003L255.5 366.604L241.784 357.003C239.04 355.631 236.297 355.631 234.925 357.003C233.554 358.374 232.182 361.118 232.182 363.861L237.669 380.321L223.952 391.294C221.209 392.666 221.209 395.409 222.58 398.152C223.952 400.896 225.324 402.267 228.067 402.267H244.527L250.014 417.356C251.385 420.099 252.757 421.471 255.5 421.471C258.244 421.471 260.987 420.099 260.987 417.356L266.474 402.267H282.933C285.677 402.267 288.42 400.896 288.42 398.152C289.792 394.037 288.42 391.294 287.048 389.923ZM195.147 339.171C193.776 337.8 193.776 337.8 192.404 337.8L175.944 335.056L173.201 318.596C173.201 315.853 170.457 314.481 167.714 313.11C164.971 313.11 162.228 314.481 160.856 315.853L152.626 330.941L137.538 328.198C134.794 328.198 132.051 329.57 130.679 330.941C129.308 333.685 130.679 336.428 132.051 337.8L143.024 348.773L136.166 363.861C134.794 366.604 136.166 369.348 137.538 370.719C138.909 372.091 141.653 373.463 144.396 372.091L158.113 365.233L170.457 377.578C171.829 378.949 173.201 378.949 174.572 378.949C175.944 378.949 175.944 378.949 177.316 378.949C180.059 377.578 181.431 374.834 180.059 372.091L177.316 355.631L192.404 347.401C195.147 346.029 196.519 343.286 195.147 340.543C197.891 341.915 196.519 340.543 195.147 339.171ZM373.463 328.198L357.003 330.941L348.773 315.853C347.401 313.11 344.658 311.738 341.915 313.11C339.171 313.11 337.8 315.853 336.428 318.596L333.685 335.056L317.225 337.8C315.853 337.8 314.482 339.171 314.482 339.171C314.482 340.543 314.482 341.914 313.11 341.914C313.11 344.658 314.482 347.401 315.853 348.773L330.941 357.003L328.198 373.463C328.198 376.206 329.57 378.949 330.941 380.321C332.313 380.321 332.313 380.321 333.685 380.321C335.056 380.321 336.428 380.321 337.8 378.949L350.145 366.604L363.861 373.463C366.605 374.834 369.348 374.834 370.72 372.091C372.091 370.719 373.463 367.976 372.091 365.233L365.233 350.144L376.206 339.171C377.578 337.8 378.949 335.056 377.578 332.313C378.949 329.57 376.206 328.198 373.463 328.198ZM417.356 251.385L402.268 245.898V229.439C402.268 226.695 400.896 223.952 398.153 223.952C395.409 222.58 392.666 223.952 391.294 225.324L381.693 237.669L366.605 232.182C363.861 230.81 361.118 232.182 359.746 233.554C358.375 234.925 358.375 239.04 359.746 240.412L367.976 254.128L355.631 267.845C354.26 269.217 354.26 273.332 355.631 274.703C357.003 276.075 357.003 276.075 358.375 277.447C359.746 277.447 361.118 277.447 362.49 277.447L378.949 273.332L387.179 287.048C388.551 288.42 389.923 289.792 392.666 289.792H394.038C396.781 289.792 398.153 287.048 398.153 284.305L399.524 267.845L415.984 263.73C418.728 262.358 420.099 260.987 420.099 258.243C420.099 255.5 418.728 252.757 417.356 251.385ZM149.883 277.447C151.254 277.447 152.626 277.447 153.998 277.447C155.369 277.447 156.741 276.075 156.741 274.703C158.113 271.96 158.113 269.217 156.741 267.845L145.768 255.5L153.998 241.783C155.369 239.04 155.369 236.297 153.998 234.925C152.626 233.554 149.883 232.182 147.139 233.554L132.051 239.04L122.449 226.695C121.078 225.324 118.334 223.952 115.591 225.324C110.105 225.324 108.733 226.695 108.733 229.439V245.898L95.0163 251.385C92.273 252.757 90.9013 254.128 90.9013 256.872C90.9013 259.615 92.273 262.358 95.0163 262.358L111.476 266.473L112.848 282.933C112.848 285.677 114.22 288.42 116.963 288.42H118.334C119.706 288.42 122.449 287.048 123.821 285.677L132.051 271.96L149.883 277.447ZM510.629 255.5C510.629 324.083 484.567 387.179 436.559 435.187C388.551 483.195 324.083 509.257 256.872 509.257C188.289 509.257 125.193 483.195 77.1847 435.187C29.1767 387.179 3.11523 322.711 3.11523 255.5C3.11523 186.917 29.1767 123.821 77.1847 75.8129C125.193 27.8049 189.661 1.74341 256.872 1.74341C325.455 1.74341 388.551 27.8049 436.559 75.8129C484.567 123.821 510.629 186.917 510.629 255.5ZM479.08 255.5C479.08 132.051 378.949 31.9199 255.5 31.9199C132.051 31.9199 31.92 132.051 31.92 255.5C31.92 378.949 132.051 479.08 255.5 479.08C378.949 479.08 479.08 378.949 479.08 255.5Z" fill="#253461" stroke="#253461" stroke-width="0.25" stroke-miterlimit="10"></path></svg>