<svg xmlns="http://www.w3.org/2000/svg" width="512" height="512" viewBox="0 0 512 512" fill="none"><path d="M255.677 36.5608L135.973 142.515L133.715 143.642H377.639L376.509 142.515L255.677 36.5608ZM255.677 36.5608C264.711 36.5608 272.616 29.7978 272.616 20.7804C272.616 11.763 265.84 5 255.677 5C246.643 5 238.738 11.763 238.738 20.7804C238.738 29.7978 246.643 36.5608 255.677 36.5608ZM402.483 151.532V156.041H110V151.532L117.905 144.769H395.707L402.483 151.532ZM110 144.769V407.4C110 415.29 123.551 415.29 123.551 407.4V379.221L145.008 392.747V435.579C145.008 443.47 158.559 443.47 158.559 435.579V401.764L180.015 415.29V458.123C180.015 466.013 193.567 466.013 193.567 458.123V424.308L215.023 437.834V480.666C215.023 488.556 228.574 488.556 228.574 480.666V446.851L246.643 459.25C247.772 460.377 250.03 461.504 252.289 461.504V502.082C252.289 509.973 265.84 509.973 265.84 502.082V461.504C268.099 461.504 269.228 460.377 270.357 459.25L288.426 446.851V480.666C288.426 488.556 301.977 488.556 301.977 480.666V437.834L323.433 424.308V458.123C323.433 466.013 336.985 466.013 336.985 458.123V415.29L358.441 401.764V435.579C358.441 443.47 371.992 443.47 371.992 435.579V392.747L393.449 379.221V407.4C393.449 415.29 407 415.29 407 407.4V144.769H110ZM390.061 361.186C390.061 363.44 388.932 364.568 387.802 365.695L261.323 447.978C259.065 449.105 255.677 449.105 253.418 447.978L125.81 366.822C124.681 365.695 123.551 363.44 123.551 362.313V156.041H390.061V361.186ZM395.707 142.515L270.357 33.1793L256.806 20.7804L243.255 32.0521L117.905 142.515L115.646 144.769L110 149.278V154.914H402.483V149.278L395.707 142.515Z" fill="#253461" stroke="#253461" stroke-miterlimit="10"></path></svg>