<svg xmlns="http://www.w3.org/2000/svg" width="512" height="512" viewBox="0 0 512 512" fill="none"><path d="M313.937 37.9716C382.599 72.3023 447.299 133.041 471.066 208.305L472.387 209.625C472.387 209.625 472.387 209.625 473.707 208.305C482.95 172.654 482.95 137.003 476.348 103.992C471.066 77.584 453.901 47.2145 424.852 40.6124C389.201 32.6899 352.229 31.3695 313.937 36.6512C313.937 35.3308 313.937 35.3308 313.937 37.9716ZM313.937 37.9716C313.937 36.6512 313.937 36.6512 313.937 37.9716ZM401.084 6.28168C506.717 14.2042 518.601 119.837 502.756 201.703C488.232 273.005 455.221 335.065 406.366 389.202C331.103 471.067 225.469 513.32 115.875 509.359C32.6891 506.718 10.2421 449.941 6.28082 377.318C0.999162 295.452 24.7666 220.189 74.9423 150.207C154.167 41.9328 270.363 -4.28163 401.084 6.28168ZM162.09 415.61C183.216 431.455 234.712 464.465 262.441 453.902C336.384 427.494 407.687 361.473 436.736 292.811C451.26 259.801 453.901 233.393 439.376 199.062C420.891 155.488 386.56 121.158 348.268 92.1086C316.578 67.0207 269.043 40.6124 229.431 57.7778C159.449 88.1473 106.632 137.003 69.6607 205.664C49.8545 241.315 59.0973 290.171 78.9035 324.501C101.351 358.832 127.759 389.202 162.09 415.61ZM204.343 472.388C150.206 444.659 103.991 406.367 67.0198 354.871C55.1361 339.026 47.2136 323.181 43.2524 307.336C41.932 303.375 40.6116 299.413 39.2912 295.452C39.2912 295.452 39.2912 295.452 37.9707 295.452C30.0483 339.026 30.0483 379.959 37.9707 419.571C49.8545 473.708 88.1464 480.31 140.963 480.31C163.41 480.31 183.216 477.669 203.022 473.708C204.343 475.028 204.343 473.708 204.343 472.388ZM269.043 201.703C271.684 204.344 274.325 204.344 276.966 201.703L295.451 183.217C296.772 181.897 296.772 177.935 295.451 176.615L273.004 154.168C267.723 148.886 267.723 140.964 273.004 137.003L275.645 134.362C282.247 129.08 291.49 130.401 296.772 135.682L316.578 156.809C317.898 158.129 320.539 158.129 321.86 156.809L344.307 134.362C349.588 129.08 358.831 129.08 364.113 134.362L365.433 135.682C370.715 140.964 370.715 148.886 365.433 154.168L342.986 175.295C341.666 176.615 341.666 179.256 342.986 180.576L360.152 197.742C365.433 203.023 365.433 212.266 360.152 217.548L357.511 221.509C352.229 226.791 345.627 226.791 340.345 221.509L323.18 204.344C320.539 201.703 316.578 201.703 313.937 204.344L296.772 221.509C294.131 224.15 294.131 226.791 296.772 229.432L312.617 245.277C317.898 250.558 317.898 259.801 312.617 265.083L311.296 266.403C306.015 271.685 296.772 271.685 291.49 266.403L274.325 249.238C271.684 246.597 269.043 246.597 266.402 249.238L247.916 267.724C246.596 269.044 246.596 271.685 247.916 273.005L273.004 298.093C275.645 308.656 271.684 313.938 262.441 315.258C247.916 317.899 236.033 306.016 228.11 295.452C225.469 292.811 221.508 291.491 217.547 294.132L200.382 312.618C199.061 313.938 199.061 317.899 200.382 319.22C200.382 319.22 201.702 319.22 201.702 320.54C201.702 320.54 206.984 325.822 216.227 335.065C233.392 352.23 214.906 373.357 197.741 358.832C189.818 352.23 183.216 345.628 179.255 340.346C177.935 339.026 175.294 339.026 173.973 340.346C166.051 349.589 158.128 357.512 151.526 362.793C146.245 366.755 140.963 366.755 137.002 364.114C117.196 349.589 143.604 328.463 155.488 320.54C156.808 319.22 156.808 317.899 156.808 316.579C147.565 308.656 142.283 302.054 138.322 298.093C134.361 292.811 133.04 284.889 137.002 280.928C148.885 263.762 167.371 284.889 176.614 295.452C177.935 298.093 181.896 298.093 184.537 295.452L204.343 275.646C205.663 274.326 205.663 271.685 204.343 269.044L181.896 246.597C176.614 241.315 176.614 232.072 181.896 225.47L183.216 224.15C188.498 218.868 196.42 218.868 201.702 224.15L224.149 246.597C226.79 249.238 229.431 249.238 232.072 246.597L249.237 229.432C251.878 226.791 251.878 224.15 249.237 221.509L225.469 200.382C220.188 195.101 220.188 187.178 225.469 181.897L228.11 179.256C234.712 175.295 242.635 175.295 247.916 180.576L269.043 201.703Z" fill="#253461" stroke="#253461" stroke-width="0.5" stroke-miterlimit="10"></path></svg>