<svg xmlns="http://www.w3.org/2000/svg" width="512" height="512" viewBox="0 0 512 512" fill="none"><g clip-path="url(#clip0_3097_501)"><path d="M363.851 91.4286C340.92 76.5714 334.04 45.7143 348.946 22.8571C363.851 -5.72205e-06 394.809 -5.71429 418.887 9.14285C441.818 24 448.697 54.8571 433.792 77.7143C418.887 100.571 387.929 106.286 363.851 91.4286Z" fill="#253461" stroke="#253461"></path><path d="M260.66 134.857C260.66 133.714 260.66 133.714 260.66 132.571C230.849 126.857 212.504 122.286 205.624 121.143C195.305 118.857 187.279 121.143 181.546 125.714C167.787 136 147.149 155.429 119.631 181.714C109.312 190.857 98.9929 192 89.8203 184C72.6217 169.143 84.0875 150.857 97.8463 139.429C100.139 137.143 123.071 116.571 168.934 77.7143C171.227 75.4286 175.813 73.1428 182.693 72C184.986 72 187.279 72 189.572 72C236.582 78.8571 273.272 85.7143 299.643 93.7143C311.109 97.1429 321.428 105.143 331.747 118.857C352.385 146.286 373.024 177.143 397.102 201.143C400.541 204.571 406.274 206.857 412.007 205.714C424.619 204.571 440.671 203.429 459.017 202.286C473.922 201.143 487.681 198.857 496.853 213.714C503.733 224 501.44 234.286 493.414 243.429C491.121 245.714 485.388 248 475.069 249.143C469.336 250.286 440.671 252.571 390.222 258.286C379.903 259.429 370.731 254.857 363.851 245.714C356.972 236.571 344.359 220.571 326.014 197.714C324.868 196.571 323.721 196.571 322.574 197.714L272.125 266.286C270.979 268.571 270.979 270.857 273.272 273.143C293.91 292.571 321.428 315.429 355.825 340.571C377.61 356.571 352.385 385.143 344.359 402.286C328.307 435.429 314.548 465.143 301.936 492.571C296.203 506.286 287.031 518.857 269.832 513.143C248.047 506.286 249.194 484.571 257.22 467.429C280.151 418.286 295.057 386.286 301.936 372.571C303.083 371.429 303.083 369.143 301.936 368C298.496 363.429 295.057 358.857 289.324 355.429C275.565 344 243.461 316.571 194.158 275.429C181.546 265.143 180.4 252.571 190.719 240C217.09 198.857 241.168 165.714 260.66 134.857Z" fill="#253461" stroke="#253461"></path><path d="M190.719 307.429C201.038 315.429 211.357 328 203.331 340.571C184.986 371.429 173.52 390.857 168.934 395.429C163.201 402.286 156.322 405.714 147.149 406.857C105.872 411.429 68.0355 413.714 33.6383 416C23.3191 418.286 14.1466 410.286 13 400V397.714C13 386.286 21.026 377.143 32.4917 377.143C50.8369 376 79.5012 372.571 118.485 369.143C123.071 369.143 127.657 368 132.243 365.714C134.537 364.571 135.683 363.429 136.83 362.286C137.976 360 147.149 345.143 164.348 318.857C170.08 308.571 180.4 299.429 190.719 307.429Z" fill="#253461" stroke="#253461"></path></g><defs><clipPath id="clip0_3097_501"><rect width="512" height="512" fill="white"></rect></clipPath></defs></svg>