<svg xmlns="http://www.w3.org/2000/svg" width="512" height="512" viewBox="0 0 512 512" fill="none"><path d="M33.4467 125.315C33.4467 126.603 33.4467 126.603 33.4467 125.315ZM33.4467 125.315L147.939 238.618C147.939 238.618 147.939 238.618 149.226 238.618L243.135 145.916C243.135 145.916 243.135 145.916 243.135 144.628L128.643 32.6131C128.643 32.6131 128.643 32.6131 127.356 32.6131L33.4467 125.315ZM505.567 380.247V385.397C502.994 391.835 497.849 394.41 491.417 390.547C491.417 390.547 491.417 390.547 490.13 390.547L459.256 359.646C459.256 359.646 457.969 359.646 456.683 359.646L450.251 366.084C450.251 366.084 450.251 367.371 450.251 368.659C457.969 376.384 468.261 385.397 479.839 398.272C483.698 402.135 482.412 409.86 477.266 412.435C473.407 413.723 470.834 413.723 466.974 412.435L437.386 380.247C437.386 380.247 437.386 380.247 436.1 380.247L428.381 387.972V389.259C438.673 398.272 448.964 408.572 459.256 420.16C460.542 421.448 460.542 422.735 461.829 424.023C463.115 434.323 451.537 439.473 445.105 431.748C445.105 431.748 445.105 431.748 443.819 430.461C437.386 425.31 433.527 421.448 429.668 416.298C425.809 411.147 420.663 407.285 415.517 402.135C415.517 402.135 415.517 402.135 414.231 402.135L406.512 409.86C406.512 409.86 406.512 409.86 406.512 411.148C416.804 421.448 427.095 431.748 437.386 442.048C439.959 444.623 439.959 451.061 437.386 453.636C433.527 457.499 429.668 458.786 424.522 454.924L393.648 424.023H392.361L385.929 430.461V431.748C391.075 436.898 400.08 445.911 411.658 457.499C415.517 461.361 418.09 463.936 418.09 463.936C420.663 470.374 416.803 476.812 409.085 476.812C406.512 476.812 402.653 474.237 401.366 472.949C391.075 462.649 382.07 453.636 371.778 444.623C371.778 444.623 371.778 444.623 370.492 444.623L362.773 452.349C362.773 452.349 362.773 452.349 362.773 453.636C373.065 463.936 383.356 472.949 392.361 483.249C398.793 490.974 393.648 501.275 383.356 498.7C382.07 498.7 379.497 497.412 376.924 494.837C349.909 467.799 333.185 451.061 325.467 444.623C324.18 443.336 322.894 442.048 322.894 442.048C307.457 426.598 284.301 404.71 255.999 376.384C255.999 376.384 254.713 376.384 253.427 376.384C210.974 418.873 169.809 458.786 129.929 498.7C124.783 503.85 119.638 505.137 114.492 501.275C114.492 501.275 114.492 501.275 113.206 499.987C109.346 494.837 110.633 490.974 114.492 485.824C118.351 481.962 127.356 472.949 144.08 456.211L136.361 448.486C124.783 458.786 115.778 467.799 109.346 475.524C110.633 478.099 108.06 479.387 106.773 479.387C102.914 480.674 97.7683 480.674 95.1955 475.524C91.3362 469.086 95.1955 463.936 100.341 460.074C108.06 452.349 117.065 443.336 127.356 434.323C127.356 434.323 127.356 434.323 127.356 433.036L119.638 425.31C119.638 425.31 119.638 425.31 118.351 425.31C108.06 435.611 100.341 442.048 96.4819 447.198C92.6226 451.061 87.4769 458.786 79.7583 457.499C73.3261 456.211 70.7532 449.773 72.0397 444.623C72.0397 443.336 74.6125 440.761 77.1854 438.186C90.0497 425.31 99.0548 416.298 104.2 411.148L96.4819 403.422C96.4819 403.422 96.4819 403.422 95.1955 403.422C86.1904 411.147 77.1854 420.16 66.894 431.748C64.3211 434.323 63.0347 435.611 61.7482 435.611C54.0296 436.898 47.5975 431.748 50.1703 424.023C50.1703 421.448 52.7432 418.873 55.3161 416.298C57.8889 413.723 66.894 404.71 82.3311 389.259V387.972L75.899 381.534H74.6125C64.3211 391.835 54.0296 400.847 45.0246 411.148C39.8789 417.585 29.5874 415.01 28.301 405.997C28.301 402.135 30.8739 398.272 33.4467 395.697C42.4517 386.684 51.4568 377.672 61.7482 368.659C61.7482 368.659 61.7482 368.659 61.7482 367.371L54.0296 359.646C54.0296 359.646 54.0296 359.646 52.7432 359.646C42.4517 369.946 32.1603 380.247 23.1553 389.259C16.7231 395.697 7.71807 391.835 6.43164 384.109V381.534C7.71807 378.959 7.71807 376.384 10.2909 375.097C52.7432 332.608 93.909 291.407 135.075 251.494V250.206C73.3261 188.404 33.4467 149.779 15.4367 131.753C10.2909 130.466 9.00451 126.603 10.2909 124.028C10.2909 122.74 12.8638 118.878 18.0095 115.015C65.6075 67.3765 100.341 33.9007 120.924 13.3002C123.497 10.7251 124.783 10.7251 127.356 10.7251C219.979 10.7251 306.17 10.7251 385.929 10.7251H387.216C389.788 12.0126 391.075 14.5877 393.648 15.8752C410.371 32.6131 445.105 68.664 497.849 121.453C502.994 126.603 500.422 133.041 495.276 138.191C459.256 174.242 420.663 212.868 378.211 254.069V255.356C421.949 299.132 461.829 337.758 496.562 372.522C501.708 375.097 504.281 377.672 505.567 380.247ZM360.201 28.7505H153.085L257.286 131.753L360.201 28.7505ZM384.643 32.6131L66.894 348.058L160.803 442.048L478.552 129.178L384.643 32.6131ZM366.633 266.944L271.437 359.646V360.934L349.909 438.186H351.195L445.105 345.483V344.196L366.633 266.944Z" fill="#253461" stroke="#253461" stroke-miterlimit="10"></path></svg>