<svg xmlns="http://www.w3.org/2000/svg" width="512" height="512" viewBox="0 0 512 512" fill="none"><path d="M86.9184 196.197C74.6956 200.275 63.8309 211.148 58.3985 222.021C57.0404 226.099 54.3242 232.894 51.608 245.127C33.9529 323.958 24.4462 364.732 24.4462 367.451C21.7301 381.042 23.0881 393.275 31.2367 404.148C40.7433 416.38 54.3242 424.535 70.6213 424.535C74.6956 424.535 81.486 424.535 86.9184 424.535V196.197ZM86.9184 196.197C88.2765 196.197 88.2765 196.197 86.9184 196.197ZM509.284 375.606V381.042C507.926 417.739 478.048 446.282 441.38 446.282C374.833 446.282 251.247 446.282 71.9794 446.282C35.311 446.282 5.43298 419.099 2.7168 381.042V375.606C2.7168 370.169 4.07489 366.092 4.07489 363.373C10.8653 330.754 21.7301 285.901 33.9529 230.176C42.1014 193.479 73.3375 170.373 110.006 171.732C110.006 171.732 111.364 171.732 111.364 170.373C120.871 139.113 145.316 114.648 175.194 102.416C175.194 102.416 175.194 102.416 175.194 101.056C173.836 96.9789 172.478 90.1831 172.478 86.1056C172.478 80.669 177.91 77.9507 183.343 76.5916C188.775 75.2324 195.566 72.5141 202.356 71.1549C210.505 69.7958 215.937 68.4366 217.295 68.4366C243.099 64.3592 267.544 64.3592 293.348 67.0775C298.78 67.0775 302.855 68.4366 305.571 68.4366C311.003 69.7958 316.436 69.7958 320.51 72.5141C323.226 75.2324 325.942 76.5916 330.017 77.9507C332.733 79.3099 335.449 79.3099 336.807 80.669C340.881 84.7465 340.881 88.824 339.523 94.2606C339.523 94.2606 338.165 96.9789 338.165 101.056C338.165 101.056 338.165 101.056 338.165 102.416C347.672 106.493 355.82 110.57 362.611 117.366C366.685 120.085 369.401 124.162 373.475 126.88C377.55 129.599 381.624 136.394 384.34 139.113C392.489 148.627 397.921 159.5 401.995 171.732C401.995 171.732 401.995 171.732 403.353 171.732C440.022 170.373 471.258 193.479 479.406 228.817C480.765 236.972 491.629 281.824 509.284 363.373C507.926 367.451 509.284 371.528 509.284 375.606ZM256.68 107.852C271.619 107.852 285.2 109.211 298.78 111.93C304.213 113.289 308.287 114.648 312.361 114.648C312.361 114.648 312.361 114.648 313.719 114.648L319.152 95.6197C298.78 90.1831 279.767 87.4648 258.038 87.4648C236.308 87.4648 217.295 90.1831 196.924 95.6197L202.356 114.648C202.356 114.648 202.356 114.648 203.714 114.648C207.788 113.289 211.863 111.93 217.295 111.93C228.16 109.211 241.741 107.852 256.68 107.852ZM256.68 171.732C331.375 171.732 372.117 171.732 378.908 171.732C370.759 149.986 353.104 133.676 332.733 124.162C332.733 124.162 332.733 124.162 331.375 124.162C330.017 128.239 330.017 130.958 328.658 135.035C325.942 140.472 321.868 141.831 315.078 139.113C305.571 136.394 296.064 133.676 287.916 132.317C277.051 130.958 266.186 129.599 256.68 129.599C245.815 129.599 236.308 130.958 225.444 132.317C217.295 133.676 207.788 136.394 198.282 139.113C192.849 140.472 187.417 139.113 184.701 135.035C183.343 132.317 181.985 128.239 181.985 124.162C160.255 133.676 141.242 149.986 133.093 171.732C141.242 171.732 181.985 171.732 256.68 171.732ZM130.377 193.479H108.648V424.535H129.019V193.479H130.377ZM361.253 193.479H150.749V424.535H361.253V193.479ZM403.353 193.479H382.982V424.535H403.353V193.479ZM425.083 196.197V423.176C431.873 423.176 437.306 423.176 441.38 423.176C457.677 423.176 471.258 415.021 479.406 401.43C486.197 390.556 488.913 378.324 486.197 364.732C486.197 362.014 476.69 321.239 459.035 242.408C456.319 231.535 454.961 223.38 452.245 219.303C448.17 211.148 437.306 200.275 425.083 196.197ZM330.017 277.747C336.807 277.747 340.881 283.183 340.881 288.62V338.908C340.881 363.373 321.868 382.401 297.422 382.401H215.937C191.491 382.401 172.478 363.373 172.478 338.908V288.62C172.478 281.824 177.91 277.747 183.343 277.747H330.017ZM319.152 298.134H194.208V338.908C194.208 351.141 203.714 360.655 215.937 360.655H297.422C309.645 360.655 319.152 351.141 319.152 338.908V298.134Z" fill="#253461" stroke="#253461" stroke-width="0.75" stroke-miterlimit="10"></path></svg>