<svg xmlns="http://www.w3.org/2000/svg" width="512" height="512" viewBox="0 0 512 512" fill="none"><path d="M256.132 125.985C184.213 125.985 126.174 184.109 126.174 254.868C126.174 325.628 184.213 385.016 256.132 385.016C328.05 385.016 386.09 326.892 386.09 254.868C386.09 182.845 326.788 125.985 256.132 125.985ZM256.132 362.271C196.83 362.271 148.885 314.256 148.885 254.868C148.885 195.481 196.83 147.465 256.132 147.465C315.433 147.465 363.378 195.481 363.378 254.868C362.117 314.256 314.171 362.271 256.132 362.271ZM497.122 239.706L474.411 228.333C445.391 214.434 432.774 179.054 446.653 149.992C446.653 148.729 447.914 148.729 447.914 147.465L460.532 124.721C465.578 115.876 461.793 105.768 454.223 101.977C450.438 100.713 446.652 99.4497 442.867 100.713L417.633 105.768C386.09 112.085 355.808 90.6048 349.499 59.0156C349.499 57.752 349.499 56.4885 349.499 56.4885L345.714 31.2172C344.453 22.3722 335.62 14.7908 326.788 16.0544C323.003 16.0544 319.218 18.5815 316.695 21.1086L299.03 40.0621C287.675 51.4342 272.534 59.0156 256.132 57.752C239.729 57.752 224.588 51.4342 213.233 40.0621L195.569 21.1086C189.26 14.7908 177.904 13.5272 171.596 19.8451C169.072 22.3722 166.549 26.1629 166.549 29.9536L162.764 55.2249C158.978 86.8141 128.697 109.558 97.1538 105.768C95.892 105.768 94.6303 105.768 94.6303 105.768L69.3958 100.713C60.5637 99.4497 51.7316 105.768 49.2081 114.613C47.9464 118.403 49.2081 122.194 50.4698 125.985L63.0871 148.729C70.6575 162.628 71.9192 179.054 66.8723 194.217C63.0871 209.38 51.7316 222.016 37.8525 229.597L15.1414 240.969C6.30933 244.76 2.52415 254.868 7.57106 263.713C8.83279 267.504 12.618 270.031 15.1414 271.295L37.8525 281.403C51.7316 288.985 63.0871 301.62 68.134 316.783C73.1809 331.946 71.9192 348.372 64.3488 362.271L51.7316 385.016C46.6846 393.861 50.4698 403.969 58.0402 407.76C61.8254 409.023 65.6106 410.287 69.3958 409.023L94.6303 403.969C126.174 397.651 156.455 419.132 162.764 450.721C162.764 451.985 162.764 453.248 162.764 453.248L166.549 478.52C167.811 484.837 171.596 491.155 177.904 492.419C179.166 492.419 181.69 493.682 182.951 493.682C187.998 493.682 191.783 491.155 195.569 488.628L213.233 469.675C235.944 445.667 272.534 445.667 296.507 467.147C297.769 468.411 297.769 468.411 299.03 469.675L316.695 488.628C323.003 494.946 334.359 496.209 340.667 489.892C343.191 487.365 345.714 483.574 345.714 479.783L349.499 454.512C353.285 422.923 383.566 400.178 415.109 403.969C416.371 403.969 417.633 403.969 417.633 403.969L442.867 409.023C451.699 410.287 460.532 405.233 463.055 395.124C464.317 391.333 463.055 387.543 461.793 383.752L449.176 361.008C434.035 333.209 444.129 296.566 473.149 281.403C474.411 281.403 474.411 280.14 475.672 280.14L498.383 268.768C507.215 264.977 511.001 254.868 505.954 246.023C503.43 244.76 499.645 242.233 497.122 239.706ZM463.055 259.923C421.418 280.14 403.754 329.419 423.941 371.116C425.203 372.38 425.203 373.644 426.465 374.907L431.512 383.752L421.418 382.488C375.996 373.644 333.097 403.969 324.265 449.458C324.265 450.721 324.265 451.985 323.003 453.248L321.741 463.357L315.433 454.512C283.89 421.659 230.897 420.396 198.092 451.985C196.83 453.248 195.569 454.512 195.569 454.512L189.26 462.093L187.998 451.985C181.69 406.496 140.053 374.907 94.6303 379.961C93.3686 379.961 92.1069 379.961 90.8451 381.225L80.7513 382.488L85.7982 373.644C97.1538 353.426 98.4155 329.419 92.1069 307.938C84.5365 286.457 69.3958 268.768 49.2081 258.659L40.376 254.868L47.9464 251.078C68.134 240.969 84.5365 223.279 90.8451 201.799C98.4155 180.318 95.892 156.31 84.5365 136.093L80.7513 128.512L90.8451 129.775C113.556 133.566 136.267 128.512 155.193 115.876C174.119 101.977 185.475 81.7598 189.26 59.0156L187.998 48.9071L194.307 56.4885C209.448 72.9148 232.159 83.0234 254.87 83.0234C277.581 83.0234 299.03 74.1784 315.433 56.4885L323.003 48.9071L324.265 59.0156C326.788 81.7598 339.406 101.977 358.332 115.876C377.257 129.775 399.969 134.83 422.68 129.775L432.773 128.512L427.727 137.357C406.277 177.791 420.156 228.333 460.532 249.814C461.793 251.078 463.055 251.078 464.317 252.341L473.149 256.132L463.055 259.923Z" fill="#253461" stroke="#253461" stroke-width="0.75" stroke-miterlimit="10"></path></svg>