<svg xmlns="http://www.w3.org/2000/svg" width="512" height="512" viewBox="0 0 512 512" fill="none"><g clip-path="url(#clip0_3097_750)"><path d="M513 256.5C513 217.467 503.241 178.435 486.513 142.19C486.513 140.796 485.119 140.796 485.119 139.402C476.755 122.674 465.603 107.34 454.451 93.3994C453.057 92.0054 453.057 90.6114 451.663 90.6114C359.657 -18.1223 197.951 -30.6685 90.6109 61.3369C-18.1228 153.342 -30.669 315.049 61.3364 422.389C153.342 529.728 315.048 543.668 422.388 451.663C451.663 426.571 475.361 394.508 490.695 359.658C490.695 358.264 492.089 358.264 492.089 356.87C506.029 324.807 513 291.35 513 256.5ZM460.027 250.924C457.239 242.56 447.48 236.984 437.722 239.772C434.934 241.166 433.54 242.56 430.752 243.954L407.054 267.652L373.597 245.348L359.657 189.587L366.627 174.253L404.266 186.799C408.448 188.193 412.63 188.193 416.812 185.405L448.875 168.677L460.027 167.283C476.755 207.709 482.331 250.924 475.361 294.139L460.027 250.924ZM341.535 51.5788C362.445 59.9429 380.567 71.0951 397.296 86.4293H351.293L340.141 65.519V51.5788H341.535ZM213.285 37.6386L231.407 75.2771L199.345 86.4293C195.163 87.8233 190.98 90.6114 189.586 94.7934L175.646 121.28L115.703 136.614C105.945 139.402 100.369 147.766 103.157 157.524V158.918L117.097 200.739L104.551 213.285L58.5484 156.13C89.2169 94.7934 146.372 51.5788 213.285 37.6386ZM256.499 478.149C133.826 478.149 34.85 379.174 34.85 256.5C34.85 235.59 37.6381 213.285 44.6082 192.375L90.6109 249.53C93.3989 253.712 97.581 255.106 103.157 256.5C103.157 256.5 103.157 256.5 104.551 256.5C108.733 256.5 112.915 255.106 117.097 250.924L151.948 216.073C156.13 211.891 157.524 204.921 156.13 197.951L144.978 164.495L195.163 151.948C199.345 150.554 203.527 147.766 206.315 143.584L220.255 115.704L264.864 100.37C273.228 97.5815 278.804 87.8233 276.016 78.0652C276.016 76.6712 276.016 76.6712 274.622 75.2771L252.317 32.0625C255.105 32.0625 256.499 32.0625 259.288 32.0625C276.016 32.0625 294.138 33.4565 310.866 37.6386V65.519C310.866 68.307 310.866 71.0951 312.26 72.4891L328.989 107.34C331.777 112.916 337.353 117.098 344.323 117.098H433.54C437.722 122.674 441.904 128.25 446.086 133.826H443.298C441.904 133.826 440.51 135.22 439.116 135.22L411.236 149.16L366.627 133.826C358.263 131.038 349.899 135.22 345.717 142.19L328.989 177.041C327.595 181.223 326.201 185.405 327.595 188.193L344.323 256.5C345.717 260.682 348.505 264.864 351.293 266.258L402.872 301.109C409.842 305.291 418.206 305.291 423.782 298.321L437.722 282.986L458.633 345.717C420.994 427.965 342.929 478.149 256.499 478.149Z" fill="#253461" stroke="#253461"></path><path d="M330.383 291.351L281.592 274.622L232.801 241.166C230.013 239.772 227.225 238.378 223.043 238.378H171.464C167.282 238.378 163.1 239.772 158.918 243.954L124.067 278.804C118.491 284.38 117.097 291.351 121.279 298.321L135.22 326.201L119.885 370.81C117.097 377.78 119.885 386.144 125.461 390.326L193.769 441.905C199.345 446.087 206.315 446.087 213.285 443.299L298.32 391.72C301.108 390.326 303.896 387.538 305.29 384.75L340.141 316.443C344.323 308.079 341.535 298.321 333.171 294.139C331.777 291.351 330.383 291.351 330.383 291.351ZM277.41 363.84L206.315 407.054L157.524 369.416L170.07 330.383C171.464 326.201 171.464 322.019 168.676 317.837L157.524 294.139L178.434 273.228H217.467L264.864 303.897C266.258 305.291 267.652 305.291 269.046 305.291L301.108 316.443L277.41 363.84Z" fill="#253461" stroke="#253461"></path><path d="M513 256.5C513 217.467 503.241 178.435 486.513 142.19C486.513 140.796 485.119 140.796 485.119 139.402C476.755 122.674 465.603 107.34 454.451 93.3994C453.057 92.0054 453.057 90.6114 451.663 90.6114C359.657 -18.1223 197.951 -30.6685 90.6109 61.3369C-18.1228 153.342 -30.669 315.049 61.3364 422.389C153.342 529.728 315.048 543.668 422.388 451.663C451.663 426.571 475.361 394.508 490.695 359.658C490.695 358.264 492.089 358.264 492.089 356.87C506.029 324.807 513 291.35 513 256.5ZM460.027 250.924C457.239 242.56 447.48 236.984 437.722 239.772C434.934 241.166 433.54 242.56 430.752 243.954L407.054 267.652L373.597 245.348L359.657 189.587L366.627 174.253L404.266 186.799C408.448 188.193 412.63 188.193 416.812 185.405L448.875 168.677L460.027 167.283C476.755 207.709 482.331 250.924 475.361 294.139L460.027 250.924ZM341.535 51.5788C362.445 59.9429 380.567 71.0951 397.296 86.4293H351.293L340.141 65.519V51.5788H341.535ZM213.285 37.6386L231.407 75.2771L199.345 86.4293C195.163 87.8233 190.98 90.6114 189.586 94.7934L175.646 121.28L115.703 136.614C105.945 139.402 100.369 147.766 103.157 157.524V158.918L117.097 200.739L104.551 213.285L58.5484 156.13C89.2169 94.7934 146.372 51.5788 213.285 37.6386ZM256.499 478.149C133.826 478.149 34.85 379.174 34.85 256.5C34.85 235.59 37.6381 213.285 44.6082 192.375L90.6109 249.53C93.3989 253.712 97.581 255.106 103.157 256.5C103.157 256.5 103.157 256.5 104.551 256.5C108.733 256.5 112.915 255.106 117.097 250.924L151.948 216.073C156.13 211.891 157.524 204.921 156.13 197.951L144.978 164.495L195.163 151.948C199.345 150.554 203.527 147.766 206.315 143.584L220.255 115.704L264.864 100.37C273.228 97.5815 278.804 87.8233 276.016 78.0652C276.016 76.6712 276.016 76.6712 274.622 75.2771L252.317 32.0625C255.105 32.0625 256.499 32.0625 259.288 32.0625C276.016 32.0625 294.138 33.4565 310.866 37.6386V65.519C310.866 68.307 310.866 71.0951 312.26 72.4891L328.989 107.34C331.777 112.916 337.353 117.098 344.323 117.098H433.54C437.722 122.674 441.904 128.25 446.086 133.826H443.298C441.904 133.826 440.51 135.22 439.116 135.22L411.236 149.16L366.627 133.826C358.263 131.038 349.899 135.22 345.717 142.19L328.989 177.041C327.595 181.223 326.201 185.405 327.595 188.193L344.323 256.5C345.717 260.682 348.505 264.864 351.293 266.258L402.872 301.109C409.842 305.291 418.206 305.291 423.782 298.321L437.722 282.986L458.633 345.717C420.994 427.965 342.929 478.149 256.499 478.149Z" fill="#253461" stroke="#253461"></path><path d="M330.383 291.351L281.592 274.622L232.801 241.166C230.013 239.772 227.225 238.378 223.043 238.378H171.464C167.282 238.378 163.1 239.772 158.918 243.954L124.067 278.804C118.491 284.38 117.097 291.351 121.279 298.321L135.22 326.201L119.885 370.81C117.097 377.78 119.885 386.144 125.461 390.326L193.769 441.905C199.345 446.087 206.315 446.087 213.285 443.299L298.32 391.72C301.108 390.326 303.896 387.538 305.29 384.75L340.141 316.443C344.323 308.079 341.535 298.321 333.171 294.139C331.777 291.351 330.383 291.351 330.383 291.351ZM277.41 363.84L206.315 407.054L157.524 369.416L170.07 330.383C171.464 326.201 171.464 322.019 168.676 317.837L157.524 294.139L178.434 273.228H217.467L264.864 303.897C266.258 305.291 267.652 305.291 269.046 305.291L301.108 316.443L277.41 363.84Z" fill="#253461" stroke="#253461"></path></g><defs><clipPath id="clip0_3097_750"><rect width="512" height="512" fill="white"></rect></clipPath></defs></svg>