<svg xmlns="http://www.w3.org/2000/svg" width="512" height="512" viewBox="0 0 512 512" fill="none"><path d="M476.248 47.5332C476.248 46.1751 476.248 46.1751 476.248 47.5332ZM476.248 47.5332L394.926 28.5199V119.512H466.761L476.248 47.5332ZM256.678 54.3236C260.744 54.3236 264.81 54.3236 268.876 52.9655C285.141 46.1751 293.273 35.3104 294.628 19.0133C293.273 13.5809 294.628 12.2228 294.628 10.8647C297.339 8.14856 300.05 6.79047 304.116 6.79047C335.289 6.79047 361.042 6.79047 385.438 6.79047H386.794C449.141 21.7295 483.025 29.878 485.736 29.878C492.513 31.2361 496.579 33.9523 495.223 40.7427C493.868 55.6817 489.802 84.2016 484.38 127.66C483.025 134.451 480.314 138.525 473.537 138.525C453.207 138.525 427.455 138.525 394.926 138.525C394.926 230.875 394.926 281.125 394.926 290.631C394.926 294.706 393.57 298.78 390.86 300.138C390.86 300.138 390.86 300.138 390.86 301.496C396.281 304.212 394.926 309.645 394.926 315.077C394.926 315.077 394.926 323.225 394.926 336.806C394.926 339.523 394.926 340.881 394.926 343.597C405.769 389.772 417.967 438.663 431.521 491.629C432.876 495.703 432.876 498.419 431.521 499.777C428.81 505.21 426.099 505.21 420.678 505.21C374.595 505.21 324.446 505.21 271.587 505.21C266.165 505.21 263.455 502.493 262.099 497.061C259.389 490.271 258.033 486.196 256.678 484.838C256.678 486.196 253.967 490.271 251.256 497.061C248.546 502.493 247.19 505.21 241.769 505.21C188.909 505.21 138.761 505.21 92.6779 505.21C87.2564 505.21 83.1903 503.851 81.8349 499.777C80.4795 498.419 81.8349 495.703 81.8349 491.629C95.3886 438.663 106.232 388.414 118.43 343.597C118.43 342.239 118.43 339.523 118.43 336.806C118.43 323.225 118.43 315.077 118.43 315.077C118.43 309.645 118.43 304.212 122.496 301.496C122.496 301.496 122.496 301.496 122.496 300.138C119.785 297.422 118.43 294.706 118.43 290.631C118.43 282.483 118.43 232.233 118.43 138.525C87.2564 138.525 60.149 138.525 39.8184 138.525C33.0415 138.525 30.3308 135.809 28.9754 127.66C22.1985 84.2016 19.4878 55.6817 16.7771 40.7427C15.4217 33.9523 20.8432 31.2361 26.2647 29.878C28.9754 29.878 62.8597 21.7295 125.207 6.79047H126.562C149.604 6.79047 176.711 6.79047 207.885 6.79047C211.951 6.79047 214.661 6.79047 217.372 10.8647C218.727 12.2228 218.727 13.5809 218.727 17.6552C220.083 33.9523 228.215 46.1751 244.48 51.6074C247.19 52.9655 251.256 54.3236 256.678 54.3236ZM256.678 282.483C259.389 282.483 262.099 282.483 264.81 282.483C277.008 282.483 314.959 282.483 375.951 282.483V25.8037H310.893C305.471 52.9655 283.785 71.9788 256.678 73.3369C229.57 71.9788 207.885 52.9655 202.463 25.8037C202.463 25.8037 202.463 25.8037 201.108 25.8037H136.05V282.483C197.042 282.483 234.992 282.483 247.19 282.483C249.901 282.483 252.612 282.483 256.678 282.483ZM45.2399 119.512H117.075V28.5199L35.7523 47.5332L45.2399 119.512ZM377.306 316.435H136.05V330.016H375.951V316.435H377.306ZM256.678 454.96C260.744 454.96 263.455 456.318 266.165 459.034C267.521 463.109 271.587 471.257 277.008 486.196C277.008 486.196 277.008 486.196 278.364 486.196H412.546L380.017 349.029C380.017 349.029 380.017 349.029 378.661 349.029C340.711 349.029 302.761 349.029 262.099 349.029C260.744 349.029 258.033 349.029 256.678 349.029C255.323 349.029 252.612 349.029 251.256 349.029C211.951 349.029 172.645 349.029 134.694 349.029C134.694 349.029 134.694 349.029 133.339 349.029L100.81 486.196H236.347C241.769 472.615 245.835 463.109 247.19 459.034C248.546 456.318 252.612 454.96 256.678 454.96Z" fill="#253461" stroke="#253461" stroke-miterlimit="10"></path></svg>