<svg xmlns="http://www.w3.org/2000/svg" width="512" height="512" viewBox="0 0 512 512" fill="none"><path d="M378.216 358.653C376.95 354.851 375.683 352.317 373.15 351.049C371.884 351.049 370.617 349.782 369.351 348.515C365.551 347.248 361.752 344.713 356.686 343.446C346.554 338.376 333.889 328.238 332.623 315.564C332.623 311.762 331.356 309.228 330.09 306.693C328.823 304.158 326.29 302.891 322.491 301.624C321.224 301.624 318.691 301.624 314.892 301.624H195.842C192.042 301.624 189.509 301.624 188.243 301.624C185.71 302.891 183.177 304.158 180.644 306.693C178.111 309.228 178.111 311.762 178.111 315.564C178.111 328.238 164.179 338.376 154.047 343.446C150.248 345.98 145.182 347.248 141.383 348.515C138.85 349.782 137.583 349.782 137.583 351.049C135.05 353.584 132.517 356.119 132.517 358.653C132.517 359.921 132.517 361.188 132.517 364.99C132.517 372.594 132.517 391.604 132.517 423.287C132.517 424.554 132.517 425.822 133.784 427.089C135.05 430.891 138.85 434.693 142.649 434.693C143.916 434.693 145.182 434.693 147.715 434.693H363.018C365.551 434.693 366.818 434.693 368.084 434.693C371.884 433.426 375.683 430.891 376.95 427.089C376.95 425.822 378.216 424.554 378.216 423.287V364.99C379.483 361.188 378.216 359.921 378.216 358.653ZM351.62 408.079H160.38V371.327C169.245 367.525 178.111 361.188 186.976 354.851C194.575 347.248 202.174 338.376 204.707 328.238H306.026C309.826 338.376 316.158 347.248 323.757 354.851C331.356 361.188 340.222 367.525 350.354 371.327L351.62 408.079Z" fill="#253461" stroke="#253461"></path><path d="M490.934 205.307C474.47 172.356 459.272 141.941 446.607 116.594C442.807 110.257 440.274 105.188 439.008 102.653C428.876 86.1782 416.211 70.9703 402.28 58.297V53.2277C402.28 46.8911 401.013 40.5545 399.747 34.2178C395.947 21.5446 388.348 12.6733 378.216 7.60396C370.617 3.80198 361.752 1.26733 352.887 1.26733C351.62 1.26733 350.354 1.26733 347.821 1.26733C345.288 1.26733 341.488 1.26733 340.222 3.80198C338.955 5.06931 337.689 5.06931 336.422 6.33663C332.623 8.87129 328.823 10.1386 325.024 12.6733C306.026 21.5446 284.496 26.6139 262.966 26.6139C261.699 26.6139 259.166 26.6139 256.633 26.6139C254.1 26.6139 252.834 26.6139 250.301 26.6139C228.77 26.6139 208.507 21.5446 188.243 12.6733C184.443 11.4059 180.644 8.87129 176.844 6.33663C175.578 5.06931 174.311 3.80198 173.045 3.80198C171.778 0 167.979 0 165.446 0C162.913 0 160.38 0 160.38 0C151.515 1.26733 142.649 2.53465 135.05 6.33663C123.652 12.6733 116.053 21.5446 112.253 34.2178C109.72 40.5545 109.72 46.8911 109.72 53.2277V57.0297C95.7889 70.9703 83.124 86.1782 72.9921 102.653C71.7256 105.188 69.1926 110.257 65.3931 116.594C52.7282 143.208 37.5303 172.356 21.066 205.307C17.2665 214.178 16 221.782 16 230.653C16 233.188 17.2665 236.99 17.2665 243.327C18.533 247.129 26.1319 288.95 41.3298 366.257C42.5963 371.327 43.8628 375.129 43.8628 376.396C45.1293 380.198 46.3958 382.733 48.9288 385.267C48.9288 385.267 48.9288 385.267 48.9288 386.535V419.485C48.9288 420.752 48.9288 423.287 48.9288 423.287C50.1952 428.356 53.9947 432.158 59.0607 433.426C60.3272 433.426 61.5937 433.426 64.1266 433.426H97.0554V452.436C97.0554 458.772 102.121 463.842 108.454 465.109C109.72 465.109 110.987 465.109 112.253 465.109C113.52 465.109 114.786 465.109 116.053 465.109V494.257C116.053 498.059 116.053 500.594 116.053 501.861C117.319 504.396 118.586 506.931 121.119 509.465C123.652 510.733 126.185 512 128.718 512H378.216C380.749 512 383.282 510.733 385.815 509.465C388.348 506.931 389.615 504.396 390.881 501.861C390.881 500.594 390.881 498.059 390.881 494.257V468.911C393.414 468.911 395.947 468.911 398.48 468.911C404.813 467.644 409.879 462.574 409.879 456.238C409.879 448.634 409.879 442.297 409.879 437.228H446.607C449.14 437.228 450.406 437.228 451.673 437.228C456.739 435.96 460.538 432.158 461.805 427.089C461.805 425.822 461.805 424.554 461.805 423.287C461.805 423.287 461.805 411.881 461.805 390.337C461.805 390.337 461.805 390.337 461.805 389.069C464.338 386.535 465.604 382.733 466.871 380.198C468.137 378.931 468.137 375.129 469.404 370.059C484.602 291.485 492.201 250.931 493.467 247.129C494.734 240.792 494.733 236.99 494.733 234.455C496 221.782 494.733 214.178 490.934 205.307ZM304.76 87.4455L351.62 27.8812C359.219 29.1485 366.818 31.6832 370.617 38.0198C373.15 43.0891 374.417 48.1584 374.417 53.2277C328.823 76.0396 306.026 87.4455 304.76 87.4455ZM211.04 48.1584C226.237 50.6931 241.435 51.9604 256.633 51.9604C271.831 51.9604 287.029 50.6931 302.227 46.8911C281.963 72.2376 266.765 91.2475 256.633 103.921C246.501 92.5148 231.303 73.5049 211.04 48.1584ZM140.116 38.0198C143.916 30.4158 151.515 27.8812 159.113 27.8812L205.974 87.4455C205.974 87.4455 181.91 76.0396 136.317 53.2277C136.317 48.1584 137.583 43.0891 140.116 38.0198ZM98.3219 408.079H76.7916V401.743H98.3219V408.079ZM366.818 484.119H145.182V468.911H366.818V484.119ZM435.208 408.079H413.678V401.743H435.208V408.079ZM468.137 234.455C452.939 313.03 444.074 356.119 442.807 363.723C442.807 364.99 442.807 366.257 441.541 367.525C440.274 370.059 437.741 372.594 435.208 373.861C433.942 373.861 433.942 373.861 431.409 373.861C426.343 373.861 421.277 373.861 413.678 373.861V140.673C413.678 135.604 411.145 130.535 406.079 128C403.546 126.733 399.747 126.733 395.947 126.733C390.881 128 387.082 131.802 385.815 136.871C385.815 138.139 385.815 139.406 385.815 140.673C385.815 230.653 385.815 321.901 385.815 416.95C385.815 418.218 385.815 419.485 385.815 419.485C385.815 420.752 385.815 422.02 385.815 423.287V438.495C306.026 438.495 262.966 438.495 255.367 438.495C249.034 438.495 204.707 438.495 124.918 438.495V422.02C124.918 420.752 124.918 419.485 124.918 418.218C124.918 323.168 124.918 231.921 124.918 141.941C124.918 140.673 124.918 138.139 124.918 138.139C123.652 133.069 119.852 129.267 114.786 128C112.253 126.733 108.454 128 104.654 129.267C99.5884 131.802 97.0554 135.604 97.0554 141.941V375.129H80.591C79.3245 375.129 78.058 375.129 76.7916 375.129C74.2586 373.861 71.7256 372.594 70.4591 368.792C70.4591 367.525 69.1926 366.257 69.1926 364.99C67.9261 357.386 59.0607 314.297 43.8628 235.723C43.8628 233.188 42.5963 230.653 42.5963 230.653C42.5963 228.119 42.5963 226.851 43.8628 225.584C43.8628 224.317 45.1293 221.782 46.3958 217.98C62.8602 185.03 78.058 155.881 90.723 130.535C93.2559 125.465 94.5224 121.663 95.7889 120.396C97.0554 116.594 99.5884 114.059 102.121 110.257C109.72 97.5841 118.586 88.7129 126.185 79.8416L204.707 117.861V201.505C198.375 205.307 194.575 212.911 193.309 220.515C192.042 236.99 205.974 249.663 222.438 248.396C228.77 247.129 233.836 244.594 237.636 240.792C247.768 229.386 245.235 211.644 232.57 202.772V131.802C237.636 134.337 242.702 136.871 246.501 139.406C249.034 140.673 251.567 141.941 255.367 141.941C257.9 141.941 260.433 141.941 264.232 139.406C269.298 136.871 274.364 134.337 278.164 131.802V202.772C265.499 211.644 262.966 229.386 273.098 240.792C276.897 245.861 281.963 248.396 288.296 248.396C304.76 250.931 318.691 236.99 317.425 220.515C316.158 212.911 312.359 206.574 306.026 201.505V116.594L384.549 78.5742C393.414 87.4455 402.28 97.5841 408.612 107.723C411.145 111.525 412.412 114.059 414.945 117.861C416.211 119.129 417.478 122.931 420.011 128C432.675 153.347 446.607 182.495 464.338 215.446C465.604 219.248 466.871 221.782 466.871 223.049C466.871 224.317 468.137 226.851 468.137 228.119C469.404 229.386 468.137 231.921 468.137 234.455Z" fill="#253461" stroke="#253461"></path><path d="M378.216 358.653C376.95 354.851 375.683 352.317 373.15 351.049C371.884 351.049 370.617 349.782 369.351 348.515C365.551 347.248 361.752 344.713 356.686 343.446C346.554 338.376 333.889 328.238 332.623 315.564C332.623 311.762 331.356 309.228 330.09 306.693C328.823 304.158 326.29 302.891 322.491 301.624C321.224 301.624 318.691 301.624 314.892 301.624H195.842C192.042 301.624 189.509 301.624 188.243 301.624C185.71 302.891 183.177 304.158 180.644 306.693C178.111 309.228 178.111 311.762 178.111 315.564C178.111 328.238 164.179 338.376 154.047 343.446C150.248 345.98 145.182 347.248 141.383 348.515C138.85 349.782 137.583 349.782 137.583 351.049C135.05 353.584 132.517 356.119 132.517 358.653C132.517 359.921 132.517 361.188 132.517 364.99C132.517 372.594 132.517 391.604 132.517 423.287C132.517 424.554 132.517 425.822 133.784 427.089C135.05 430.891 138.85 434.693 142.649 434.693C143.916 434.693 145.182 434.693 147.715 434.693H363.018C365.551 434.693 366.818 434.693 368.084 434.693C371.884 433.426 375.683 430.891 376.95 427.089C376.95 425.822 378.216 424.554 378.216 423.287V364.99C379.483 361.188 378.216 359.921 378.216 358.653ZM351.62 408.079H160.38V371.327C169.245 367.525 178.111 361.188 186.976 354.851C194.575 347.248 202.174 338.376 204.707 328.238H306.026C309.826 338.376 316.158 347.248 323.757 354.851C331.356 361.188 340.222 367.525 350.354 371.327L351.62 408.079Z" fill="#253461" stroke="#253461"></path><path d="M378.216 358.653C376.95 354.851 375.683 352.317 373.15 351.049C371.884 351.049 370.617 349.782 369.351 348.515C365.551 347.248 361.752 344.713 356.686 343.446C346.554 338.376 333.889 328.238 332.623 315.564C332.623 311.762 331.356 309.228 330.09 306.693C328.823 304.158 326.29 302.891 322.491 301.624C321.224 301.624 318.691 301.624 314.892 301.624H195.842C192.042 301.624 189.509 301.624 188.243 301.624C185.71 302.891 183.177 304.158 180.644 306.693C178.111 309.228 178.111 311.762 178.111 315.564C178.111 328.238 164.179 338.376 154.047 343.446C150.248 345.98 145.182 347.248 141.383 348.515C138.85 349.782 137.583 349.782 137.583 351.049C135.05 353.584 132.517 356.119 132.517 358.653C132.517 359.921 132.517 361.188 132.517 364.99C132.517 372.594 132.517 391.604 132.517 423.287C132.517 424.554 132.517 425.822 133.784 427.089C135.05 430.891 138.85 434.693 142.649 434.693C143.916 434.693 145.182 434.693 147.715 434.693H363.018C365.551 434.693 366.818 434.693 368.084 434.693C371.884 433.426 375.683 430.891 376.95 427.089C376.95 425.822 378.216 424.554 378.216 423.287V364.99C379.483 361.188 378.216 359.921 378.216 358.653ZM351.62 408.079H160.38V371.327C169.245 367.525 178.111 361.188 186.976 354.851C194.575 347.248 202.174 338.376 204.707 328.238H306.026C309.826 338.376 316.158 347.248 323.757 354.851C331.356 361.188 340.222 367.525 350.354 371.327L351.62 408.079Z" fill="#1F3664"></path></svg>