<svg xmlns="http://www.w3.org/2000/svg" width="512" height="512" viewBox="0 0 512 512" fill="none"><path d="M61.2541 275.023L86.6807 376.476C87.8365 379.935 91.3038 383.394 94.771 383.394C95.9268 383.394 95.9268 383.394 97.0826 383.394C99.3941 383.394 101.706 381.088 102.861 379.935C104.017 377.629 104.017 375.323 104.017 373.018L78.5905 271.564C77.4347 266.952 72.8117 264.647 68.1887 265.8C62.4099 265.8 60.0984 270.411 61.2541 275.023ZM505.065 103.243C508.532 102.09 510.843 98.6317 510.843 95.173C510.843 91.7144 508.532 88.2557 506.22 87.1028L447.277 61.7394C443.809 60.5866 440.342 60.5866 438.031 62.8923C435.719 64.0452 434.563 67.5039 434.563 69.8096V140.135C409.137 134.371 383.71 129.759 358.283 126.301V100.937L412.604 77.8798C416.071 76.7269 417.227 73.2683 417.227 69.8096C417.227 66.351 414.916 62.8923 412.604 61.7394L353.66 36.376C350.193 35.2232 346.726 35.2232 344.414 37.5289C342.103 38.6818 340.947 42.1404 340.947 44.4462V125.148C314.365 122.842 288.938 121.689 264.667 120.536V91.7144L318.988 68.6567C322.455 67.5039 323.611 65.1981 323.611 61.7394C323.611 58.2808 321.299 54.8221 318.988 53.6693L260.044 28.3059C257.733 27.153 254.265 27.153 251.954 29.4587C249.642 30.6116 248.487 34.0703 248.487 36.376V120.536C224.216 120.536 198.789 121.689 172.207 125.148V100.937L226.527 77.8798C228.839 76.7269 231.15 73.2683 231.15 69.8096C231.15 66.351 228.839 62.8923 226.527 61.7394L167.584 36.376C165.272 35.2232 161.805 35.2232 159.493 37.5289C157.182 38.6818 156.026 42.1404 156.026 44.4462V126.301C128.288 129.759 102.861 134.371 77.4347 140.135V126.301L131.755 103.243C135.223 102.09 136.378 98.6317 136.378 95.173C136.378 91.7144 134.067 88.2557 131.755 87.1028L72.8117 61.7394C70.5002 60.5866 67.0329 60.5866 64.7214 62.8923C62.4099 64.0452 61.2541 67.5039 61.2541 69.8096V144.747C25.4257 155.123 2.31055 170.11 2.31055 188.556C2.31055 190.862 2.31055 192.015 3.4663 194.321V195.474L52.0081 379.935C18.4911 390.311 2.31055 401.84 2.31055 416.827C2.31055 457.178 134.067 484.847 256.577 484.847C379.087 484.847 510.843 457.178 510.843 416.827C510.843 401.84 494.663 390.311 461.146 379.935L509.688 195.474V193.168C509.688 190.862 510.843 189.709 510.843 187.404C510.843 168.957 486.572 155.123 451.9 143.594V126.301L505.065 103.243ZM451.9 82.4913L480.794 95.173L451.9 107.855V82.4913ZM358.283 57.1279L387.177 69.8096L358.283 82.4913V57.1279ZM264.667 49.0577L293.561 61.7394L264.667 74.4211V49.0577ZM171.051 57.1279L199.945 69.8096L171.051 82.4913V57.1279ZM77.4347 82.4913L107.484 95.173L77.4347 107.855V82.4913ZM91.3038 201.238L117.886 217.379C110.952 218.531 104.017 220.837 98.2383 223.143C85.525 220.837 72.8117 217.379 60.0984 212.767C70.5002 209.308 80.902 204.697 91.3038 201.238ZM153.715 187.404L169.895 209.308C160.649 210.461 151.403 211.614 143.313 212.767L114.419 194.321C125.976 192.015 138.69 189.709 153.715 187.404ZM398.735 195.474L369.841 213.92C361.751 212.767 352.505 211.614 343.259 210.461L359.439 188.556C373.308 189.709 386.022 192.015 398.735 195.474ZM451.9 213.92C439.186 217.379 426.473 220.837 413.76 224.296C406.825 221.99 401.046 219.684 394.112 218.531L420.694 202.391C431.096 204.697 441.498 209.308 451.9 213.92ZM256.577 221.99C295.873 221.99 335.168 224.296 373.308 231.213C334.013 236.977 295.873 239.283 256.577 239.283C217.281 239.283 177.986 236.977 139.846 231.213C177.986 225.449 217.281 221.99 256.577 221.99ZM323.611 208.155C312.053 207.003 300.496 205.85 288.938 205.85L293.561 180.486C309.742 181.639 324.767 182.792 339.791 185.098L323.611 208.155ZM272.758 205.85C266.979 205.85 262.356 205.85 256.577 205.85C250.798 205.85 246.175 205.85 240.396 205.85L235.773 180.486C242.708 180.486 249.642 180.486 256.577 180.486C263.511 180.486 270.446 180.486 277.381 180.486L272.758 205.85ZM218.437 180.486L223.06 205.85C211.502 205.85 199.945 207.003 189.543 208.155L173.362 185.098C187.232 182.792 202.256 181.639 218.437 180.486ZM256.577 256.577C334.013 256.577 439.186 243.895 486.572 218.531L442.654 383.394C442.654 384.546 442.654 384.546 442.654 385.699V386.852C440.342 394.922 405.67 409.91 349.037 417.98V390.311C349.037 348.807 314.365 314.221 272.758 314.221H247.331C205.724 314.221 171.051 348.807 171.051 390.311V419.133C109.796 411.063 71.6559 394.922 69.3444 386.852V385.699C69.3444 384.546 69.3444 383.394 69.3444 383.394L25.4257 217.379C72.8117 243.895 179.141 256.577 256.577 256.577ZM298.184 423.744C284.315 424.897 270.446 424.897 255.421 424.897C243.864 424.897 232.306 424.897 221.904 423.744V390.311C221.904 376.476 233.462 364.947 247.331 364.947H272.758C286.627 364.947 298.184 376.476 298.184 390.311V423.744ZM272.758 348.807H247.331C224.216 348.807 204.568 367.253 204.568 391.464V423.744C198.789 423.744 193.01 422.592 187.232 422.592V392.617C187.232 360.336 213.814 333.82 246.175 333.82H271.602C303.963 333.82 330.545 360.336 330.545 392.617V422.592C324.767 423.744 318.988 423.744 313.209 424.897V393.769C315.52 368.406 297.028 348.807 272.758 348.807ZM493.507 416.827C493.507 431.815 403.358 467.554 255.421 467.554C107.484 467.554 18.4911 432.967 18.4911 416.827C18.4911 413.369 26.5814 405.298 55.4753 396.075C72.8117 423.744 167.584 442.19 256.577 442.19C345.57 442.19 440.342 423.744 457.678 396.075C485.417 405.298 493.507 413.369 493.507 416.827ZM493.507 187.404V190.862C491.195 195.474 484.261 201.238 471.548 207.003C456.523 196.627 440.342 188.556 421.85 183.945C421.85 183.945 421.85 183.945 420.694 183.945C399.891 178.181 377.931 173.569 357.128 170.11C357.128 170.11 357.128 170.11 355.972 170.11C322.455 165.499 288.938 163.193 255.421 163.193C221.904 163.193 188.387 165.499 154.87 170.11C154.87 170.11 154.87 170.11 153.715 170.11C131.755 173.569 110.952 178.181 90.148 183.945C90.148 183.945 90.148 183.945 88.9923 183.945C71.6559 188.556 54.3196 196.627 39.2948 207.003C26.5814 201.238 19.6469 196.627 17.3354 190.862V187.404C19.6469 172.416 76.279 151.664 161.805 142.441C161.805 142.441 161.805 142.441 162.961 142.441C224.216 135.524 286.627 135.524 349.037 142.441C349.037 142.441 349.037 142.441 350.193 142.441C434.563 151.664 491.195 172.416 493.507 187.404Z" fill="#253461" stroke="#253461" stroke-width="0.25" stroke-miterlimit="10"></path></svg>