<svg xmlns="http://www.w3.org/2000/svg" width="512" height="512" viewBox="0 0 512 512" fill="none"><path d="M112.338 326.053H26.0301C26.0301 326.053 24.6601 326.053 24.6601 327.423C24.6601 331.533 24.6601 335.643 24.6601 338.383C26.0301 347.973 32.8799 356.193 41.0998 360.303C45.2097 361.673 47.9496 361.673 52.0596 361.673C75.3491 361.673 89.0488 361.673 112.338 361.673C112.338 361.673 113.708 361.673 113.708 360.303C113.708 349.343 113.708 338.383 112.338 326.053ZM112.338 326.053C113.708 326.053 113.708 327.423 112.338 326.053ZM9.59039 50.6889C10.9604 47.9489 10.9604 45.209 12.3303 43.839C15.0703 36.9892 19.1802 31.5093 24.6601 26.0294C32.8799 17.8095 43.8397 12.3296 54.7995 9.5897C57.5394 9.5897 60.2794 8.21973 63.0193 8.21973C67.1293 8.21973 71.2392 8.21973 73.9791 8.21973C115.078 8.21973 238.376 8.21973 443.872 8.21973C450.722 8.21973 458.942 9.5897 464.421 12.3296C478.121 17.8095 489.081 28.7693 495.931 41.0991C500.041 49.3189 502.781 57.5388 502.781 67.1286C502.781 71.2385 502.781 75.3484 502.781 80.8283C502.781 334.273 502.781 461.681 502.781 463.051C502.781 480.86 491.821 495.93 475.381 502.78C472.641 504.15 468.531 505.52 464.421 505.52C458.942 505.52 454.832 505.52 450.722 505.52C437.022 505.52 424.692 505.52 412.363 505.52C280.845 505.52 197.277 505.52 161.657 505.52C157.548 505.52 153.438 505.52 146.588 504.15C145.218 504.15 142.478 502.78 141.108 502.78C131.518 497.3 123.298 489.08 117.818 479.491C116.448 475.381 115.078 471.271 113.708 467.161C113.708 464.421 113.708 461.681 113.708 456.201C113.708 449.351 113.708 439.761 113.708 428.801C113.708 427.432 113.708 427.432 113.708 427.432C113.708 416.472 113.708 401.402 113.708 380.852C90.4188 380.852 78.089 380.852 67.1293 380.852C64.3893 380.852 61.6494 380.852 56.1695 380.852C54.7995 380.852 52.0596 380.852 49.3196 380.852C47.9496 380.852 47.9496 380.852 46.5797 380.852C39.7298 380.852 34.2499 378.112 27.4 374.003C19.1802 368.523 13.7003 361.673 9.59039 353.453C9.59039 352.083 9.59039 352.083 8.22042 350.713C8.22042 349.343 6.85044 349.343 6.85044 347.973C6.85044 345.233 5.48047 343.863 5.48047 341.123C5.48047 337.013 5.48047 332.903 5.48047 328.793C5.48047 253.445 5.48047 167.137 5.48047 71.2385C6.85044 64.3886 8.22041 57.5388 9.59039 50.6889ZM113.708 24.6594C121.928 32.8792 127.408 42.4691 130.148 53.4288C131.518 57.5388 131.518 61.6487 131.518 65.7586C131.518 72.6085 131.518 79.4583 131.518 84.9382C131.518 86.3082 131.518 86.3082 131.518 87.6782C131.518 132.887 131.518 165.767 131.518 184.946C131.518 219.196 131.518 289.064 131.518 395.922C131.518 395.922 131.518 397.292 132.888 397.292H486.341C486.341 397.292 487.711 397.292 487.711 395.922C487.711 393.182 487.711 390.442 487.711 387.702C487.711 227.415 487.711 123.297 487.711 73.9784C487.711 69.8685 487.711 65.7586 487.711 63.0187C486.341 50.6889 479.491 39.7291 468.531 32.8792C461.682 28.7693 457.572 27.3994 452.092 26.0294C447.982 24.6594 443.872 24.6594 441.132 24.6594C300.025 24.6594 191.797 24.6594 113.708 24.6594ZM68.4992 272.625C95.8987 272.625 110.968 272.625 112.338 272.625C112.338 271.255 112.338 269.885 112.338 268.515C112.338 189.056 112.338 124.667 112.338 75.3484C112.338 68.4985 112.338 63.0187 112.338 60.2787C109.598 41.0991 90.4188 24.6594 68.4992 24.6594C47.9496 24.6594 28.77 41.0991 26.0301 61.6487C26.0301 64.3886 26.0301 68.4985 26.0301 76.7184C26.0301 124.667 26.0301 189.056 26.0301 269.885C26.0301 271.255 26.0301 272.625 26.0301 273.995C26.0301 272.625 41.0998 272.625 68.4992 272.625ZM113.708 291.804L26.0301 290.434C26.0301 290.434 24.6601 290.434 24.6601 291.804V308.244C24.6601 308.244 24.6601 309.614 26.0301 309.614H112.338C112.338 309.614 113.708 309.614 113.708 308.244V291.804ZM486.341 416.472L131.518 415.102C131.518 415.102 130.148 415.102 130.148 416.472V432.911C130.148 432.911 130.148 434.281 131.518 434.281H484.971C484.971 434.281 486.341 434.281 486.341 432.911V416.472ZM308.245 486.34C397.293 486.34 445.242 486.34 452.092 486.34C457.572 486.34 461.682 486.34 464.421 486.34C469.901 484.97 474.011 483.6 478.121 479.491C483.601 474.011 487.711 467.161 487.711 458.941C487.711 458.941 487.711 456.201 487.711 452.091C487.711 450.721 486.341 450.721 486.341 450.721C472.641 450.721 147.958 450.721 134.258 450.721C132.888 450.721 132.888 450.721 132.888 452.091C132.888 456.201 132.888 457.571 132.888 458.941C132.888 467.161 136.998 474.011 142.478 479.491C146.588 482.23 150.698 484.97 156.178 486.34C157.547 486.34 161.657 486.34 168.507 486.34C172.617 486.34 220.566 486.34 308.245 486.34Z" fill="#253461" stroke="#253461" stroke-miterlimit="10"></path></svg>