<svg xmlns="http://www.w3.org/2000/svg" width="512" height="512" viewBox="0 0 512 512" fill="none"><path d="M256 504.434C119.803 504.434 7.56641 393.458 7.56641 256C7.56641 190.424 34.0492 127.369 80.7093 80.7094C177.813 -16.3941 334.187 -16.3941 431.291 80.7094C528.394 177.813 528.394 334.187 431.291 431.291C384.63 477.951 321.576 504.434 256 504.434ZM256 25.2217C128.63 25.2217 25.2216 128.631 25.2216 256C25.2216 383.369 128.63 486.778 256 486.778C383.369 486.778 486.778 383.369 486.778 256C486.778 128.631 383.369 25.2217 256 25.2217ZM155.113 174.03C150.069 174.03 146.286 170.246 146.286 165.202C146.286 162.68 147.547 160.158 148.808 158.897C191.685 116.02 249.694 92.0591 319.054 88.2759C374.542 84.4926 423.724 94.5813 447.685 100.887C452.729 102.148 455.251 107.192 453.99 110.975C452.729 114.759 450.207 117.281 445.162 117.281C443.901 117.281 443.901 117.281 442.64 117.281C399.763 105.931 254.739 76.9261 160.158 170.246C158.896 174.03 157.635 174.03 155.113 174.03ZM155.113 481.734C152.591 481.734 150.069 480.473 148.808 477.951C146.286 474.168 146.286 469.123 150.069 466.601C194.207 432.552 224.473 388.414 238.345 336.709C247.172 306.443 247.172 281.222 247.172 272.394C204.295 247.172 170.246 213.123 146.286 170.246C124.847 127.369 116.02 85.7537 113.497 58.0099C113.497 52.9655 117.281 49.1823 122.325 49.1823C127.369 49.1823 131.153 52.9655 131.153 58.0099C133.675 83.2315 141.241 123.586 162.68 162.68C185.379 204.296 218.167 237.084 261.044 261.044C263.566 262.305 264.828 264.828 264.828 267.35C264.828 268.611 267.35 300.138 256 341.754C245.911 380.847 220.69 436.335 161.419 481.734C158.896 481.734 157.635 481.734 155.113 481.734ZM220.69 403.547C219.429 403.547 219.428 403.547 218.167 403.547C156.374 384.631 107.192 351.842 71.8817 305.182C39.0935 262.305 25.2216 218.167 18.9162 189.163C17.6551 184.118 20.1772 180.335 25.2216 179.074C30.2659 177.813 34.0492 180.335 35.3103 185.379C47.9211 243.389 89.5369 345.537 223.212 387.153C228.256 388.414 230.778 393.458 228.256 397.241C226.995 401.025 224.473 403.547 220.69 403.547ZM256 276.177C250.956 276.177 247.172 272.394 247.172 267.35C247.172 263.567 248.433 261.044 252.217 259.783C296.355 238.345 341.754 225.734 385.892 223.212C435.074 220.69 474.167 230.778 498.128 239.606C501.911 240.867 504.433 245.911 503.172 250.956C501.911 254.739 496.867 257.261 491.823 256C469.123 247.172 432.552 238.345 385.892 240.867C344.276 243.389 301.399 254.739 259.783 276.177C258.522 274.916 257.261 276.177 256 276.177ZM324.098 494.345C319.054 494.345 315.271 490.562 315.271 485.517C315.271 482.995 316.532 481.734 317.793 479.212C372.02 418.68 384.63 355.626 387.153 312.749C388.414 266.089 378.325 234.562 378.325 233.301C377.064 228.256 379.586 224.473 383.369 221.951C387.153 219.429 392.197 223.212 394.719 226.995C394.719 228.256 406.069 262.305 404.808 312.749C403.547 358.148 388.414 426.246 331.665 490.562C329.143 493.084 326.621 494.345 324.098 494.345Z" fill="#253461" stroke="#253461" stroke-width="1.3" stroke-miterlimit="10"></path></svg>