<svg xmlns="http://www.w3.org/2000/svg" width="512" height="512" viewBox="0 0 512 512" fill="none"><path d="M467.377 359.633L415.53 330.357L459.401 303.742C467.377 298.419 470.036 287.773 466.048 279.788C460.73 271.804 450.095 269.142 442.118 273.134L380.966 309.065L289.236 255.835L380.966 202.605L442.118 238.535C444.777 239.866 447.436 241.196 451.424 241.196C456.742 241.196 463.389 238.535 466.048 233.212C471.365 225.227 468.707 214.581 459.401 209.258L415.53 182.643L467.377 153.367C475.354 148.044 478.013 138.729 474.024 129.413C468.707 121.429 459.401 118.767 450.095 124.09L398.248 153.367V101.468C398.248 92.1525 390.271 84.168 380.966 84.168C371.66 84.168 363.683 92.1525 363.683 101.468V171.997L271.954 225.227V118.767L333.107 84.168C341.083 78.845 343.742 69.5297 339.754 60.2145C334.436 52.23 325.13 49.5685 315.824 53.5607L270.624 78.845V21.6227C270.624 12.3075 262.648 4.323 253.342 4.323C244.036 4.323 236.06 12.3075 236.06 21.6227V81.5065L190.86 56.2222C182.883 50.8992 172.248 54.8915 166.93 62.876C161.613 70.8605 165.601 81.5065 173.577 86.8295L234.73 121.429V227.889L143.001 174.659V104.129C143.001 94.814 135.024 86.8295 125.718 86.8295C120.401 85.4987 112.424 92.1525 112.424 101.468V153.367L60.5773 124.09C52.6008 118.767 41.9655 121.429 36.6478 130.744C31.3302 138.729 35.3184 149.375 43.2949 154.698L95.142 183.974L51.2714 210.589C43.2949 215.912 40.6361 226.558 44.6243 234.543C47.2831 239.866 53.9302 242.527 59.2479 242.527C61.9067 242.527 64.5655 241.196 68.5537 239.866L129.707 203.935L221.436 257.165L129.707 310.395L68.5537 274.465C60.5773 269.142 49.942 271.804 44.6243 281.119C39.3067 289.103 41.9655 299.749 51.2714 305.072L95.142 331.687L43.2949 359.633C35.3184 364.956 32.6596 374.271 36.6478 383.587C39.3067 388.91 45.9537 391.571 51.2714 391.571C53.9302 391.571 56.589 390.24 59.2479 388.91L111.095 359.633V411.532C111.095 420.848 119.071 428.832 128.377 428.832C137.683 428.832 145.66 420.848 145.66 411.532V341.003L237.389 287.773V394.233L176.236 427.501C168.26 432.824 165.601 442.139 169.589 451.455C172.248 456.778 178.895 460.77 184.213 460.77C186.871 460.77 189.53 459.439 192.189 458.108L237.389 432.824V491.377C237.389 500.692 245.366 508.677 254.671 508.677C263.977 508.677 271.954 500.692 271.954 491.377V432.824L317.154 458.108C319.813 459.439 322.471 460.77 325.13 460.77C331.777 460.77 337.095 458.108 339.754 451.455C345.071 443.47 341.083 432.824 333.107 427.501L271.954 392.902V286.442L363.683 339.672V410.202C363.683 419.517 371.66 427.501 380.966 427.501C390.271 427.501 398.248 419.517 398.248 410.202V358.302L450.095 387.579C452.754 388.91 455.413 390.24 458.071 390.24C463.389 390.24 470.036 387.579 472.695 382.256C479.342 374.271 476.683 363.625 467.377 359.633Z" fill="#253461" stroke="#253461" stroke-width="0.75" stroke-miterlimit="10"></path></svg>